<svg width="244" height="253" viewBox="0 0 244 253" fill="none" xmlns="http://www.w3.org/2000/svg">
<ellipse cx="122" cy="148" rx="122" ry="105" fill="#AD3232"/>
<path d="M121.972 43.862C113.712 42.7027 97.5904 41.5872 94.4111 43.6435C92.8137 44.6767 91.5542 46.1274 90.6822 48.1309C89.8101 50.1345 89.4417 52.7591 90.5643 54.2954C95.6709 61.2841 106.605 56.7669 122.373 57.0566C133.155 57.2547 139.389 57.1275 143.731 53.8846C144.655 53.1946 142.941 51.4625 141.719 50.509C135.685 48.1037 130.431 46.9841 125.427 45.7024C121.869 45.0062 116.245 44.2168 110.45 43.4036M134.291 47.4586C134.657 47.2429 135.445 46.4108 136.688 45.0031C137.38 44.2189 139.373 42.8572 143.893 40.5348C146.767 39.0581 151.208 37.8034 155.637 36.6579C160.067 35.5124 164.45 34.7255 167.18 34.2863C172.389 33.4484 174.165 33.8352 175.043 34.0585C175.415 34.1534 175.566 34.4324 175.63 34.7115C175.694 34.9905 175.648 35.3179 175.573 35.6129C175.396 36.1606 173.759 37.341 166.746 40.7803C161.264 43.2994 151.877 47.3898 141.726 52.1437M131.934 45.5094C131.99 45.1165 132.597 40.7893 133.613 34.0251C134.01 31.3793 134.328 30.3564 134.706 28.1566C135.653 22.6342 136.024 18.7754 135.971 17.9607C135.866 16.3652 135.319 14.7031 134.246 13.7017C133.555 13.0574 132.491 13.2177 131.594 13.3922C130.077 13.687 127.846 16.5898 125.265 20.0997C124.173 21.5834 123.756 22.6253 123.083 25.7182C122.41 28.8112 121.553 33.9652 121.122 36.7886C120.69 39.6119 120.71 39.9485 120.674 40.692M120.027 42.422L119.971 42.8188M121.722 40.4345L121.694 40.6329M119.264 40.8297C119.5 40.652 120.054 36.7223 120.695 30.2721C121.527 21.8864 118.918 13.7592 117.713 11.3467C116.86 9.63959 114.9 9.03116 111.676 8.52278C110.516 8.33989 109.369 8.99245 108.18 9.88737C107.202 10.6232 106.581 13.6654 105.733 17.8236L105.722 17.8755C105.099 20.9279 106.179 27.7623 107.682 36.3797C108.509 40.0548 109.096 41.9446 109.742 44.1619C110.044 45.0666 110.296 45.5235 110.556 45.9942M90.1178 45.9998C89.9111 45.9708 85.0217 45.4954 75.9012 45.0089C67.8177 44.5777 63.041 46.3446 61.1551 47.3014C57.6144 49.0978 55.3901 50.8017 52.3117 53.0314C49.9503 54.7417 48.4799 56.011 47.7606 56.9719C47.4055 57.4462 47.1447 57.9472 51.5671 57.5747C55.9895 57.2023 65.1218 55.9549 70.4311 55.1337C80.8952 53.1231 87.1142 52.1789 88.4462 52.1535C89.0403 52.1299 89.4682 52.0846 89.909 52.0379M106.828 41.3813C106.673 41.1764 105.707 40.2138 101.549 36.7801C98.3378 34.1287 92.6493 29.9335 89.2677 27.2541C84.8251 23.7338 83.0933 22.0513 80.8905 20.682C75.2085 17.1501 70.4307 16.8468 67.9005 17.2271C67.4722 17.2915 67.4542 18.0831 67.4722 18.5976C67.508 19.6232 69.1966 22.0214 71.3078 25.0915C72.3633 26.6265 75.2549 30.1676 79.352 35.5492C82.9296 40.2484 85.4194 42.2564 88.0315 43.7344C88.679 44.1042 89.18 44.4493 89.9069 44.876C90.6338 45.3027 91.5713 45.8006 93.1197 46.1178M125.478 39.0034C124.785 40.0051 123.549 43.5283 122.603 45.9916C122.236 46.9572 121.721 47.9977 121.025 49.0088C120.687 49.429 120.38 49.6606 119.481 50.095M122.245 52.1481C117.519 51.5764 113.66 51.587 110.264 51.8972C107.573 52.5838 106.033 53.017 105.486 52.9416C105.49 52.852 106.067 52.6582 107.205 52.5349M128.734 51.3937C128.409 51.4216 127.995 51.4834 127.507 51.5673M127.507 51.5673C126.174 51.7971 124.299 52.1929 122.252 52.5154C116.549 53.4135 112.01 53.2981 109.507 53.3659C108.809 53.3848 108.134 53.3712 107.483 53.3315M127.507 51.5673C124.962 51.5844 121.407 51.7412 118.744 52.3075C116.2 52.8486 114.054 51.9419 107.483 53.3315M127.507 51.5673C128.441 51.5611 129.239 51.5736 129.808 51.5916C131.832 51.6556 133.351 51.3979 135.334 51.4416C137.151 51.3734 138.291 51.1642 139.059 50.9487C139.443 50.8625 139.815 50.8231 140.742 50.8589M107.483 53.3315C102.748 53.0427 99.2777 51.3724 97.5596 50.7677C96.8538 50.5193 97.1171 49.2736 97.0456 48.4782C97.0123 48.1081 96.577 47.9018 96.219 47.803C95.8609 47.7042 95.4891 47.7436 95.2274 47.9372C94.6861 48.3377 94.6054 49.3735 94.6578 50.305C94.7454 51.8605 97.5182 51.6361 98.5486 52.2428C99.2204 52.6383 98.1767 52.7803 96.9117 52.7787M107.483 53.3315C107.283 53.3738 107.079 53.4182 106.871 53.4649C103.442 54.2325 100.717 54.7071 98.9635 53.8745C98.2786 53.5493 97.5993 53.1157 96.9117 52.7787M96.9117 52.7787C95.9524 52.7775 94.8658 52.6937 94.3031 52.5752C93.9659 52.5042 94.3709 52.31 94.7486 52.2686C95.4883 52.1877 96.2043 52.432 96.9117 52.7787ZM119.051 49.2022C116.71 48.8737 112.32 48.4406 110.17 48.279L110.163 48.2785C107.465 48.0757 103.804 47.8005 101.137 47.3832C100.782 47.3276 101.224 46.9832 101.672 46.7672C102.12 46.5512 102.607 46.3448 106.405 46.7363C110.203 47.1279 117.299 48.1236 124.647 48.8774M141.506 45.4158C142.124 44.9502 143.517 44.2215 145.903 43.3547C147.691 42.7053 149.096 42.6594 151.684 42.0515M151.684 42.0515C152.125 41.948 152.6 41.8282 153.117 41.6863C153.844 41.4869 154.599 41.3111 155.353 41.1525M151.684 42.0515C151.799 41.902 151.908 41.7495 152.011 41.5939M151.684 42.0515C151.444 42.3633 151.179 42.6617 150.893 42.9468M155.353 41.1525C155.394 41.1439 155.436 41.1353 155.477 41.1267M155.353 41.1525C155.39 41.1473 155.427 41.142 155.464 41.1366M155.353 41.1525C154.176 41.3206 153.057 41.461 152.011 41.5939M155.477 41.1267C155.839 41.0515 156.201 40.9801 156.559 40.912M155.477 41.1267C155.472 41.13 155.468 41.1333 155.464 41.1366M155.477 41.1267C156.037 40.6875 156.461 40.3321 156.679 40.1049C157.234 39.5242 157.79 38.9552 158.382 38.419M156.559 40.912C158.149 40.6093 159.667 40.3693 160.836 40.1292C161.222 40.0501 161.592 40.0036 160.842 40.1716C159.283 40.5205 157.768 40.7881 156.328 41.0084M156.559 40.912C156.803 40.8098 157.056 40.7053 157.317 40.5982C159.327 39.7744 160.633 39.0349 162.166 38.6465C163.702 38.2572 166.2 37.4642 168.362 36.6924C168.5 36.6433 168.636 36.5908 168.771 36.5358M156.559 40.912C156.481 40.9444 156.404 40.9765 156.328 41.0084M156.328 41.0084C156.037 41.053 155.749 41.0956 155.464 41.1366M156.328 41.0084C155.766 41.2444 155.247 41.4672 154.761 41.6774M155.464 41.1366C155.248 41.3055 155.013 41.4866 154.761 41.6774M152.011 41.5939C149.594 41.9008 147.573 42.1674 146.16 42.6415C146.146 42.6461 146.133 42.6506 146.119 42.6551M152.011 41.5939C152.063 41.5138 152.114 41.433 152.163 41.3513C152.524 40.7511 152.742 39.9321 152.256 39.9406C151.941 39.9462 151.625 39.961 151.311 39.9879M146.119 42.6551C145.592 42.8298 145.039 42.9735 144.476 43.0979M146.119 42.6551C147.689 41.6369 149.043 40.7195 151.003 40.084C151.105 40.051 151.208 40.019 151.311 39.9879M146.119 42.6551C145.291 43.1917 144.404 43.7563 143.336 44.3224C142.532 44.7488 141.845 45.1461 141.289 45.4858M144.476 43.0979C142.96 43.4333 141.376 43.6287 140.057 43.915C139.686 43.9956 139.371 44.1361 139.099 44.3092M144.476 43.0979C143.064 44.0314 141.818 44.9229 140.929 45.5805M144.476 43.0979C145.578 42.3691 146.782 41.6147 147.995 40.9259C149.004 40.3532 150.146 40.0877 151.311 39.9879M139.099 44.3092C138.618 44.6158 138.276 45.0246 138.013 45.3829M139.099 44.3092C138.692 44.7058 138.319 45.0745 138.013 45.3829M139.099 44.3092C139.609 43.8113 140.171 43.2694 140.718 42.7472M138.013 45.3829C137.764 45.7234 137.586 46.0183 137.43 46.1368C136.947 46.502 137.292 46.1098 138.013 45.3829ZM140.718 42.7472C141.606 41.8976 142.452 41.1003 142.961 40.6301C144.319 39.3753 146.651 39.0166 149.072 38.5711C150.772 38.2582 152.731 38.2286 154.397 38.2189M140.718 42.7472C140.738 42.7383 140.759 42.7294 140.78 42.7204C143.659 41.4858 149.672 39.663 154.397 38.2189M140.718 42.7472C139.149 43.4173 137.335 44.1006 136.068 44.9717C135.41 45.4243 135.188 46.2829 135.302 46.7624C135.369 47.0418 136.211 46.8039 139.547 45.9414C139.969 45.8323 140.433 45.711 140.929 45.5805M154.397 38.2189C155.538 38.2123 156.541 38.2149 157.23 38.1425C157.786 38.0841 158.36 38.0108 158.959 37.9176M154.397 38.2189C155.062 38.0158 155.701 37.8203 156.302 37.6349C159.296 36.7118 165.018 35.0851 163.47 35.5493C162.84 35.7384 161.855 36.0459 161.021 36.5029C160.26 36.9196 159.585 37.3984 158.959 37.9176M158.959 37.9176C160.15 37.7324 161.441 37.4686 162.88 37.0872C163.723 36.8637 164.495 36.7209 165.23 36.6384M158.959 37.9176C158.762 38.0809 158.57 38.2483 158.382 38.419M165.23 36.6384C166.111 36.5394 166.937 36.5273 167.765 36.567C168.127 36.5843 168.463 36.5703 168.771 36.5358M165.23 36.6384C167.036 36.1944 171.147 34.7557 171.123 35.4145M165.23 36.6384C165.104 36.6693 164.99 36.6953 164.889 36.7155C163.267 37.0397 160.945 37.8029 158.382 38.419M168.771 36.5358C169.947 36.4036 170.702 35.9707 170.834 35.8418C171.03 35.6492 171.12 35.5099 171.123 35.4145M168.771 36.5358C169.618 36.1893 170.403 35.744 171.123 35.4145M171.123 35.4145C171.988 35.0193 172.761 34.7906 173.44 35.0988C173.745 35.2374 174.091 35.5906 173.934 35.8176C173.584 36.3222 172.55 37.1669 170.818 37.878C168.801 38.7063 166.772 38.8379 165.116 39.6212C163.468 40.4008 161.54 40.7934 159.356 41.8275M158.382 38.419C158.201 38.4624 158.019 38.505 157.837 38.5468C154.971 39.2009 153.029 39.471 151.311 39.9879M141.289 45.4858C140.424 46.014 139.874 46.4031 139.684 46.5462C139.23 46.8887 139.782 46.4294 140.929 45.5805M141.289 45.4858C141.167 45.5179 141.047 45.5494 140.929 45.5805M141.289 45.4858C144.199 44.7187 148.06 43.6791 150.893 42.9468M150.893 42.9468C150.668 43.1718 150.431 43.3884 150.184 43.5968M150.893 42.9468C151.378 42.8215 151.833 42.7052 152.247 42.6009C152.581 42.5168 152.887 42.441 153.168 42.3727M150.184 43.5968C150.116 43.6542 150.048 43.7111 149.979 43.7673M150.184 43.5968C151.111 43.263 152.052 42.8596 153.168 42.3727M150.184 43.5968C149.974 43.6724 149.765 43.7445 149.555 43.8131C147.272 44.5575 144.778 45.8694 143.023 46.5055C142.468 46.7065 142.942 46.5799 144.324 46.1915M149.979 43.7673C149.529 44.132 149.053 44.4702 148.569 44.7819M149.979 43.7673C149.766 43.8451 149.544 43.9305 149.315 44.0238C148.108 44.5161 146.847 45.1081 145.677 45.6896M149.979 43.7673C151.334 43.272 152.352 43.084 152.82 43.1192M148.569 44.7819C148.355 44.9199 148.139 45.0526 147.924 45.1803M148.569 44.7819C149.146 44.6108 149.759 44.4322 150.389 44.2507M148.569 44.7819C148.026 44.9431 147.514 45.0977 147.048 45.2416C146.551 45.3951 146.095 45.5446 145.677 45.6896M147.924 45.1803C147.642 45.3467 147.361 45.5043 147.083 45.6532M147.924 45.1803C146.82 45.4884 145.884 45.7523 145.125 45.966M147.924 45.1803C148.178 45.1093 148.441 45.036 148.713 44.9604M147.083 45.6532C145.321 46.5959 143.695 47.1881 143.078 47.4374C140.027 48.6708 143.888 47.0131 147.083 45.6532ZM147.083 45.6532C147.663 45.406 148.222 45.1687 148.713 44.9604M148.713 44.9604C149.526 44.6153 150.154 44.3497 150.389 44.2507M148.713 44.9604C149.177 44.8311 149.667 44.6952 150.182 44.5531M150.389 44.2507C150.423 44.2365 150.449 44.2257 150.466 44.2186C150.836 44.0647 150.946 44.0408 150.862 44.115M150.389 44.2507C150.546 44.2056 150.704 44.1604 150.862 44.115M150.862 44.115C150.785 44.1843 150.54 44.3388 150.182 44.5531M150.862 44.115C151.183 44.0235 151.507 43.9315 151.832 43.8396M150.182 44.5531C148.592 45.5058 144.776 47.6387 143.553 48.6974C143.011 49.1666 143.541 49.309 144.054 49.2895C146.645 49.1909 149.686 47.6794 151.485 46.4526C153.59 45.0165 156.069 43.5208 158.294 42.3616M150.182 44.5531C150.529 44.4574 150.887 44.3589 151.255 44.2577M158.294 42.3616C158.532 42.2374 158.767 42.1172 158.999 42.0013C159.119 41.9413 159.238 41.8835 159.356 41.8275M158.294 42.3616C156.582 42.8139 154.995 43.2397 153.541 43.6339M158.294 42.3616C158.507 42.3052 158.722 42.2484 158.939 42.1913C161.05 41.6351 161.453 41.3363 159.356 41.8275M159.356 41.8275C159.189 41.8667 159.006 41.9109 158.806 41.9603C157.528 42.2776 155.573 42.7986 153.515 43.3689M154.761 41.6774C154.187 41.9263 153.66 42.1576 153.168 42.3727M154.761 41.6774C154.565 41.8263 154.359 41.9811 154.146 42.1406M153.168 42.3727C153.537 42.2828 153.861 42.2059 154.146 42.1406M144.324 46.1915C144.564 46.1241 144.831 46.0488 145.125 45.966M144.324 46.1915C144.725 46.0314 145.174 45.8638 145.677 45.6896M144.324 46.1915C142.241 47.023 141.446 47.6515 141.062 47.9412C139.952 48.7777 142.155 47.4672 145.125 45.966M145.125 45.966C145.306 45.8744 145.49 45.7822 145.677 45.6896M151.255 44.2577C151.976 44.0599 152.738 43.8518 153.541 43.6339M151.255 44.2577C147.871 46.7099 144.445 49.1541 145.789 48.5575C146.185 48.3814 146.601 48.2938 146.98 47.9822C148.406 46.8096 153.17 44.6456 153.541 43.6339M151.255 44.2577C151.448 44.1182 151.64 43.9786 151.832 43.8396M153.541 43.6339C153.578 43.5335 153.572 43.4445 153.515 43.3689M153.515 43.3689C152.957 43.5232 152.393 43.6811 151.832 43.8396M153.515 43.3689C153.428 43.2545 153.225 43.1709 152.88 43.1254C152.861 43.1229 152.841 43.1208 152.82 43.1192M151.832 43.8396C152.166 43.5969 152.497 43.3558 152.82 43.1192M152.82 43.1192C153.283 42.7807 153.729 42.4516 154.146 42.1406M154.146 42.1406C155.822 41.7554 156.099 41.7723 155.878 41.8824M81.5689 29.6641C81.9612 29.7596 83.0695 30.2803 85.9663 32.4707C87.3277 33.5001 89.2537 35.0352 91.0324 36.4472M91.0324 36.4472C92.3497 37.4929 93.5862 38.4711 94.4529 39.1264C96.4899 40.6666 96.3305 40.3612 94.2428 38.7899C93.4019 38.1571 92.2492 37.3206 91.0324 36.4472ZM91.0324 36.4472C89.2279 35.1519 87.2828 33.7758 86.0061 32.8635C83.8687 31.3362 83.7267 31.1949 83.7702 31.3003C83.9529 31.7436 84.6666 32.5349 85.6154 33.5061M85.6154 33.5061C85.7314 33.6248 85.8509 33.7462 85.9733 33.87C88.3293 36.2513 90.8938 37.1409 91.0526 37.184C91.0929 37.195 90.7521 37.0414 88.6262 35.5892C87.8233 35.0407 86.7563 34.3025 85.6154 33.5061ZM85.6154 33.5061C84.1555 32.487 82.5745 31.3726 81.271 30.4385M81.271 30.4385C80.8959 30.1698 80.5438 29.916 80.2242 29.6837C80.1346 29.6186 80.0471 29.5546 79.9617 29.4918M81.271 30.4385C81.5512 30.7208 81.8184 31.0047 82.0757 31.31C82.9225 32.3149 83.9425 33.7644 85.0357 34.9008C86.9248 36.8646 88.0467 38.0041 88.8154 38.7908M81.271 30.4385C80.9559 30.1211 80.6245 29.8057 80.2722 29.4637C79.7366 28.9436 79.0761 28.3164 78.4461 27.7353M79.9617 29.4918C77.3265 27.5536 76.634 26.6863 76.4982 26.6429C76.1709 26.5383 77.1771 27.9668 78.3164 29.5765C78.7748 30.2242 79.3266 30.9646 79.9094 31.7167M79.9617 29.4918C80.5962 30.2367 81.237 31.0104 81.79 31.7387C83.4181 33.883 84.4634 35.3532 85.0219 36.2702M79.9617 29.4918C79.4341 28.8723 78.9108 28.2726 78.4461 27.7353M79.9094 31.7167C80.775 32.8336 81.7089 33.9763 82.5068 34.8792C83.842 36.3902 84.7445 37.164 85.1864 37.438C85.6284 37.7121 85.5824 37.463 85.4819 37.1621C85.4152 36.9626 85.2645 36.6686 85.0219 36.2702M79.9094 31.7167C79.0044 30.8054 77.7606 29.4753 76.427 27.81C75.5301 26.6902 75.1531 26.2126 74.5448 25.2149C74.2779 24.7772 74.0325 24.3688 73.8043 23.9865M79.9094 31.7167C80.3973 32.2079 80.7868 32.5775 81.0389 32.8122C82.0867 33.7881 82.9794 34.7213 83.9354 35.445C84.2943 35.7166 84.6585 35.9949 85.0219 36.2702M85.0219 36.2702C86.1087 37.0935 87.1882 37.8897 88.0957 38.3996C88.3278 38.53 88.5696 38.6611 88.8154 38.7908M78.4461 27.7353C78.1126 27.3496 77.8092 26.996 77.556 26.6902C75.8328 24.6095 74.7864 23.3272 73.9874 22.5759C73.4224 22.0446 72.7091 21.5121 71.9838 20.9899M78.4461 27.7353C77.8136 27.1518 77.2118 26.6149 76.798 26.2799C75.9383 25.584 75.011 24.9053 74.0878 24.2052C73.9889 24.1302 73.8945 24.0573 73.8043 23.9865M71.9838 20.9899C71.824 20.8749 71.6637 20.7604 71.5042 20.6465L71.4849 20.6327C69.791 19.4229 69.3752 18.7636 68.8418 18.1979C68.7023 18.05 68.5558 17.9133 68.5619 17.8517C68.6103 17.3706 69.7173 18.3165 70.5749 19.1918C71.0857 19.7131 71.522 20.2879 71.9838 20.9899ZM71.9838 20.9899C72.5089 21.7883 73.0669 22.7511 73.8043 23.9865M73.8043 23.9865C72.5218 22.9791 72.086 22.3819 71.4313 21.8703C71.1376 21.6408 70.8973 21.3046 70.4917 21.0031C70.2732 20.8408 70.0067 20.6906 70.1993 21.1606C70.8767 22.8136 72.4589 24.9442 73.6666 26.6652C74.5204 27.8821 75.0865 28.3842 75.9086 29.3556C77.3663 31.0782 78.3821 32.2341 79.2153 33.3137C80.2549 34.6607 81.7779 36.5932 82.2353 37.272C82.7397 38.0204 83.1801 38.5474 83.6443 39.1653C84.2283 39.9426 85.4071 40.9826 87.4717 42.7019C88.5759 43.6215 89.5403 44.1388 90.9717 44.8507C91.7939 45.2597 92.4474 45.5701 92.7226 45.5082C93.9182 45.2395 91.0549 43.3366 89.578 42.0674C88.9999 41.5706 88.4722 41.1047 87.9833 40.6575M88.8154 38.7908C89.9605 39.3952 91.1913 39.9698 91.9189 40.307C92.6764 40.6581 93.3914 41.1669 94.2818 41.6595C95.2474 42.1937 95.5445 43.3073 95.5488 43.5733C95.5592 44.2049 93.0917 42.8479 91.9485 42.03C91.222 41.5102 90.7811 40.8863 90.0564 40.0903C89.7213 39.7223 89.3555 39.3436 88.8154 38.7908ZM87.9833 40.6575C87.6558 40.358 87.3457 40.0668 87.0494 39.7804M87.9833 40.6575C87.4875 40.2567 87.0011 39.8641 86.5452 39.5035M87.9833 40.6575C88.0225 40.6892 88.0619 40.721 88.1012 40.7528M87.0494 39.7804C86.3763 39.1297 85.775 38.5037 85.2044 37.8597C84.842 37.4506 84.5116 36.9891 84.5263 36.9851C84.541 36.981 84.9216 37.4388 86.057 38.4738C86.6922 39.0528 87.56 39.8081 88.4264 40.538M87.0494 39.7804C87.5006 40.0281 87.9683 40.2847 88.4264 40.538M87.0494 39.7804C86.8785 39.6866 86.71 39.5941 86.5452 39.5035M88.4264 40.538C89.1088 41.1128 89.7903 41.6719 90.3566 42.1166C92.2175 43.578 93.085 43.9438 93.2884 43.9528C93.8653 43.9781 92.5374 42.9294 90.8176 41.897C90.1891 41.5197 89.3261 41.0354 88.4264 40.538ZM86.5452 39.5035C86.0353 39.2232 85.5618 38.9618 85.1668 38.7392C83.335 37.7071 82.8202 37.3572 82.4282 37.0987C82.2442 36.9774 82.1662 36.7776 82.2354 36.704C83.0772 36.941 84.2208 37.7952 85.5172 38.7094C85.833 38.9453 86.1793 39.2141 86.5452 39.5035ZM70.7816 19.2037C70.5828 19.4589 70.323 20.7252 70.3706 21.8397C70.3813 22.0896 69.8327 21.3194 69.6484 20.886C69.4872 20.507 69.5999 20.0612 69.5529 19.6673C69.531 19.4841 69.6192 19.3298 69.838 19.2165C71.1047 18.5603 72.4435 19.2727 74.4371 20.5464C75.8371 21.441 78.3888 23.1048 80.2541 24.2355C82.1194 25.3662 83.2139 25.9242 85.222 27.3041C87.23 28.684 90.1183 30.8689 91.9441 32.3249C94.5061 34.3682 95.3288 35.2302 96.0069 35.7512C98.6998 37.8204 99.9979 38.9077 101.739 40.3132C102.528 40.9503 102.919 41.6855 103.084 42.14C103.159 42.3458 102.282 41.9685 99.8796 40.7202C97.4774 39.4719 93.2747 37.143 90.7837 35.8166C89.0085 34.8714 88.1672 34.4712 87.758 34.2862M87.758 34.2862C87.593 34.2116 87.4982 34.172 87.4408 34.1458C87.3175 34.0896 87.3738 34.098 87.758 34.2862ZM87.758 34.2862C87.9967 34.4032 88.3621 34.5896 88.8896 34.8731C90.2663 35.6129 92.7392 37.0115 94.3934 38.0482C97.9556 40.2807 98.2783 40.9961 98.5784 41.1804C98.7414 41.2805 98.8618 41.4836 98.6941 41.5434C98.0878 41.7596 96.4037 41.0627 93.2424 39.8267C91.2212 39.0364 88.4196 37.7509 87.1606 37.1771C86.2711 36.7717 88.3862 38.006 91.0982 39.7751C92.3747 40.534 93.279 41.0678 94.3125 41.703C94.7162 41.9264 94.8748 41.9486 95.2091 41.6279M75.7304 21.4914C75.7192 21.5708 76.4573 22.3631 78.7335 24.391C79.1372 24.7506 79.6036 25.1399 80.0957 25.5361M80.0957 25.5361C81.4183 26.6011 82.9259 27.7164 83.8984 28.4438C85.2703 29.4699 85.9987 29.8119 86.675 30.0859M80.0957 25.5361C80.962 25.8744 82.0683 26.5118 84.7289 28.5597C85.2852 28.9879 85.9518 29.5136 86.675 30.0859M80.0957 25.5361C79.9996 25.4986 79.9065 25.4647 79.8146 25.433C79.5549 25.3435 80.3331 26.4538 81.275 27.7288C82.2168 29.0038 83.6258 30.7788 84.5476 31.8825C84.8988 32.303 85.2313 32.6712 85.5467 32.9962M86.675 30.0859C86.7904 30.1326 86.9042 30.1774 87.0195 30.2232C87.8667 30.56 89.3268 31.6451 91.0226 32.9444C93.0565 34.5028 95.6079 36.4116 96.8185 37.2555C97.1252 37.4693 97.4864 37.5748 97.5059 37.6192C97.6256 37.8918 95.9849 37.043 92.7883 34.7885C91.0667 33.5743 88.6583 31.6552 86.675 30.0859ZM85.5467 32.9962C86.9457 34.438 88.0071 35.0297 88.8656 35.5683C89.6748 36.0758 90.6562 36.4936 91.044 36.6516C91.1705 36.7031 90.9653 36.4822 90.5201 36.0659M85.5467 32.9962C87.3205 34.203 89.2595 35.38 90.4358 36.0203C90.4644 36.0358 90.4925 36.051 90.5201 36.0659M85.5467 32.9962C85.3581 32.8679 85.1714 32.7393 84.9876 32.6109C83.0757 31.2751 81.5547 30.0102 80.5296 29.0617C78.1999 26.9061 77.7804 26.1127 76.71 24.8809C75.934 23.988 75.178 23.4189 74.8329 22.9391C75.061 23.0299 75.5433 23.3832 76.2856 24.0364C76.7384 24.4468 77.3459 25.0173 78.2986 25.8962M90.5201 36.0659C89.6243 35.2282 87.7565 33.5994 85.6641 31.8075C82.3177 28.9418 82.0988 28.2286 82.125 28.1692C82.2065 27.9834 82.753 28.7199 84.4428 30.1355C86.1327 31.551 89.0329 33.9397 90.5979 35.2409C92.1629 36.5421 92.3049 36.6833 92.1995 36.731C92.0965 36.7777 91.7527 36.7308 90.5201 36.0659ZM72.4094 18.084C72.9022 18.0306 74.5713 18.3458 75.9626 18.9283C76.4075 19.1146 76.7584 19.3881 77.9702 20.1458C80.7452 21.881 82.6217 23.3153 83.112 23.7297C83.9699 24.4548 84.9918 25.0364 86.6092 26.095C87.8366 26.8982 89.793 28.3844 91.0431 29.3662C92.8068 30.7514 93.488 31.4582 94.2778 32.0562C95.6763 33.115 96.5563 34.0544 97.4099 34.7618C99.4176 36.4258 100.811 37.7962 101.233 38.2624C102.538 39.7028 104.077 40.9459 105.119 41.8728C105.323 42.0252 105.55 42.1379 105.74 42.2468C105.931 42.3556 106.078 42.4572 106.334 42.699M74.4547 19.229C74.534 19.2401 74.8073 19.3189 76.4216 20.2336C77.8294 21.0313 80.328 22.6833 81.7022 23.5625C83.224 24.5432 83.4782 24.7836 83.7212 25.0824C83.8619 25.2455 84.038 25.432 84.2194 25.6241M88.6368 49.1617C88.1982 49.1001 87.2862 49.2148 82.7196 49.7927C79.6349 50.1831 74.1069 51.0123 71.1156 51.4253C67.347 51.9455 66.4276 52.0082 65.5056 52.1643C64.3922 52.3529 62.0762 52.5372 60.2426 52.9974C58.4234 53.454 56.387 53.9889 55.3569 54.3339C53.6656 54.9004 53.0053 55.0658 52.3707 55.3658C51.7701 55.7111 51.2556 55.884 50.8512 56.0105C50.6166 56.0799 50.3223 56.1599 49.882 56.3456M52.8803 54.1928C52.8914 54.1135 52.9194 53.914 53.1737 53.5428C53.6391 52.8635 56.1572 51.9676 59.3481 50.5991C60.6707 50.032 61.4418 49.8451 63.6816 49.6693C65.9215 49.4934 69.6197 49.3654 71.7117 49.265C74.7645 49.1184 75.6504 49.0965 77.3433 48.8047C79.3114 48.4654 80.3973 48.4563 83.4622 48.3962C85.1339 48.3635 86.1145 48.4817 87.6224 48.6314C88.2923 48.6648 88.9807 48.7198 89.6666 48.7756C89.9558 48.7757 90.1255 48.7186 90.5746 48.4532M90.9162 47.7658C90.8368 47.7547 89.0453 47.5437 86.0501 47.2251C83.219 46.9239 81.8956 47.1935 80.772 47.3011C79.3275 47.4395 77.5394 47.5095 75.1627 47.6131M75.1627 47.6131C75.1204 47.6149 75.078 47.6168 75.0354 47.6186C73.1922 47.6992 72.3834 47.6968 71.5925 47.6477C70.9174 47.6058 70.0277 47.6113 69.2151 47.5591C68.236 47.4963 67.0926 47.567 66.0584 47.7889C65.0763 47.9996 63.873 48.3799 62.7574 48.8974C62.4416 49.0439 62.1295 49.1223 61.8267 49.1516M75.1627 47.6131C75.8866 47.5301 76.761 47.4523 77.8253 47.3968C79.2901 47.3203 80.7298 47.1548 81.9902 47.0099L82.0206 47.0064C82.4958 46.9517 82.6544 46.974 82.0186 46.8848C79.9947 46.6007 77.9394 46.4331 74.7655 46.4814C72.4142 46.5172 70.8622 46.4303 69.0037 46.4896C66.1575 46.5804 65.1564 46.6561 63.9205 47.0851C62.0751 47.7256 59.9972 48.892 60.7301 49.0657C60.7933 49.0807 60.8574 49.0943 60.9223 49.1064M75.1627 47.6131C73.5685 47.7957 72.7041 48.003 72.1485 48.0523C70.2 48.2252 66.6211 48.6038 65.133 48.8637C64.1585 49.0339 63.3069 49.2 62.7229 49.5672C62.5283 49.6895 62.2988 49.7798 62.0516 49.845M61.8267 49.1516C61.5134 49.1819 61.21 49.1598 60.9223 49.1064M61.8267 49.1516C61.6751 49.0532 61.4391 48.9948 61.2405 49.035C61.1509 49.0531 61.0423 49.0775 60.9223 49.1064M61.8267 49.1516C61.8299 49.1537 61.833 49.1557 61.8361 49.1578C61.9872 49.2599 62.0442 49.4297 62.0625 49.5965C62.0718 49.6812 62.0675 49.7639 62.0516 49.845M60.9223 49.1064C60.0852 49.3084 58.6948 49.7361 59.3298 49.8698C59.7764 49.9639 61.0573 50.1072 62.0516 49.845M62.0516 49.845C61.9492 50.3679 61.3634 50.8204 60.813 51.2916M60.813 51.2916C60.7556 51.3407 60.6986 51.39 60.6426 51.4396C60.0294 51.9827 58.8143 52.1236 57.9895 52.172C57.8814 52.1784 58.9029 51.8001 60.813 51.2916ZM60.813 51.2916C61.6909 51.0578 62.7565 50.7966 63.9863 50.5326C68.1742 49.6335 70.7179 49.9153 70.9165 49.9628C70.9112 50.0221 70.6906 50.153 70.4751 50.2263C70.2595 50.2996 70.0556 50.3114 69.4513 50.5134M52.8845 55.9092C53.4588 55.8685 54.5391 55.7333 57.747 55.2527C60.5649 54.8306 65.7498 53.7465 68.5544 53.1836C69.1712 53.0598 69.7048 52.9488 70.1744 52.8481M70.1744 52.8481C70.7338 52.7283 71.2025 52.6231 71.6131 52.5285M70.1744 52.8481C70.0185 52.7806 69.6266 52.8822 69.1725 52.9057C67.9991 52.9665 65.4493 53.2683 62.514 53.2997C61.1669 53.3141 59.718 53.5509 58.7183 53.4796C58.4611 53.4613 58.676 53.3159 59.0981 53.1622C60.1087 52.7942 61.2975 52.4253 64.239 52.4523C65.999 52.4684 68.6818 52.5393 71.6131 52.5285M70.1744 52.8481C70.1852 52.8528 70.1949 52.8583 70.2034 52.8647C70.2446 52.8958 70.2803 52.926 70.3108 52.9554M71.6131 52.5285C72.5711 52.3077 73.2129 52.1445 73.9537 51.986C75.636 51.626 77.4978 51.3191 78.891 51.1856C79.2428 51.1519 79.6959 51.0957 81.4187 50.9717C83.1414 50.8476 86.1202 50.6591 88.0482 50.4958C89.9762 50.3326 90.7632 50.2004 91.2705 50.1263C91.7779 50.0523 91.9817 50.0405 91.1784 50.3113C90.375 50.5822 88.5583 51.1361 85.6375 51.5877C82.7168 52.0393 78.7472 52.3719 74.6885 52.4831C74.1935 52.4967 73.699 52.5068 73.208 52.5141M71.6131 52.5285C71.7883 52.5278 71.9644 52.5269 72.1413 52.5256M73.208 52.5141C72.8502 52.5194 72.4943 52.5231 72.1413 52.5256M73.208 52.5141C73.3544 52.3552 73.3557 52.2343 73.2984 52.1973C73.222 52.148 73.0567 52.2787 72.3292 52.4755C72.2669 52.4924 72.2043 52.5091 72.1413 52.5256M73.208 52.5141C73.1592 52.567 73.0943 52.6242 73.0101 52.6839C71.336 53.8712 70.4504 53.5937 70.3263 53.7398C69.8144 54.343 72.2086 53.5181 73.2168 53.3508C73.636 53.2674 74.016 53.197 74.3639 53.1845C74.5477 53.1895 74.746 53.2173 75.0874 53.1427M72.1413 52.5256C71.5506 52.681 70.9297 52.8244 70.3108 52.9554M70.3108 52.9554C71.3768 53.9832 65.9752 53.9489 65.3351 53.9591C63.9535 53.9812 67.1052 53.6338 70.3108 52.9554ZM110.437 29.1811C110.447 28.8174 110.518 27.4448 110.561 23.8178C110.594 21.0688 110.357 16.4758 110.281 14.1918C110.205 11.9077 110.223 12.0719 110.317 12.4112C110.412 12.7505 110.583 13.2598 111.043 17.2142C111.158 18.209 111.292 19.4208 111.434 20.7356M111.434 20.7356C111.45 20.8869 111.466 21.0396 111.483 21.1935M111.434 20.7356C111.429 21.213 111.432 21.744 111.446 22.3341C111.447 22.3815 111.448 22.4294 111.449 22.4775M111.434 20.7356C111.447 19.3699 111.521 18.4437 111.561 17.8341C111.614 17.0113 111.602 16.8074 111.519 19.8461C111.508 20.244 111.496 20.6977 111.483 21.1935M111.483 21.1935C111.893 25.0171 112.359 29.5752 112.651 32.1978C113.056 35.8431 113.101 35.5258 113.185 32.6208C113.269 29.7158 113.391 24.2328 113.552 20.7141C113.712 17.1954 113.907 15.8073 113.991 15.3528C114.006 15.2701 114.09 16.8171 114.159 21.1063C114.213 24.5343 114.036 30.5048 113.962 33.6993C113.889 36.8938 113.856 37.1318 114.08 35.5291C114.305 33.9264 114.79 30.4758 115.32 27.7064C115.85 24.937 116.412 22.9532 116.775 22.1236C117.138 21.2941 117.287 21.6789 117.402 24.0463C117.508 26.2087 117.583 30.0156 117.561 33.154M111.483 21.1935C111.472 21.5962 111.461 22.0266 111.449 22.4775M117.561 33.154C117.559 33.4516 117.556 33.7431 117.552 34.0267C117.515 36.7091 117.394 38.5893 117.32 39.6504M117.561 33.154C117.492 35.0737 117.425 37.216 117.367 38.6124C117.35 39.0224 117.334 39.3676 117.32 39.6504M117.561 33.154C117.592 32.2729 117.625 31.4388 117.656 30.7452C117.757 28.5406 117.852 27.8663 117.881 27.6578C117.911 27.4493 117.872 27.7269 117.889 29.3312C117.907 30.9354 117.982 33.8578 117.895 36.2557C117.876 36.7985 117.848 37.3099 117.81 37.7819M117.32 39.6504C117.304 39.8846 117.29 40.0789 117.28 40.2332C117.234 40.9144 117.264 40.7732 117.32 39.6504ZM117.81 37.7819C117.71 39.0537 117.542 40.0395 117.288 40.5833M117.81 37.7819C117.752 37.8187 117.671 38.0802 117.512 39.1641C117.442 39.6439 117.367 40.1203 117.288 40.5833M117.81 37.7819C117.817 37.7779 117.823 37.7765 117.829 37.7771C119.517 37.9285 118.552 42.3672 118.686 43.022C118.817 43.6655 119.409 41.7986 119.617 41.7648C119.833 42.2576 119.991 43.1806 120.093 43.9106C120.148 44.1083 120.209 43.9552 120.651 43.7279M117.288 40.5833C117.22 40.7292 117.146 40.8433 117.066 40.9226C117.001 40.9858 116.938 41.0416 116.875 41.0902M117.288 40.5833C117.154 41.3809 117.011 42.1384 116.873 42.8041M116.875 41.0902C116.827 41.1274 116.78 41.1604 116.733 41.1894M116.875 41.0902C116.851 39.8357 116.752 38.365 116.423 37.9206M116.875 41.0902C116.889 41.812 116.878 42.4623 116.873 42.8041M116.733 41.1894C116.583 41.2816 116.438 41.3334 116.298 41.3496M116.733 41.1894C116.817 42.148 116.849 42.6353 116.862 42.8556M116.733 41.1894C116.703 40.8547 116.668 40.4624 116.625 40.004C116.568 39.4049 116.499 38.6937 116.423 37.9206M116.298 41.3496C116.226 41.3579 116.156 41.3569 116.086 41.3472M116.298 41.3496C116.241 40.3276 116.169 39.1023 116.091 37.8147M116.298 41.3496C116.308 41.5226 116.317 41.6899 116.326 41.8506C116.398 43.1708 116.437 44.0225 116.456 44.572M116.086 41.3472C115.8 41.3073 115.532 41.1202 115.283 40.8304M116.086 41.3472C116.158 41.9973 116.221 42.596 116.272 43.0961C116.345 43.8166 116.391 44.3316 116.42 44.6981M116.086 41.3472C115.978 40.361 115.851 39.2565 115.724 38.199M115.283 40.8304C115.186 40.717 115.091 40.588 115 40.4459M115.283 40.8304C115.278 40.7847 115.273 40.7389 115.268 40.6929C115.233 40.3711 115.2 40.044 115.171 39.7155M115.283 40.8304C115.517 42.9021 115.857 44.666 116.116 45.2827C116.169 45.4088 116.279 45.1781 116.42 44.6981M115 40.4459C114.515 39.6969 114.107 38.586 113.764 37.5044M115 40.4459C114.814 41.3004 114.646 42.2456 114.469 43.0931C114.335 43.7302 113.962 39.4115 113.764 37.5044M115 40.4459C115.055 40.1928 115.111 39.9477 115.171 39.7155M113.764 37.5044C113.72 37.3659 113.677 37.2278 113.636 37.091M113.764 37.5044C113.686 36.7564 113.636 36.3793 113.637 36.818C113.637 36.9086 113.637 36.9996 113.636 37.091M113.636 37.091C113.361 36.1925 113.133 35.3504 112.945 34.798C112.549 33.6391 112.27 32.2032 111.994 29.9394C111.723 27.7228 111.509 24.7394 111.449 22.4775M113.636 37.091C113.611 39.7406 113.153 42.6693 113.137 42.3632C112.931 38.4481 112.956 34.9142 112.912 35.2696C112.5 38.6462 111.932 41.2966 111.836 40.8669C111.585 39.7435 111.382 38.1504 110.96 36.7995M111.449 22.4775C111.365 25.7108 111.255 29.9973 111.168 32.6491C111.055 36.126 110.989 36.602 110.965 36.7678C110.964 36.7807 110.962 36.7917 110.96 36.7995M110.96 36.7995C110.955 36.826 110.951 36.8174 110.939 36.7306M110.96 36.7995C110.953 36.7765 110.946 36.7535 110.939 36.7306M110.939 36.7306C110.908 36.5122 110.826 35.799 110.558 33.9048C110.152 31.0346 109.317 25.4577 108.891 21.9786C108.465 18.4996 108.474 17.2875 108.261 18.2098C108.048 19.1322 107.614 22.2258 107.41 23.6807C107.244 24.8579 107.289 21.9438 107.255 18.1177C107.247 17.2228 106.954 20.2092 106.841 24.0757C106.814 24.9682 106.964 24.8112 107.195 26.3425C107.4 27.6997 107.659 30.2521 107.79 32.1284C107.947 34.3909 107.941 35.6033 107.905 36.2691M110.939 36.7306C110.8 36.2957 110.638 35.8876 110.443 35.5303M107.905 36.2691C107.899 36.3809 107.892 36.4774 107.885 36.5608M107.905 36.2691C107.898 36.3801 107.891 36.4767 107.885 36.5608M107.905 36.2691C107.932 35.8564 107.97 35.2452 108.019 34.3433C108.163 31.7322 108.428 26.6737 108.566 24.3509C108.703 22.0282 108.704 22.5946 109.21 26.4959C109.51 28.8201 109.99 32.3219 110.443 35.5303M107.885 36.5608C107.854 36.9273 107.818 37.042 107.833 37.1077C107.835 37.1191 107.849 37.0693 107.885 36.5608ZM110.443 35.5303C110.554 36.3138 110.663 37.0799 110.767 37.8069M110.443 35.5303C110.38 35.4144 110.313 35.3039 110.243 35.1995C110.215 35.1575 110.188 35.1287 110.164 35.1128M110.767 37.8069C110.952 39.1001 111.123 40.2701 111.263 41.1964C111.802 44.7765 111.841 44.4989 111.674 43.2377C111.388 41.0739 111.051 39.1959 110.767 37.8069ZM110.767 37.8069C110.59 36.9437 110.434 36.2694 110.324 35.8328C110.267 35.6089 110.214 35.3621 110.164 35.1128M110.164 35.1128C110.065 34.6155 109.982 34.1085 109.921 33.7547C109.801 33.061 109.705 36.1131 109.56 41.0758C109.51 42.8156 109.482 42.9741 109.512 42.8999C109.666 42.5279 109.76 40.1368 109.868 36.7438C109.906 35.5675 109.986 34.9968 110.164 35.1128ZM115.171 39.7155C115.332 39.0805 115.512 38.5417 115.724 38.199M115.171 39.7155C115.003 37.8691 114.919 35.9789 114.905 34.7336C114.888 33.2668 114.966 32.7115 115.259 34.6362C115.388 35.489 115.557 36.8031 115.724 38.199M115.724 38.199C115.749 38.1589 115.775 38.1214 115.801 38.0868C115.907 37.9439 116.004 37.8559 116.091 37.8147M116.091 37.8147C116.222 37.7529 116.331 37.7971 116.423 37.9206M116.091 37.8147C115.902 34.6833 115.679 31.1836 115.556 29.3456C115.374 26.6239 115.411 27.5188 115.668 30.2707C115.864 32.3652 116.179 35.4571 116.423 37.9206M116.873 42.8041C116.871 42.8975 116.87 42.9678 116.87 43.0104C116.87 43.0188 116.869 42.9792 116.862 42.8556M116.873 42.8041C116.869 42.8213 116.866 42.8385 116.862 42.8556M116.862 42.8556C116.717 43.5507 116.577 44.1429 116.456 44.572M116.456 44.572C116.488 45.4452 116.472 45.5554 116.47 45.5702C116.468 45.5866 116.483 45.4814 116.42 44.6981M116.456 44.572C116.444 44.6158 116.432 44.6578 116.42 44.6981M127.75 27.199C127.819 27.5727 127.888 27.9463 127.907 30.563C127.925 33.1798 127.892 38.0282 127.814 40.9622C127.735 43.8961 127.613 44.7687 127.253 42.0018C126.893 39.2349 126.299 32.802 126.021 29.0067C125.742 25.2113 125.796 24.2483 125.726 23.8798C125.655 23.5114 125.457 23.7668 124.959 26.4311C124.462 29.0955 123.67 34.161 123.474 35.405C123.278 36.649 123.702 33.9179 124.097 31.828C124.753 28.3537 125.333 26.6588 125.532 26.1156C125.617 25.8822 125.629 25.7199 125.541 28.799C125.452 31.878 125.253 38.1995 125.132 41.2918C125.012 44.3841 124.977 44.0557 124.501 42.9729C124.025 41.8901 123.109 40.0629 122.497 38.6773C122.432 38.5302 122.37 38.3877 122.312 38.2498M122.312 38.2498C121.484 36.2939 121.311 35.2631 121.389 34.969C121.473 34.6561 122.063 34.8167 122.329 34.9545C122.431 35.1098 122.466 35.4382 122.416 36.5279C122.394 36.9862 122.358 37.5774 122.312 38.2498ZM122.312 38.2498C122.249 39.1762 122.168 40.2566 122.087 41.3558M129.38 19.952C129.459 19.9631 129.755 22.1885 130.168 27.3753C130.404 30.3374 130.38 33.99 130.245 37.1806C130.211 37.9751 130.165 38.7343 130.113 39.4457M130.113 39.4457C129.959 41.55 129.751 43.2353 129.636 44.1725L129.629 44.2269C129.477 45.4592 129.51 45.2213 129.865 41.8297C129.936 41.1454 130.021 40.3329 130.113 39.4457ZM130.113 39.4457C130.477 35.936 130.959 31.2567 131.217 28.7107C131.54 25.5212 131.49 25.8782 131.433 27.2912C131.376 28.7043 131.314 31.1626 131.038 34.3157C130.761 37.4688 130.272 41.2422 129.768 45.13M127.358 42.2181C127.24 42.4858 126.933 43.4992 127.228 44.871C127.301 45.2091 127.467 45.4958 127.605 45.6812C127.833 45.9876 128.411 46.0425 129.039 46.07C129.867 46.1063 130.484 44.9511 131.02 44.3468C131.505 43.7997 131.921 46.6454 132.342 47.7358C132.531 48.1282 132.727 48.4854 133.081 48.7188C133.332 48.8166 133.728 48.8722 134.137 48.9296M134.272 47.9681C134.4 47.0535 134.829 45.1515 135.302 44.3981C135.835 43.5508 136.42 43.1247 137.005 42.5941C137.653 42.0068 138.608 41.1891 139.458 40.6906C140.227 40.2394 141.164 39.8688 142.491 39.2799C143.743 38.7245 145.097 38.623 146.919 38.2284C150.485 37.456 152.986 37.1553 153.365 37.0657C154.297 36.8456 155.3 36.9481 156.256 36.8384C157.747 36.6673 159.155 36.5504 160.049 36.5937C161.099 36.6447 162.909 36.2219 164.552 35.9401C165.369 35.8 166.281 35.5504 167.271 35.3408C167.502 35.3112 167.706 35.2994 167.896 35.2648C168.085 35.2301 168.255 35.1731 168.808 35.0447M109.317 13.5822C109 14.1051 108.473 16.1071 108.242 17.7507C108.173 18.244 108.201 18.0457 108.195 17.7992C108.168 16.688 108.246 15.4 108.442 14.1377C108.605 13.0864 109.505 12.2237 109.886 11.5608C110.309 10.823 111.433 10.6952 112.402 10.6448C113.817 10.5712 114.971 13.4296 115.742 14.6425C116.328 15.5658 116.84 16.9996 117.427 18.9136C118.174 21.3507 118.328 23.0151 118.415 23.556C118.546 24.3743 118.902 26.472 119.064 29.2491C119.224 32.0031 118.904 33.4677 118.86 34.5063C118.805 35.3374 118.718 36.5445 118.609 38.0416C118.546 38.643 118.412 39.5948 118.274 40.5755M112.318 12.2875C112.576 12.771 112.829 13.5811 113.585 16.2811C113.71 16.7258 113.848 17.2428 113.996 17.8069M113.996 17.8069C114.611 20.1662 115.373 23.3501 115.855 25.524C116.452 28.2177 116.551 29.2426 116.576 29.5243C116.601 29.806 116.548 29.3133 115.808 26.9373C115.068 24.5613 113.642 20.3168 112.884 18.0057C112.048 15.4559 112.055 15.0302 112.166 14.8208C112.213 14.7309 112.407 14.8319 112.548 14.994C112.815 15.4162 113.143 15.9954 113.926 17.6464C113.949 17.6984 113.972 17.7519 113.996 17.8069ZM113.996 17.8069C114.585 19.1699 115.515 21.4501 116.552 24.0341M115.008 10.5817C115.27 10.7398 116.025 11.7391 117.164 14.1032C117.789 15.4006 117.992 16.3311 118.213 17.3496L118.219 17.3794C118.714 19.3926 118.852 20.1461 119.151 21.6562C119.207 21.9949 119.224 22.1592 119.225 22.4485M131.927 15.775C131.495 16.2413 130.994 17.4775 130.773 18.4679C130.329 20.4599 129.793 22.2502 129.527 23.42C129.244 24.6653 128.929 26.6562 128.58 28.5692C128.474 29.1465 128.295 28.8735 128.176 28.5499C127.621 27.0381 127.124 25.5645 126.904 22.6199C126.9 22.5662 126.896 22.5133 126.893 22.4611M126.893 22.4611C126.751 20.0554 127.596 19.3176 128.044 18.3998C128.537 17.3893 129.633 16.6443 130.229 16.2309C131.093 15.6307 128.865 18.3992 128.345 19.4764C127.814 20.5757 127.27 21.7893 126.893 22.4611ZM126.893 22.4611C126.777 22.668 126.677 22.8235 126.598 22.9085C126.441 23.0772 126.205 23.0997 126.069 23.0413C125.875 22.8132 125.725 22.4233 125.623 21.8397C125.613 21.4711 125.685 20.9555 125.76 20.4243M133.074 14.5878C133.263 14.9796 133.63 15.8473 133.991 16.7754C134.628 18.4161 134.833 20.0995 134.809 20.8542C134.796 21.2553 134.994 23.012 134.946 26.4056C134.538 30.3552 134.172 32.674 134.064 33.0051C134.018 33.1831 133.991 33.3814 133.962 33.5858M132.347 18.8977C132.611 19.9116 132.912 21.259 133.505 24.2982C133.768 25.6469 133.942 28.4529 133.965 30.2129C133.968 30.4365 133.955 30.7195 133.702 32.6699C133.449 34.6204 132.942 38.2296 132.637 40.2646C132.009 44.0046 131.643 46.3294 131.496 46.9406C131.433 47.24 131.394 47.5176 131.233 47.7868M131.883 18.71C131.872 18.7894 131.788 19.3855 131.652 20.932C131.441 23.3263 131.453 25.2628 131.348 26.4484C131.196 29.7182 130.999 31.41 130.972 32.038C130.95 32.3431 130.911 32.6208 130.871 32.9068M134.647 19.098C134.608 19.3768 134.741 23.0402 134.71 25.7811C134.688 27.7388 134.212 30.633 134.198 31.7561C134.186 32.6707 134.022 34.0329 133.901 35.6147C133.856 36.2144 133.788 36.8555 133.606 38.5807L133.601 38.6254C133.087 42.4412 132.613 45.2401 132.406 45.8428C132.323 46.1393 132.284 46.4169 132.243 46.703" stroke="#346F51" stroke-width="3" stroke-linecap="round"/>
<path d="M95.4315 47.2348C95.4427 47.1547 95.5736 46.8043 95.8543 46.2672C96.0851 45.8256 97.2659 45.2714 99.1127 44.419C100.983 43.5559 103.117 43.5316 105.482 43.5134C106.859 43.5028 108.591 43.7221 109.395 43.8541C110.199 43.9861 110.022 44.0838 109.78 44.1945C109.241 44.4405 107.734 44.8736 105.562 45.3927C103.864 45.7985 102.017 45.9284 100.195 46.2907C98.3348 46.6607 97.6458 46.7611 95.8632 46.8605C93.5974 46.9867 92.2856 47.329 92.0257 47.2727C91.7673 47.2167 91.9183 46.7021 92.0265 46.3678C92.158 45.9613 92.8985 45.5629 93.9711 45.096C95.1737 44.5726 96.7107 44.5291 99.2844 44.602C101.079 44.6529 103.849 45.036 105.83 45.1903C107.81 45.3446 108.914 45.3361 109.608 45.3086C110.302 45.2811 110.554 45.2347 108.694 45.4216C106.834 45.6084 102.856 46.0299 100.657 46.2874C97.5911 46.6467 96.7877 47.5859 96.1425 47.9117C95.8921 48.0381 96.0436 47.2811 95.9948 47.0472C95.9738 46.9468 95.7577 46.991 95.581 47.0689C94.72 47.4484 94.2918 50.0664 94.3238 51.592C94.3289 51.8313 94.4146 52.1176 94.4124 52.142C94.2551 53.8961 92.5173 48.0234 92.3847 47.9411C91.4931 47.3874 92.0996 50.1002 92.2698 51.2413C92.4168 52.2266 92.8439 53.0131 93.3058 53.6978C93.7048 54.2892 94.3901 54.3461 94.6733 54.3871C94.7878 54.4036 94.7611 54.074 94.689 53.856C94.547 53.4267 94.1997 53.0846 93.8566 52.7482C93.4657 52.3649 92.5043 52.2677 91.5831 52.22C91.2608 52.2034 91.24 52.4169 91.3317 52.6363C91.7551 53.65 92.5005 53.9968 93.053 54.4671C93.9604 55.2395 95.7427 55.2783 96.67 55.5736C97.3705 55.7966 98.1513 56.0295 99.248 56.2861C101.817 56.8873 103.013 56.6302 104.247 56.5355C105.31 56.4537 106.485 56.2935 107.55 56.2153C108.614 56.137 109.604 56.1126 112.259 56.0337C114.295 55.9732 118.199 55.765 120.502 55.628C124.438 55.3938 125.752 55.3676 126.47 55.4059C127.398 55.4553 128.462 55.4583 129.365 55.4824C131.043 55.5272 131.943 55.6178 132.942 55.5724C133.724 55.5368 134.72 55.2256 135.985 54.7432C136.943 54.3781 138.516 54.0263 139.866 53.5354C140.305 53.3758 140.616 53.2064 140.747 53.0187C141.045 52.5886 139.604 52.8156 138.756 52.9836C137.158 53.3006 136.147 53.3598 133.686 53.6113C132.812 53.7006 131.74 53.7286 129.754 53.6571C127.768 53.5856 124.897 53.3868 123.315 53.2904C121.117 53.1564 119.565 53.1359 118.147 53.0617C115.995 52.9493 114.529 52.8423 113.082 52.722C112.002 52.6323 110.231 52.651 108.118 52.6013C105.324 52.5355 103.692 52.5165 102.233 52.4367C100.325 52.3323 98.8573 52.2512 97.8556 52.1731C97.4244 52.1394 96.9251 52.1866 96.4351 52.3022C95.9792 52.4097 95.9718 53.0822 95.9552 53.4912C95.9225 54.2964 96.5003 54.8872 97.0343 55.3358C97.6446 55.8484 98.7555 55.2507 100.719 55.0315C102.647 54.8163 104.699 54.599 106.185 54.5811C106.773 54.574 107.025 54.5134 109.11 54.519C111.195 54.5246 115.106 54.5836 117.227 54.588C119.985 54.5937 120.743 54.3355 121.611 54.1684C122.524 53.9925 124.039 53.7266 125.628 53.5581C127.919 53.3152 130.46 52.9774 131.309 52.8076C132.608 52.5474 133.403 51.7004 133.794 51.1366C133.888 51.0004 133.82 50.8112 133.651 50.7033C133.218 50.4276 132.408 50.3222 131.257 49.8934C129.54 49.2541 127.345 48.5415 125.065 47.6449C122.777 46.7456 121.227 46.5248 120.645 46.4227C118.498 46.0461 115.492 45.6779 113.818 45.8544C112.645 45.978 111.492 46.2696 108.722 46.6435C107.886 46.7562 106.056 46.8664 103.569 47.1148C100.966 47.3748 98.1162 47.8169 97.5718 48.1519C96.8128 48.619 99.8485 48.9261 102.786 49.5444C104.062 49.813 105.142 50.2876 106.776 50.6406C109.275 51.1806 111.32 51.2387 112.19 51.1964C112.825 51.1656 113.366 51.0719 115.219 50.8415C116.792 50.646 119.628 50.153 121.611 49.9898C126.227 49.61 127.486 50.0843 127.437 50.1585C126.962 50.8819 124.136 50.8872 121.101 51.2239C119.535 51.3976 118.573 51.3474 114.799 51.1258C111.557 50.9354 105.643 50.2713 102.471 49.9727C98.5228 49.6011 97.7438 49.5797 97.7636 49.5626C97.9356 49.414 98.6522 49.4634 100.298 49.5898C104.563 49.9175 107.393 50.4391 107.654 50.6395C107.791 50.7455 107.811 50.9889 107.752 51.1266C107.414 51.9167 106.073 51.9437 105.815 52.0115C105.769 52.0235 105.917 51.8439 105.873 51.7332C105.75 51.4227 104.592 51.366 103.548 51.1582C103.482 50.9652 104.837 50.6618 107.269 50.3239C108.57 50.1946 110.005 50.1511 111.726 50.1402" stroke="#346F51" stroke-width="2" stroke-linecap="round"/>
</svg>
