<svg width="244" height="258" viewBox="0 0 244 258" fill="none" xmlns="http://www.w3.org/2000/svg">
<ellipse cx="122" cy="153" rx="122" ry="105" fill="#C63C3C"/>
<path d="M127.424 43.2186C119.164 42.0593 103.042 40.9437 99.8633 43.0001C98.2658 44.0333 97.0063 45.4839 96.1343 47.4875C95.2622 49.4911 94.8938 52.1157 96.0164 53.6519C101.123 60.6406 112.057 56.1234 127.826 56.4132C138.607 56.6113 144.841 56.484 149.183 53.2412C150.107 52.5512 148.393 50.819 147.172 49.8655C141.137 47.4603 135.884 46.3407 130.879 45.059C127.321 44.3627 121.697 43.5734 115.903 42.7602M139.743 46.8152C140.109 46.5995 140.898 45.7674 142.14 44.3597C142.832 43.5754 144.825 42.2138 149.345 39.8913C152.219 38.4147 156.66 37.16 161.089 36.0144C165.519 34.8689 169.902 34.0821 172.632 33.6429C177.841 32.8049 179.617 33.1917 180.495 33.4151C180.867 33.5099 181.018 33.789 181.082 34.068C181.146 34.3471 181.1 34.6745 181.025 34.9695C180.848 35.5172 179.212 36.6976 172.198 40.1368C166.716 42.656 157.329 46.7464 147.178 51.5002M137.387 44.8659C137.442 44.4731 138.049 40.1459 139.065 33.3816C139.462 30.7358 139.78 29.7129 140.158 27.5132C141.105 21.9908 141.476 18.132 141.423 17.3172C141.318 15.7218 140.771 14.0596 139.698 13.0583C139.007 12.414 137.943 12.5743 137.046 12.7488C135.529 13.0436 133.298 15.9463 130.717 19.4563C129.626 20.9399 129.208 21.9818 128.535 25.0748C127.862 28.1678 127.006 33.3218 126.574 36.1451C126.142 38.9685 126.162 39.305 126.126 40.0486M125.479 41.7785L125.423 42.1754M127.174 39.791L127.146 39.9894M124.716 40.1863C124.952 40.0086 125.507 36.0788 126.147 29.6287C126.979 21.243 124.37 13.1157 123.165 10.7032C122.312 8.99615 120.353 8.38773 117.128 7.87934C115.969 7.69645 114.821 8.34902 113.632 9.24394C112.654 9.97977 112.033 13.022 111.185 17.1802L111.174 17.2321C110.551 20.2844 111.631 27.1188 113.134 35.7363C113.961 39.4113 114.549 41.3012 115.194 43.5185C115.496 44.4232 115.748 44.8801 116.008 45.3508M95.5699 45.3564C95.3632 45.3274 90.4739 44.852 81.3533 44.3655C73.2698 43.9343 68.4931 45.7012 66.6072 46.658C63.0665 48.4544 60.8422 50.1583 57.7638 52.3879C55.4024 54.0983 53.932 55.3676 53.2127 56.3284C52.8576 56.8028 52.5969 57.3038 57.0192 56.9313C61.4416 56.5588 70.574 55.3114 75.8832 54.4902C86.3473 52.4797 92.5663 51.5355 93.8983 51.5101C94.4924 51.4865 94.9203 51.4412 95.3611 51.3945M112.28 40.7378C112.126 40.533 111.159 39.5703 107.001 36.1366C103.79 33.4853 98.1014 29.2901 94.7198 26.6106C90.2772 23.0904 88.5454 21.4079 86.3426 20.0386C80.6606 16.5066 75.8828 16.2034 73.3526 16.5837C72.9243 16.6481 72.9064 17.4396 72.9243 17.9542C72.9602 18.9798 74.6487 21.3779 76.7599 24.448C77.8154 25.983 80.707 29.5242 84.8041 34.9058C88.3817 39.605 90.8715 41.6129 93.4836 43.091C94.1311 43.4608 94.6322 43.8058 95.359 44.2326C96.0859 44.6593 97.0234 45.1572 98.5719 45.4744M130.93 38.36C130.237 39.3617 129.002 42.8848 128.055 45.3482C127.688 46.3137 127.173 47.3543 126.477 48.3653C126.139 48.7855 125.832 49.0172 124.933 49.4516M127.697 51.5047C122.971 50.9329 119.112 50.9436 115.716 51.2538C113.025 51.9403 111.485 52.3736 110.938 52.2982C110.942 52.2086 111.519 52.0148 112.657 51.8915M134.186 50.7503C133.862 50.7782 133.447 50.84 132.96 50.9239M132.96 50.9239C131.626 51.1537 129.752 51.5495 127.704 51.872C122.002 52.7701 117.462 52.6547 114.959 52.7224C114.261 52.7413 113.586 52.7277 112.935 52.688M132.96 50.9239C130.414 50.941 126.859 51.0978 124.196 51.6641C121.652 52.2052 119.506 51.2985 112.935 52.688M132.96 50.9239C133.893 50.9176 134.692 50.9302 135.26 50.9482C137.284 51.0122 138.804 50.7544 140.786 50.7981C142.603 50.7299 143.743 50.5207 144.511 50.3053C144.895 50.219 145.267 50.1796 146.195 50.2155M112.935 52.688C108.2 52.3992 104.73 50.7289 103.012 50.1243C102.306 49.8759 102.569 48.6302 102.498 47.8348C102.464 47.4647 102.029 47.2584 101.671 47.1596C101.313 47.0608 100.941 47.1001 100.68 47.2938C100.138 47.6943 100.058 48.73 100.11 49.6615C100.198 51.217 102.97 50.9927 104.001 51.5993C104.672 51.9948 103.629 52.1368 102.364 52.1352M112.935 52.688C112.735 52.7303 112.531 52.7748 112.323 52.8214C108.894 53.5891 106.169 54.0637 104.416 53.2311C103.731 52.9058 103.051 52.4722 102.364 52.1352M102.364 52.1352C101.405 52.134 100.318 52.0503 99.7553 51.9318C99.418 51.8608 99.823 51.6666 100.201 51.6252C100.94 51.5442 101.656 51.7886 102.364 52.1352ZM124.503 48.5587C122.163 48.2302 117.772 47.7972 115.622 47.6355L115.615 47.635C112.917 47.4322 109.256 47.157 106.589 46.7397C106.234 46.6842 106.676 46.3398 107.124 46.1238C107.572 45.9077 108.059 45.7013 111.857 46.0929C115.656 46.4844 122.751 47.4802 130.099 48.234M146.959 44.7723C147.576 44.3067 148.969 43.5781 151.355 42.7113C153.143 42.0619 154.548 42.016 157.136 41.408M157.136 41.408C157.577 41.3045 158.052 41.1847 158.569 41.0429C159.296 40.8434 160.051 40.6677 160.805 40.5091M157.136 41.408C157.251 41.2586 157.36 41.106 157.463 40.9504M157.136 41.408C156.897 41.7199 156.631 42.0183 156.345 42.3033M160.805 40.5091C160.846 40.5005 160.888 40.4918 160.929 40.4833M160.805 40.5091C160.842 40.5038 160.879 40.4985 160.916 40.4932M160.805 40.5091C159.629 40.6772 158.509 40.8176 157.463 40.9504M160.929 40.4833C161.291 40.408 161.653 40.3367 162.011 40.2685M160.929 40.4833C160.925 40.4866 160.92 40.4899 160.916 40.4932M160.929 40.4833C161.489 40.044 161.913 39.6887 162.131 39.4614C162.686 38.8808 163.242 38.3118 163.834 37.7756M162.011 40.2685C163.601 39.9659 165.119 39.7258 166.289 39.4858C166.674 39.4067 167.044 39.3601 166.294 39.5281C164.735 39.8771 163.22 40.1446 161.78 40.365M162.011 40.2685C162.255 40.1664 162.508 40.0618 162.769 39.9548C164.779 39.131 166.085 38.3915 167.618 38.0031C169.154 37.6137 171.652 36.8208 173.814 36.049C173.952 35.9998 174.088 35.9473 174.223 35.8923M162.011 40.2685C161.933 40.3009 161.856 40.3331 161.78 40.365M161.78 40.365C161.489 40.4096 161.201 40.4522 160.916 40.4932M161.78 40.365C161.218 40.601 160.699 40.8237 160.214 41.034M160.916 40.4932C160.701 40.662 160.465 40.8431 160.214 41.034M157.463 40.9504C155.047 41.2574 153.025 41.524 151.612 41.9981C151.598 42.0026 151.585 42.0072 151.571 42.0117M157.463 40.9504C157.515 40.8704 157.566 40.7896 157.615 40.7079C157.976 40.1077 158.194 39.2886 157.708 39.2972C157.393 39.3028 157.077 39.3176 156.763 39.3445M151.571 42.0117C151.044 42.1864 150.491 42.33 149.928 42.4544M151.571 42.0117C153.141 40.9935 154.495 40.076 156.456 39.4406C156.557 39.4076 156.66 39.3756 156.763 39.3445M151.571 42.0117C150.744 42.5483 149.856 43.1129 148.788 43.679C147.984 44.1054 147.297 44.5027 146.741 44.8424M149.928 42.4544C148.412 42.7899 146.828 42.9852 145.51 43.2716C145.139 43.3521 144.823 43.4927 144.551 43.6658M149.928 42.4544C148.516 43.388 147.27 44.2794 146.381 44.9371M149.928 42.4544C151.031 41.7257 152.234 40.9713 153.447 40.2825C154.456 39.7098 155.598 39.4442 156.763 39.3445M144.551 43.6658C144.07 43.9724 143.728 44.3811 143.465 44.7395M144.551 43.6658C144.145 44.0624 143.771 44.4311 143.465 44.7395M144.551 43.6658C145.061 43.1679 145.624 42.626 146.17 42.1038M143.465 44.7395C143.216 45.0799 143.038 45.3749 142.882 45.4934C142.399 45.8586 142.745 45.4664 143.465 44.7395ZM146.17 42.1038C147.058 41.2542 147.904 40.4569 148.413 39.9866C149.771 38.7318 152.103 38.3732 154.524 37.9276C156.224 37.6148 158.183 37.5852 159.85 37.5755M146.17 42.1038C146.191 42.0948 146.211 42.0859 146.232 42.077C149.111 40.8424 155.124 39.0196 159.85 37.5755M146.17 42.1038C144.601 42.7738 142.787 43.4572 141.52 44.3282C140.862 44.7809 140.64 45.6394 140.754 46.1189C140.821 46.3984 141.663 46.1604 144.999 45.298C145.421 45.1889 145.885 45.0676 146.381 44.9371M159.85 37.5755C160.99 37.5688 161.993 37.5715 162.682 37.4991C163.238 37.4407 163.812 37.3673 164.411 37.2741M159.85 37.5755C160.514 37.3724 161.153 37.1768 161.754 36.9914C164.748 36.0684 170.47 34.4417 168.923 34.9059C168.292 35.095 167.307 35.4024 166.473 35.8595C165.712 36.2762 165.037 36.755 164.411 37.2741M164.411 37.2741C165.603 37.0889 166.893 36.8252 168.332 36.4437C169.175 36.2203 169.948 36.0775 170.682 35.995M164.411 37.2741C164.214 37.4375 164.022 37.6049 163.834 37.7756M170.682 35.995C171.563 35.8959 172.39 35.8838 173.217 35.9236C173.579 35.9409 173.915 35.9269 174.223 35.8923M170.682 35.995C172.488 35.551 176.599 34.1123 176.576 34.7711M170.682 35.995C170.556 36.0258 170.442 36.0519 170.341 36.0721C168.719 36.3963 166.397 37.1595 163.834 37.7756M174.223 35.8923C175.399 35.7601 176.154 35.3273 176.286 35.1983C176.482 35.0057 176.572 34.8664 176.576 34.7711M174.223 35.8923C175.07 35.5459 175.855 35.1006 176.576 34.7711M176.576 34.7711C177.44 34.3758 178.213 34.1471 178.892 34.4554C179.197 34.594 179.544 34.9471 179.386 35.1742C179.036 35.6787 178.002 36.5235 176.271 37.2346C174.253 38.0629 172.224 38.1945 170.568 38.9778C168.92 39.7574 166.992 40.1499 164.808 41.1841M163.834 37.7756C163.653 37.8189 163.472 37.8616 163.289 37.9033C160.423 38.5574 158.481 38.8275 156.763 39.3445M146.741 44.8424C145.876 45.3706 145.326 45.7597 145.136 45.9028C144.682 46.2453 145.234 45.786 146.381 44.9371M146.741 44.8424C146.619 44.8744 146.5 44.906 146.381 44.9371M146.741 44.8424C149.651 44.0753 153.512 43.0356 156.345 42.3033M156.345 42.3033C156.12 42.5283 155.883 42.745 155.637 42.9533M156.345 42.3033C156.83 42.1781 157.285 42.0618 157.699 41.9574C158.033 41.8734 158.339 41.7976 158.62 41.7293M155.637 42.9533C155.569 43.0108 155.5 43.0676 155.431 43.1238M155.637 42.9533C156.563 42.6196 157.505 42.2161 158.62 41.7293M155.637 42.9533C155.426 43.029 155.217 43.101 155.007 43.1697C152.724 43.9141 150.231 45.226 148.475 45.8621C147.92 46.0631 148.394 45.9364 149.776 45.5481M155.431 43.1238C154.981 43.4886 154.505 43.8268 154.022 44.1385M155.431 43.1238C155.218 43.2017 154.996 43.287 154.768 43.3804C153.56 43.8726 152.299 44.4646 151.129 45.0462M155.431 43.1238C156.786 42.6286 157.804 42.4406 158.272 42.4758M154.022 44.1385C153.807 44.2764 153.592 44.4092 153.376 44.5368M154.022 44.1385C154.598 43.9674 155.211 43.7887 155.842 43.6073M154.022 44.1385C153.478 44.2997 152.966 44.4543 152.5 44.5982C152.003 44.7517 151.547 44.9012 151.129 45.0462M153.376 44.5368C153.094 44.7032 152.813 44.8609 152.535 45.0098M153.376 44.5368C152.272 44.845 151.336 45.1089 150.577 45.3226M153.376 44.5368C153.63 44.4658 153.893 44.3925 154.165 44.3169M152.535 45.0098C150.774 45.9525 149.147 46.5447 148.53 46.794C145.479 48.0274 149.34 46.3696 152.535 45.0098ZM152.535 45.0098C153.115 44.7626 153.674 44.5253 154.165 44.3169M154.165 44.3169C154.978 43.9719 155.606 43.7063 155.842 43.6073M154.165 44.3169C154.629 44.1877 155.12 44.0518 155.634 43.9097M155.842 43.6073C155.875 43.593 155.901 43.5822 155.918 43.5751C156.288 43.4213 156.398 43.3974 156.315 43.4716M155.842 43.6073C155.998 43.5622 156.156 43.517 156.315 43.4716M156.315 43.4716C156.237 43.5408 155.992 43.6954 155.634 43.9097M156.315 43.4716C156.635 43.38 156.959 43.288 157.284 43.1962M155.634 43.9097C154.044 44.8623 150.228 46.9953 149.005 48.054C148.463 48.5232 148.993 48.6656 149.506 48.6461C152.097 48.5475 155.138 47.036 156.937 45.8092C159.042 44.3731 161.521 42.8773 163.746 41.7181M155.634 43.9097C155.981 43.814 156.339 43.7155 156.707 43.6143M163.746 41.7181C163.984 41.594 164.219 41.4737 164.451 41.3578C164.571 41.2979 164.69 41.2401 164.808 41.1841M163.746 41.7181C162.034 42.1705 160.447 42.5963 158.994 42.9905M163.746 41.7181C163.959 41.6618 164.174 41.605 164.391 41.5478C166.502 40.9917 166.905 40.6928 164.808 41.1841M164.808 41.1841C164.641 41.2232 164.458 41.2674 164.258 41.3169C162.98 41.6342 161.025 42.1552 158.967 42.7254M160.214 41.034C159.639 41.2828 159.112 41.5142 158.62 41.7293M160.214 41.034C160.017 41.1828 159.811 41.3376 159.598 41.4972M158.62 41.7293C158.989 41.6394 159.313 41.5625 159.598 41.4972M149.776 45.5481C150.016 45.4807 150.283 45.4054 150.577 45.3226M149.776 45.5481C150.177 45.388 150.626 45.2203 151.129 45.0462M149.776 45.5481C147.693 46.3795 146.898 47.0081 146.514 47.2978C145.404 48.1342 147.607 46.8237 150.577 45.3226M150.577 45.3226C150.758 45.231 150.942 45.1387 151.129 45.0462M156.707 43.6143C157.428 43.4165 158.19 43.2083 158.994 42.9905M156.707 43.6143C153.324 46.0665 149.897 48.5106 151.241 47.914C151.638 47.738 152.053 47.6504 152.432 47.3388C153.858 46.1662 158.622 44.0022 158.994 42.9905M156.707 43.6143C156.9 43.4748 157.092 43.3352 157.284 43.1962M158.994 42.9905C159.03 42.8901 159.024 42.801 158.967 42.7254M158.967 42.7254C158.41 42.8798 157.845 43.0377 157.284 43.1962M158.967 42.7254C158.88 42.6111 158.677 42.5275 158.332 42.4819C158.313 42.4794 158.293 42.4774 158.272 42.4758M157.284 43.1962C157.618 42.9535 157.949 42.7123 158.272 42.4758M158.272 42.4758C158.735 42.1373 159.181 41.8082 159.598 41.4972M159.598 41.4972C161.274 41.112 161.551 41.1289 161.33 41.239M87.021 29.0206C87.4133 29.1161 88.5216 29.6369 91.4184 31.8272C92.7798 32.8566 94.7058 34.3917 96.4845 35.8037M96.4845 35.8037C97.8018 36.8494 99.0383 37.8277 99.905 38.483C101.942 40.0232 101.783 39.7177 99.6949 38.1465C98.8541 37.5137 97.7013 36.6771 96.4845 35.8037ZM96.4845 35.8037C94.68 34.5085 92.7349 33.1323 91.4582 32.2201C89.3208 30.6927 89.1789 30.5515 89.2223 30.6568C89.405 31.1002 90.1188 31.8915 91.0675 32.8627M91.0675 32.8627C91.1835 32.9814 91.303 33.1028 91.4254 33.2266C93.7814 35.6079 96.3459 36.4975 96.5047 36.5406C96.545 36.5516 96.2042 36.398 94.0783 34.9457C93.2754 34.3973 92.2084 33.6591 91.0675 32.8627ZM91.0675 32.8627C89.6076 31.8436 88.0266 30.7291 86.7231 29.7951M86.7231 29.7951C86.348 29.5264 85.996 29.2726 85.6763 29.0403C85.5867 28.9752 85.4993 28.9112 85.4138 28.8483M86.7231 29.7951C87.0033 30.0774 87.2705 30.3612 87.5278 30.6666C88.3746 31.6715 89.3946 33.121 90.4879 34.2574C92.3769 36.2212 93.4988 37.3607 94.2675 38.1474M86.7231 29.7951C86.408 29.4777 86.0766 29.1622 85.7244 28.8203C85.1887 28.3002 84.5282 27.6729 83.8982 27.0918M85.4138 28.8483C82.7786 26.9101 82.0861 26.0428 81.9504 25.9995C81.623 25.8948 82.6292 27.3233 83.7685 28.9331C84.227 29.5808 84.7788 30.3212 85.3615 31.0732M85.4138 28.8483C86.0483 29.5933 86.6892 30.3669 87.2422 31.0953C88.8703 33.2396 89.9156 34.7098 90.474 35.6267M85.4138 28.8483C84.8862 28.2288 84.3629 27.6292 83.8982 27.0918M85.3615 31.0732C86.2271 32.1902 87.161 33.3328 87.9589 34.2358C89.2941 35.7468 90.1966 36.5205 90.6385 36.7946C91.0805 37.0686 91.0345 36.8195 90.934 36.5186C90.8674 36.3192 90.7166 36.0252 90.474 35.6267M85.3615 31.0732C84.4565 30.1619 83.2128 28.8319 81.8791 27.1666C80.9823 26.0468 80.6053 25.5691 79.9969 24.5715C79.73 24.1337 79.4846 23.7254 79.2564 23.3431M85.3615 31.0732C85.8494 31.5645 86.2389 31.934 86.491 32.1688C87.5388 33.1447 88.4315 34.0779 89.3875 34.8015C89.7464 35.0732 90.1106 35.3515 90.474 35.6267M90.474 35.6267C91.5608 36.45 92.6403 37.2463 93.5478 37.7562C93.7799 37.8866 94.0217 38.0177 94.2675 38.1474M83.8982 27.0918C83.5647 26.7061 83.2613 26.3525 83.0081 26.0468C81.2849 23.9661 80.2385 22.6837 79.4395 21.9325C78.8745 21.4012 78.1612 20.8687 77.4359 20.3465M83.8982 27.0918C83.2657 26.5084 82.6639 25.9715 82.2501 25.6365C81.3904 24.9405 80.4631 24.2619 79.5399 23.5618C79.441 23.4868 79.3466 23.4139 79.2564 23.3431M77.4359 20.3465C77.2761 20.2315 77.1158 20.1169 76.9563 20.003L76.937 19.9893C75.2431 18.7794 74.8273 18.1202 74.2939 17.5545C74.1545 17.4066 74.0079 17.2699 74.0141 17.2082C74.0625 16.7271 75.1695 17.6731 76.0271 18.5484C76.5378 19.0697 76.9742 19.6445 77.4359 20.3465ZM77.4359 20.3465C77.961 21.1449 78.519 22.1077 79.2564 23.3431M79.2564 23.3431C77.9739 22.3356 77.5381 21.7384 76.8834 21.2269C76.5897 20.9974 76.3494 20.6611 75.9438 20.3597C75.7253 20.1973 75.4588 20.0471 75.6515 20.5172C76.3288 22.1702 77.911 24.3008 79.1187 26.0218C79.9725 27.2386 80.5386 27.7407 81.3607 28.7122C82.8184 30.4347 83.8343 31.5907 84.6675 32.6703C85.707 34.0173 87.23 35.9498 87.6874 36.6286C88.1918 37.377 88.6323 37.904 89.0964 38.5219C89.6804 39.2992 90.8592 40.3392 92.9238 42.0585C94.028 42.9781 94.9924 43.4953 96.4238 44.2073C97.246 44.6162 97.8995 44.9267 98.1748 44.8648C99.3703 44.5961 96.507 42.6932 95.0301 41.4239C94.452 40.9272 93.9243 40.4613 93.4354 40.0141M94.2675 38.1474C95.4127 38.7517 96.6434 39.3263 97.371 39.6635C98.1285 40.0146 98.8435 40.5234 99.734 41.0161C100.699 41.5502 100.997 42.6639 101.001 42.9299C101.011 43.5615 98.5438 42.2045 97.4006 41.3865C96.6742 40.8668 96.2333 40.2429 95.5085 39.4469C95.1734 39.0788 94.8076 38.7002 94.2675 38.1474ZM93.4354 40.0141C93.1079 39.7145 92.7978 39.4234 92.5015 39.137M93.4354 40.0141C92.9396 39.6133 92.4532 39.2207 91.9973 38.8601M93.4354 40.0141C93.4746 40.0458 93.514 40.0776 93.5533 40.1094M92.5015 39.137C91.8285 38.4863 91.2271 37.8602 90.6566 37.2162C90.2941 36.8071 89.9638 36.3457 89.9784 36.3416C89.9931 36.3376 90.3737 36.7954 91.5091 37.8304C92.1443 38.4094 93.0121 39.1647 93.8786 39.8946M92.5015 39.137C92.9527 39.3846 93.4204 39.6413 93.8786 39.8946M92.5015 39.137C92.3306 39.0432 92.1621 38.9506 91.9973 38.8601M93.8786 39.8946C94.5609 40.4694 95.2424 41.0284 95.8087 41.4732C97.6696 42.9345 98.5371 43.3004 98.7405 43.3093C99.3174 43.3347 97.9895 42.286 96.2697 41.2535C95.6412 40.8762 94.7783 40.3919 93.8786 39.8946ZM91.9973 38.8601C91.4874 38.5798 91.0139 38.3183 90.6189 38.0958C88.7871 37.0637 88.2723 36.7137 87.8803 36.4553C87.6963 36.334 87.6183 36.1342 87.6875 36.0605C88.5293 36.2976 89.6729 37.1517 90.9693 38.0659C91.2851 38.3018 91.6314 38.5707 91.9973 38.8601ZM76.2337 18.5603C76.0349 18.8155 75.7751 20.0817 75.8227 21.1963C75.8334 21.4462 75.2848 20.6759 75.1005 20.2426C74.9393 19.8636 75.0521 19.4177 75.005 19.0239C74.9831 18.8407 75.0714 18.6864 75.2901 18.5731C76.5568 17.9169 77.8957 18.6293 79.8892 19.903C81.2892 20.7975 83.8409 22.4614 85.7062 23.5921C87.5715 24.7227 88.6661 25.2808 90.6741 26.6607C92.6821 28.0406 95.5704 30.2255 97.3962 31.6815C99.9583 33.7247 100.781 34.5868 101.459 35.1078C104.152 37.1769 105.45 38.2642 107.191 39.6698C107.98 40.3068 108.372 41.042 108.536 41.4965C108.611 41.7024 107.734 41.3251 105.332 40.0768C102.93 38.8284 98.7268 36.4996 96.2358 35.1732C94.4606 34.228 93.6193 33.8277 93.2101 33.6428M93.2101 33.6428C93.0451 33.5682 92.9503 33.5286 92.8929 33.5024C92.7697 33.4462 92.8259 33.4545 93.2101 33.6428ZM93.2101 33.6428C93.4489 33.7597 93.8142 33.9461 94.3418 34.2297C95.7184 34.9694 98.1913 36.368 99.8455 37.4048C103.408 39.6373 103.73 40.3527 104.031 40.5369C104.194 40.637 104.314 40.8402 104.146 40.9C103.54 41.1162 101.856 40.4192 98.6945 39.1833C96.6733 38.393 93.8717 37.1074 92.6127 36.5337C91.7232 36.1283 93.8383 37.3626 96.5503 39.1317C97.8269 39.8906 98.7312 40.4243 99.7646 41.0596C100.168 41.2829 100.327 41.3052 100.661 40.9845M81.1825 20.848C81.1713 20.9273 81.9094 21.7197 84.1856 23.7475C84.5893 24.1072 85.0558 24.4964 85.5478 24.8926M85.5478 24.8926C86.8704 25.9576 88.378 27.073 89.3505 27.8004C90.7224 28.8265 91.4508 29.1685 92.1271 29.4425M85.5478 24.8926C86.4141 25.231 87.5204 25.8684 90.1811 27.9163C90.7373 28.3444 91.4039 28.8702 92.1271 29.4425M85.5478 24.8926C85.4517 24.8551 85.3587 24.8213 85.2667 24.7896C85.007 24.7001 85.7853 25.8103 86.7271 27.0853C87.6689 28.3603 89.0779 30.1354 89.9997 31.239C90.3509 31.6596 90.6834 32.0278 90.9988 32.3528M92.1271 29.4425C92.2425 29.4892 92.3563 29.5339 92.4716 29.5797C93.3188 29.9165 94.7789 31.0016 96.4747 32.301C98.5087 33.8594 101.06 35.7681 102.271 36.6121C102.577 36.8259 102.938 36.9313 102.958 36.9757C103.078 37.2484 101.437 36.3995 98.2405 34.1451C96.5189 32.9309 94.1104 31.0118 92.1271 29.4425ZM90.9988 32.3528C92.3978 33.7946 93.4592 34.3863 94.3178 34.9248C95.1269 35.4324 96.1083 35.8502 96.4961 36.0082C96.6226 36.0597 96.4174 35.8388 95.9722 35.4225M90.9988 32.3528C92.7726 33.5596 94.7117 34.7365 95.888 35.3768C95.9165 35.3924 95.9446 35.4076 95.9722 35.4225M90.9988 32.3528C90.8102 32.2245 90.6235 32.0959 90.4397 31.9675C88.5279 30.6317 87.0068 29.3667 85.9818 28.4183C83.652 26.2626 83.2325 25.4692 82.1621 24.2375C81.3862 23.3446 80.6301 22.7755 80.285 22.2956C80.5131 22.3865 80.9954 22.7397 81.7377 23.3929C82.1906 23.8033 82.798 24.3739 83.7507 25.2527M95.9722 35.4225C95.0764 34.5848 93.2087 32.956 91.1162 31.1641C87.7698 28.2984 87.551 27.5852 87.5771 27.5257C87.6587 27.34 88.2051 28.0765 89.895 29.492C91.5849 30.9076 94.485 33.2963 96.05 34.5975C97.615 35.8986 97.757 36.0399 97.6516 36.0876C97.5486 36.1343 97.2049 36.0874 95.9722 35.4225ZM77.8615 17.4406C78.3543 17.3872 80.0234 17.7024 81.4147 18.2849C81.8596 18.4712 82.2105 18.7446 83.4223 19.5023C86.1973 21.2376 88.0739 22.6718 88.5641 23.0862C89.422 23.8114 90.4439 24.393 92.0614 25.4515C93.2887 26.2548 95.2451 27.7409 96.4952 28.7228C98.2589 30.108 98.9401 30.8148 99.73 31.4128C101.128 32.4716 102.008 33.4109 102.862 34.1184C104.87 35.7824 106.263 37.1528 106.685 37.6189C107.99 39.0594 109.529 40.3025 110.571 41.2293C110.775 41.3818 111.002 41.4945 111.192 41.6034C111.383 41.7122 111.531 41.8138 111.786 42.0555M79.9068 18.5855C79.9861 18.5967 80.2594 18.6755 81.8737 19.5902C83.2815 20.3878 85.7801 22.0399 87.1543 22.919C88.6761 23.8998 88.9303 24.1401 89.1733 24.439C89.3141 24.6021 89.4901 24.7886 89.6715 24.9807M94.089 48.5183C93.6503 48.4567 92.7383 48.5714 88.1717 49.1493C85.0871 49.5396 79.559 50.3689 76.5678 50.7818C72.7992 51.3021 71.8797 51.3648 70.9577 51.5209C69.8443 51.7094 67.5284 51.8938 65.6947 52.354C63.8755 52.8106 61.8391 53.3454 60.809 53.6905C59.1178 54.257 58.4574 54.4224 57.8228 54.7224C57.2222 55.0677 56.7077 55.2406 56.3033 55.367C56.0687 55.4364 55.7744 55.5164 55.3341 55.7022M58.3324 53.5494C58.3435 53.4701 58.3715 53.2706 58.6258 52.8994C59.0912 52.2201 61.6093 51.3241 64.8002 49.9557C66.1229 49.3885 66.8939 49.2017 69.1337 49.0258C71.3736 48.85 75.0718 48.7219 77.1638 48.6215C80.2167 48.475 81.1025 48.4531 82.7955 48.1613C84.7635 47.822 85.8494 47.8129 88.9143 47.7528C90.586 47.72 91.5666 47.8383 93.0745 47.988C93.7445 48.0214 94.4328 48.0763 95.1187 48.1321C95.4079 48.1323 95.5777 48.0752 96.0267 47.8098M96.3683 47.1224C96.289 47.1113 94.4974 46.9003 91.5022 46.5816C88.6711 46.2804 87.3478 46.5501 86.2241 46.6577C84.7796 46.7961 82.9915 46.866 80.6148 46.9696M80.6148 46.9696C80.5726 46.9715 80.5302 46.9733 80.4876 46.9752C78.6443 47.0558 77.8356 47.0534 77.0446 47.0043C76.3696 46.9623 75.4798 46.9679 74.6672 46.9157C73.6881 46.8529 72.5447 46.9236 71.5105 47.1455C70.5284 47.3562 69.3251 47.7365 68.2096 48.254C67.8937 48.4005 67.5816 48.4789 67.2788 48.5082M80.6148 46.9696C81.3387 46.8867 82.2131 46.8089 83.2774 46.7533C84.7422 46.6769 86.1819 46.5113 87.4423 46.3664L87.4727 46.3629C87.9479 46.3083 88.1065 46.3306 87.4707 46.2413C85.4468 45.9573 83.3915 45.7896 80.2176 45.838C77.8663 45.8738 76.3143 45.7869 74.4558 45.8462C71.6096 45.9369 70.6085 46.0127 69.3727 46.4416C67.5272 47.0822 65.4494 48.2485 66.1822 48.4223C66.2454 48.4373 66.3095 48.4509 66.3745 48.463M80.6148 46.9696C79.0206 47.1522 78.1562 47.3596 77.6006 47.4089C75.6521 47.5818 72.0732 47.9604 70.5851 48.2203C69.6107 48.3905 68.759 48.5566 68.175 48.9238C67.9804 49.0461 67.751 49.1364 67.5037 49.2016M67.2788 48.5082C66.9655 48.5385 66.6621 48.5164 66.3745 48.463M67.2788 48.5082C67.1272 48.4098 66.8912 48.3514 66.6926 48.3916C66.603 48.4097 66.4944 48.434 66.3745 48.463M67.2788 48.5082C67.282 48.5102 67.2851 48.5123 67.2882 48.5144C67.4393 48.6165 67.4964 48.7862 67.5146 48.953C67.5239 49.0378 67.5196 49.1205 67.5037 49.2016M66.3745 48.463C65.5374 48.6649 64.1469 49.0926 64.7819 49.2264C65.2285 49.3205 66.5094 49.4638 67.5037 49.2016M67.5037 49.2016C67.4013 49.7244 66.8155 50.177 66.2651 50.6481M66.2651 50.6481C66.2077 50.6972 66.1507 50.7465 66.0947 50.7961C65.4815 51.3392 64.2664 51.4801 63.4416 51.5286C63.3335 51.5349 64.355 51.1566 66.2651 50.6481ZM66.2651 50.6481C67.143 50.4144 68.2086 50.1532 69.4385 49.8891C73.6263 48.99 76.17 49.2719 76.3686 49.3194C76.3633 49.3787 76.1427 49.5095 75.9272 49.5828C75.7116 49.6561 75.5077 49.668 74.9034 49.8699M58.3366 55.2657C58.911 55.225 59.9913 55.0899 63.1992 54.6093C66.017 54.1871 71.2019 53.103 74.0065 52.5401C74.6234 52.4163 75.1569 52.3053 75.6265 52.2047M75.6265 52.2047C76.186 52.0848 76.6546 51.9797 77.0652 51.8851M75.6265 52.2047C75.4707 52.1371 75.0787 52.2387 74.6246 52.2623C73.4512 52.3231 70.9014 52.6249 67.9661 52.6563C66.619 52.6706 65.1701 52.9074 64.1705 52.8362C63.9132 52.8179 64.1282 52.6724 64.5502 52.5188C65.5608 52.1508 66.7496 51.7819 69.6911 51.8088C71.4511 51.825 74.1339 51.8958 77.0652 51.8851M75.6265 52.2047C75.6373 52.2094 75.647 52.2149 75.6555 52.2213C75.6967 52.2524 75.7324 52.2826 75.7629 52.3119M77.0652 51.8851C78.0232 51.6643 78.6651 51.501 79.4058 51.3425C81.0881 50.9826 82.9499 50.6757 84.3431 50.5422C84.6949 50.5084 85.148 50.4523 86.8708 50.3283C88.5935 50.2042 91.5723 50.0156 93.5003 49.8524C95.4283 49.6891 96.2153 49.5569 96.7226 49.4829C97.23 49.4089 97.4339 49.3971 96.6305 49.6679C95.8271 49.9387 94.0104 50.4926 91.0896 50.9443C88.1689 51.3959 84.1993 51.7285 80.1406 51.8397C79.6456 51.8532 79.1512 51.8634 78.6601 51.8706M77.0652 51.8851C77.2405 51.8844 77.4166 51.8835 77.5934 51.8822M78.6601 51.8706C78.3023 51.8759 77.9464 51.8797 77.5934 51.8822M78.6601 51.8706C78.8065 51.7117 78.8078 51.5909 78.7505 51.5539C78.6741 51.5046 78.5088 51.6353 77.7813 51.8321C77.719 51.8489 77.6564 51.8656 77.5934 51.8822M78.6601 51.8706C78.6113 51.9236 78.5464 51.9807 78.4622 52.0404C76.7881 53.2277 75.9025 52.9502 75.7784 53.0964C75.2665 53.6995 77.6607 52.8747 78.6689 52.7073C79.0881 52.624 79.4681 52.5535 79.8161 52.5411C79.9998 52.5461 80.1981 52.5739 80.5395 52.4992M77.5934 51.8822C77.0027 52.0376 76.3818 52.1809 75.7629 52.3119M75.7629 52.3119C76.8289 53.3398 71.4273 53.3054 70.7873 53.3157C69.4056 53.3378 72.5573 52.9904 75.7629 52.3119ZM115.889 28.5377C115.9 28.174 115.97 26.8014 116.013 23.1744C116.046 20.4254 115.809 15.8324 115.733 13.5483C115.658 11.2643 115.675 11.4285 115.769 11.7678C115.864 12.107 116.035 12.6164 116.495 16.5708C116.611 17.5656 116.744 18.7774 116.886 20.0922M116.886 20.0922C116.902 20.2435 116.919 20.3962 116.935 20.55M116.886 20.0922C116.881 20.5695 116.884 21.1006 116.898 21.6906C116.899 21.7381 116.9 21.7859 116.901 21.8341M116.886 20.0922C116.899 18.7265 116.973 17.8003 117.013 17.1906C117.066 16.3679 117.055 16.164 116.971 19.2027C116.96 19.6006 116.948 20.0543 116.935 20.55M116.935 20.55C117.345 24.3737 117.812 28.9317 118.103 31.5544C118.508 35.1996 118.553 34.8823 118.637 31.9774C118.721 29.0724 118.843 23.5894 119.004 20.0707C119.164 16.552 119.359 15.1639 119.443 14.7093C119.458 14.6266 119.542 16.1737 119.611 20.4628C119.665 23.8909 119.488 29.8614 119.414 33.0559C119.341 36.2504 119.308 36.4884 119.533 34.8857C119.758 33.283 120.242 29.8324 120.772 27.063C121.302 24.2935 121.864 22.3098 122.227 21.4802C122.591 20.6507 122.739 21.0354 122.854 23.4029C122.96 25.5653 123.035 29.3721 123.013 32.5106M116.935 20.55C116.924 20.9527 116.913 21.3832 116.901 21.8341M123.013 32.5106C123.011 32.8081 123.008 33.0997 123.004 33.3832C122.967 36.0656 122.846 37.9459 122.772 39.007M123.013 32.5106C122.944 34.4302 122.877 36.5726 122.819 37.969C122.803 38.379 122.787 38.7241 122.772 39.007M123.013 32.5106C123.045 31.6295 123.077 30.7954 123.109 30.1018C123.21 27.8971 123.304 27.2229 123.333 27.0144C123.363 26.8058 123.324 27.0835 123.341 28.6877C123.359 30.292 123.434 33.2144 123.347 35.6123C123.328 36.1551 123.3 36.6665 123.263 37.1385M122.772 39.007C122.756 39.2412 122.742 39.4355 122.732 39.5897C122.686 40.271 122.716 40.1297 122.772 39.007ZM123.263 37.1385C123.162 38.4103 122.994 39.396 122.741 39.9398M123.263 37.1385C123.204 37.1753 123.123 37.4367 122.964 38.5206C122.894 39.0005 122.819 39.4769 122.741 39.9398M123.263 37.1385C123.269 37.1345 123.275 37.1331 123.281 37.1336C124.969 37.2851 124.004 41.7237 124.138 42.3785C124.269 43.0221 124.861 41.1552 125.069 41.1213C125.285 41.6142 125.443 42.5372 125.545 43.2671C125.6 43.4648 125.662 43.3117 126.103 43.0844M122.741 39.9398C122.673 40.0858 122.598 40.1999 122.518 40.2791C122.453 40.3424 122.39 40.3981 122.327 40.4468M122.741 39.9398C122.606 40.7374 122.463 41.4949 122.325 42.1607M122.327 40.4468C122.279 40.484 122.232 40.517 122.185 40.546M122.327 40.4468C122.303 39.1923 122.204 37.7215 121.875 37.2772M122.327 40.4468C122.341 41.1686 122.33 41.8188 122.325 42.1607M122.185 40.546C122.035 40.6381 121.891 40.6899 121.75 40.7061M122.185 40.546C122.269 41.5046 122.301 41.9918 122.314 42.2121M122.185 40.546C122.155 40.2112 122.12 39.819 122.077 39.3606C122.021 38.7615 121.951 38.0503 121.875 37.2772M121.75 40.7061C121.678 40.7144 121.608 40.7134 121.538 40.7038M121.75 40.7061C121.693 39.6842 121.621 38.4589 121.543 37.1713M121.75 40.7061C121.76 40.8792 121.769 41.0465 121.778 41.2072C121.85 42.5274 121.889 43.3791 121.908 43.9286M121.538 40.7038C121.252 40.6639 120.985 40.4767 120.736 40.1869M121.538 40.7038C121.61 41.3539 121.673 41.9526 121.724 42.4527C121.797 43.1732 121.843 43.6881 121.872 44.0546M121.538 40.7038C121.43 39.7175 121.304 38.6131 121.177 37.5556M120.736 40.1869C120.638 40.0736 120.544 39.9445 120.452 39.8024M120.736 40.1869C120.73 40.1413 120.725 40.0955 120.72 40.0495C120.685 39.7277 120.653 39.4006 120.623 39.0721M120.736 40.1869C120.969 42.2587 121.309 44.0226 121.568 44.6393C121.621 44.7654 121.731 44.5347 121.872 44.0546M120.452 39.8024C119.967 39.0535 119.559 37.9425 119.216 36.861M120.452 39.8024C120.266 40.6569 120.098 41.6022 119.921 42.4497C119.787 43.0867 119.414 38.7681 119.216 36.861M120.452 39.8024C120.507 39.5494 120.564 39.3043 120.623 39.0721M119.216 36.861C119.172 36.7224 119.13 36.5844 119.088 36.4476M119.216 36.861C119.139 36.1129 119.088 35.7359 119.089 36.1746C119.089 36.2651 119.089 36.3562 119.088 36.4476M119.088 36.4476C118.814 35.5491 118.585 34.7069 118.397 34.1546C118.002 32.9957 117.722 31.5598 117.446 29.296C117.175 27.0794 116.961 24.0959 116.901 21.8341M119.088 36.4476C119.063 39.0972 118.605 42.0258 118.589 41.7198C118.383 37.8047 118.408 34.2708 118.364 34.6261C117.952 38.0028 117.385 40.6532 117.288 40.2235C117.037 39.1 116.834 37.507 116.413 36.1561M116.901 21.8341C116.817 25.0674 116.707 29.3539 116.62 32.0057C116.508 35.4826 116.441 35.9586 116.417 36.1244C116.416 36.1373 116.414 36.1483 116.413 36.1561M116.413 36.1561C116.408 36.1826 116.403 36.1739 116.391 36.0872M116.413 36.1561C116.405 36.1331 116.398 36.1101 116.391 36.0872M116.391 36.0872C116.36 35.8688 116.278 35.1556 116.01 33.2614C115.604 30.3912 114.769 24.8142 114.343 21.3352C113.917 17.8561 113.926 16.644 113.713 17.5664C113.5 18.4888 113.066 21.5824 112.862 23.0373C112.697 24.2145 112.742 21.3003 112.707 17.4742C112.699 16.5794 112.407 19.5657 112.293 23.4323C112.267 24.3248 112.416 24.1678 112.648 25.6991C112.852 27.0563 113.111 29.6087 113.242 31.4849C113.399 33.7475 113.393 34.9598 113.357 35.6257M116.391 36.0872C116.252 35.6523 116.09 35.2442 115.895 34.8869M113.357 35.6257C113.351 35.7375 113.344 35.8339 113.337 35.9173M113.357 35.6257C113.35 35.7366 113.343 35.8333 113.337 35.9173M113.357 35.6257C113.385 35.2129 113.422 34.6018 113.471 33.6998C113.615 31.0888 113.881 26.0302 114.018 23.7075C114.155 21.3847 114.156 21.9511 114.662 25.8525C114.963 28.1767 115.442 31.6785 115.895 34.8869M113.337 35.9173C113.306 36.2839 113.271 36.3986 113.285 36.4642C113.288 36.4756 113.301 36.4258 113.337 35.9173ZM115.895 34.8869C116.006 35.6704 116.115 36.4364 116.219 37.1635M115.895 34.8869C115.832 34.771 115.765 34.6604 115.695 34.5561C115.667 34.5141 115.641 34.4853 115.616 34.4694M116.219 37.1635C116.405 38.4566 116.576 39.6266 116.715 40.553C117.254 44.1331 117.293 43.8555 117.127 42.5943C116.84 40.4305 116.503 38.5525 116.219 37.1635ZM116.219 37.1635C116.042 36.3003 115.886 35.626 115.776 35.1894C115.719 34.9655 115.666 34.7186 115.616 34.4694M115.616 34.4694C115.517 33.9721 115.434 33.4651 115.373 33.1112C115.253 32.4175 115.158 35.4696 115.013 40.4323C114.962 42.1722 114.934 42.3306 114.964 42.2565C115.118 41.8844 115.212 39.4933 115.32 36.1003C115.358 34.9241 115.438 34.3534 115.616 34.4694ZM120.623 39.0721C120.784 38.4371 120.964 37.8982 121.177 37.5556M120.623 39.0721C120.455 37.2257 120.371 35.3355 120.357 34.0902C120.34 32.6233 120.418 32.0681 120.711 33.9928C120.84 34.8455 121.009 36.1597 121.177 37.5556M121.177 37.5556C121.202 37.5154 121.227 37.478 121.253 37.4434C121.36 37.3005 121.456 37.2124 121.543 37.1713M121.543 37.1713C121.674 37.1095 121.783 37.1537 121.875 37.2772M121.543 37.1713C121.354 34.0398 121.131 30.5402 121.008 28.7022C120.827 25.9805 120.863 26.8753 121.12 29.6272C121.316 31.7218 121.631 34.8137 121.875 37.2772M122.325 42.1607C122.323 42.254 122.322 42.3244 122.322 42.3669C122.322 42.3753 122.321 42.3358 122.314 42.2121M122.325 42.1607C122.321 42.1779 122.318 42.1951 122.314 42.2121M122.314 42.2121C122.169 42.9072 122.029 43.4994 121.908 43.9286M121.908 43.9286C121.94 44.8017 121.925 44.912 121.923 44.9268C121.92 44.9431 121.935 44.8379 121.872 44.0546M121.908 43.9286C121.896 43.9723 121.884 44.0144 121.872 44.0546M133.202 26.5556C133.271 26.9292 133.34 27.3029 133.359 29.9196C133.378 32.5363 133.344 37.3848 133.266 40.3187C133.187 43.2527 133.065 44.1253 132.705 41.3583C132.345 38.5914 131.752 32.1586 131.473 28.3632C131.194 24.5678 131.249 23.6048 131.178 23.2364C131.107 22.868 130.909 23.1234 130.412 25.7877C129.914 28.452 129.122 33.5176 128.926 34.7616C128.73 36.0055 129.154 33.2745 129.549 31.1846C130.205 27.7102 130.785 26.0154 130.984 25.4722C131.069 25.2387 131.081 25.0765 130.993 28.1555C130.905 31.2345 130.705 37.556 130.585 40.6484C130.464 43.7407 130.43 43.4123 129.953 42.3295C129.477 41.2467 128.561 39.4195 127.949 38.0339C127.884 37.8867 127.822 37.7443 127.764 37.6064M127.764 37.6064C126.936 35.6504 126.763 34.6197 126.841 34.3256C126.925 34.0126 127.515 34.1732 127.781 34.3111C127.883 34.4663 127.918 34.7948 127.868 35.8845C127.846 36.3428 127.81 36.934 127.764 37.6064ZM127.764 37.6064C127.701 38.5327 127.621 39.6132 127.539 40.7123M134.832 19.3085C134.911 19.3197 135.207 21.5451 135.62 26.7319C135.856 29.694 135.833 33.3466 135.697 36.5372C135.663 37.3316 135.617 38.0909 135.565 38.8022M135.565 38.8022C135.412 40.9066 135.203 42.5919 135.088 43.5291L135.081 43.5834C134.929 44.8158 134.962 44.5778 135.317 41.1863C135.388 40.5019 135.473 39.6895 135.565 38.8022ZM135.565 38.8022C135.93 35.2926 136.412 30.6132 136.669 28.0673C136.992 24.8778 136.942 25.2347 136.885 26.6478C136.828 28.0608 136.766 30.5192 136.49 33.6723C136.213 36.8254 135.724 40.5988 135.22 44.4866M132.81 41.5747C132.692 41.8424 132.385 42.8558 132.68 44.2276C132.753 44.5657 132.919 44.8523 133.057 45.0378C133.285 45.3442 133.863 45.3991 134.491 45.4266C135.319 45.4629 135.936 44.3077 136.472 43.7033C136.957 43.1563 137.373 46.002 137.794 47.0924C137.983 47.4848 138.18 47.842 138.533 48.0754C138.784 48.1731 139.18 48.2288 139.589 48.2861M139.724 47.3246C139.852 46.41 140.281 44.5081 140.754 43.7546C141.287 42.9074 141.872 42.4813 142.457 41.9507C143.106 41.3633 144.06 40.5457 144.91 40.0472C145.679 39.596 146.616 39.2253 147.943 38.6365C149.195 38.0811 150.549 37.9795 152.371 37.585C155.937 36.8126 158.438 36.5119 158.817 36.4223C159.749 36.2021 160.752 36.3047 161.708 36.1949C163.199 36.0239 164.607 35.9069 165.501 35.9503C166.551 36.0013 168.361 35.5784 170.004 35.2967C170.821 35.1566 171.733 34.907 172.724 34.6973C172.954 34.6678 173.158 34.6559 173.348 34.6213C173.538 34.5867 173.707 34.5296 174.26 34.4013M114.769 12.9387C114.452 13.4616 113.925 15.4637 113.694 17.1072C113.625 17.6006 113.653 17.4023 113.647 17.1558C113.62 16.0446 113.698 14.7566 113.894 13.4942C114.057 12.4429 114.958 11.5803 115.338 10.9174C115.761 10.1796 116.885 10.0518 117.854 10.0014C119.27 9.9278 120.423 12.7861 121.194 13.9991C121.78 14.9223 122.292 16.3562 122.879 18.2701C123.627 20.7073 123.78 22.3716 123.867 22.9126C123.998 23.7309 124.354 25.8285 124.516 28.6056C124.676 31.3597 124.356 32.8242 124.312 33.8628C124.257 34.6939 124.17 35.9011 124.061 37.3982C123.998 37.9996 123.864 38.9514 123.727 39.9321M117.77 11.6441C118.028 12.1276 118.281 12.9376 119.037 15.6377C119.162 16.0824 119.301 16.5994 119.448 17.1634M119.448 17.1634C120.063 19.5228 120.825 22.7067 121.307 24.8806C121.904 27.5742 122.003 28.5992 122.028 28.8808C122.053 29.1625 122.001 28.6699 121.26 26.2939C120.52 23.9178 119.094 19.6734 118.336 17.3623C117.5 14.8124 117.507 14.3868 117.618 14.1774C117.665 14.0875 117.859 14.1885 118 14.3505C118.267 14.7728 118.595 15.3519 119.378 17.003C119.401 17.0549 119.424 17.1084 119.448 17.1634ZM119.448 17.1634C120.037 18.5265 120.967 20.8067 122.004 23.3907M120.46 9.93827C120.722 10.0964 121.477 11.0957 122.616 13.4597C123.242 14.7572 123.444 15.6877 123.665 16.7062L123.671 16.736C124.166 18.7492 124.304 19.5027 124.603 21.0128C124.659 21.3515 124.676 21.5157 124.677 21.8051M137.379 15.1315C136.947 15.5979 136.447 16.834 136.225 17.8245C135.781 19.8165 135.245 21.6068 134.979 22.7766C134.696 24.0218 134.381 26.0127 134.032 27.9258C133.927 28.5031 133.747 28.2301 133.628 27.9064C133.073 26.3947 132.576 24.9211 132.356 21.9765C132.352 21.9227 132.348 21.8698 132.345 21.8177M132.345 21.8177C132.203 19.412 133.048 18.6741 133.496 17.7564C133.989 16.7459 135.085 16.0008 135.681 15.5874C136.545 14.9873 134.317 17.7558 133.797 18.833C133.266 19.9322 132.722 21.1459 132.345 21.8177ZM132.345 21.8177C132.229 22.0246 132.129 22.1801 132.05 22.265C131.893 22.4338 131.657 22.4563 131.521 22.3979C131.327 22.1698 131.177 21.7798 131.076 21.1963C131.065 20.8277 131.137 20.3121 131.212 19.7809M138.526 13.9444C138.715 14.3361 139.082 15.2039 139.443 16.132C140.08 17.7726 140.285 19.4561 140.261 20.2108C140.248 20.6119 140.446 22.3685 140.398 25.7622C139.99 29.7117 139.624 32.0306 139.516 32.3617C139.47 32.5397 139.443 32.738 139.414 32.9423M137.799 18.2543C138.063 19.2682 138.364 20.6156 138.957 23.6548C139.22 25.0034 139.394 27.8094 139.417 29.5695C139.42 29.7931 139.407 30.076 139.154 32.0265C138.901 33.977 138.395 37.5862 138.089 39.6212C137.462 43.3611 137.095 45.686 136.948 46.2971C136.885 46.5965 136.846 46.8742 136.686 47.1433M137.335 18.0666C137.324 18.1459 137.24 18.7421 137.104 20.2886C136.893 22.6828 136.905 24.6193 136.8 25.8049C136.648 29.0748 136.451 30.7666 136.424 31.3946C136.402 31.6997 136.363 31.9773 136.323 32.2634M140.099 18.4546C140.06 18.7334 140.193 22.3968 140.162 25.1377C140.14 27.0953 139.664 29.9896 139.65 31.1126C139.638 32.0272 139.474 33.3895 139.353 34.9713C139.308 35.571 139.24 36.212 139.058 37.9373L139.053 37.982C138.539 41.7978 138.065 44.5966 137.858 45.1993C137.775 45.4959 137.736 45.7735 137.696 46.0595" stroke="#346F51" stroke-width="3" stroke-linecap="round"/>
<path d="M100.884 46.5913C100.895 46.5112 101.026 46.1609 101.306 45.6238C101.537 45.1822 102.718 44.628 104.565 43.7755C106.435 42.9124 108.569 42.8882 110.934 42.8699C112.311 42.8593 114.043 43.0786 114.847 43.2107C115.652 43.3427 115.475 43.4404 115.232 43.5511C114.693 43.797 113.186 44.2302 111.014 44.7493C109.316 45.155 107.47 45.2849 105.648 45.6472C103.787 46.0172 103.098 46.1177 101.315 46.217C99.0495 46.3433 97.7378 46.6855 97.4778 46.6292C97.2194 46.5733 97.3704 46.0587 97.4786 45.7243C97.6101 45.3179 98.3506 44.9194 99.4232 44.4526C100.626 43.9292 102.163 43.8857 104.736 43.9586C106.531 44.0095 109.301 44.3926 111.282 44.5469C113.262 44.7011 114.366 44.6927 115.06 44.6652C115.754 44.6377 116.006 44.5913 114.146 44.7782C112.286 44.965 108.308 45.3865 106.11 45.644C103.043 46.0032 102.24 46.9425 101.595 47.2683C101.344 47.3947 101.496 46.6376 101.447 46.4038C101.426 46.3034 101.21 46.3476 101.033 46.4255C100.172 46.8049 99.7439 49.4229 99.776 50.9486C99.781 51.1879 99.8667 51.4742 99.8646 51.4986C99.7072 53.2527 97.9694 47.3799 97.8368 47.2976C96.9452 46.744 97.5517 49.4568 97.7219 50.5978C97.8689 51.5831 98.296 52.3697 98.7579 53.0543C99.1569 53.6458 99.8423 53.7027 100.125 53.7436C100.24 53.7602 100.213 53.4306 100.141 53.2126C99.9991 52.7833 99.6518 52.4412 99.3087 52.1048C98.9178 51.7215 97.9565 51.6242 97.0352 51.5766C96.7129 51.5599 96.6921 51.7734 96.7838 51.9929C97.2072 53.0066 97.9526 53.3533 98.5052 53.8237C99.4125 54.596 101.195 54.6348 102.122 54.9301C102.823 55.1532 103.603 55.3861 104.7 55.6427C107.269 56.2438 108.465 55.9868 109.699 55.892C110.762 55.8103 111.937 55.6501 113.002 55.5718C114.066 55.4936 115.056 55.4691 117.711 55.3903C119.747 55.3298 123.651 55.1215 125.954 54.9845C129.89 54.7504 131.204 54.7242 131.922 54.7624C132.85 54.8119 133.914 54.8149 134.817 54.839C136.495 54.8838 137.395 54.9744 138.394 54.929C139.176 54.8934 140.172 54.5822 141.437 54.0997C142.395 53.7347 143.968 53.3828 145.318 52.8919C145.758 52.7323 146.069 52.5629 146.199 52.3752C146.497 51.9452 145.056 52.1721 144.208 52.3402C142.61 52.6571 141.599 52.7164 139.138 52.9679C138.264 53.0572 137.193 53.0852 135.206 53.0137C133.22 52.9422 130.349 52.7434 128.767 52.6469C126.569 52.5129 125.017 52.4924 123.599 52.4183C121.447 52.3058 119.981 52.1988 118.534 52.0786C117.454 51.9889 115.683 52.0076 113.57 51.9578C110.776 51.8921 109.144 51.8731 107.685 51.7932C105.777 51.6889 104.309 51.6077 103.308 51.5296C102.877 51.496 102.377 51.5432 101.887 51.6588C101.431 51.7662 101.424 52.4387 101.407 52.8478C101.375 53.6529 101.952 54.2438 102.486 54.6924C103.097 55.205 104.208 54.6073 106.172 54.388C108.099 54.1728 110.151 53.9556 111.637 53.9377C112.226 53.9306 112.477 53.87 114.562 53.8756C116.647 53.8812 120.558 53.9402 122.679 53.9446C125.437 53.9503 126.195 53.692 127.063 53.5249C127.976 53.3491 129.491 53.0832 131.08 52.9147C133.371 52.6718 135.912 52.3339 136.761 52.1641C138.06 51.904 138.855 51.057 139.246 50.4931C139.34 50.357 139.272 50.1677 139.103 50.0599C138.671 49.7842 137.86 49.6788 136.709 49.25C134.992 48.6107 132.797 47.8981 130.517 47.0015C128.229 46.1022 126.679 45.8814 126.097 45.7793C123.95 45.4027 120.945 45.0345 119.271 45.2109C118.097 45.3346 116.944 45.6262 114.174 46.0001C113.339 46.1128 111.509 46.223 109.021 46.4714C106.418 46.7313 103.568 47.1735 103.024 47.5085C102.265 47.9755 105.301 48.2827 108.238 48.9009C109.514 49.1695 110.594 49.6442 112.228 49.9972C114.727 50.5372 116.772 50.5953 117.642 50.553C118.277 50.5221 118.818 50.4284 120.671 50.198C122.244 50.0026 125.08 49.5096 127.064 49.3463C131.679 48.9666 132.938 49.4409 132.889 49.5151C132.414 50.2384 129.588 50.2437 126.553 50.5805C124.988 50.7542 124.025 50.704 120.251 50.4824C117.009 50.292 111.095 49.6279 107.923 49.3293C103.975 48.9577 103.196 48.9362 103.216 48.9192C103.388 48.7705 104.104 48.82 105.75 48.9464C110.015 49.274 112.846 49.7956 113.106 49.9961C113.243 50.1021 113.263 50.3454 113.204 50.4832C112.866 51.2733 111.525 51.3003 111.267 51.368C111.221 51.3801 111.369 51.2005 111.325 51.0898C111.202 50.7793 110.044 50.7226 109 50.5148C108.934 50.3218 110.289 50.0183 112.721 49.6805C114.022 49.5512 115.457 49.5076 117.178 49.4968" stroke="#346F51" stroke-width="2" stroke-linecap="round"/>
<path d="M62 116.858C63.2575 118.754 67.697 123.184 72.4604 126.375C74.8142 127.952 78.4908 128.29 82.6112 127.976C88.6654 125.442 91.5235 121.955 93.424 118.944C94.3815 117.506 95.3246 116.248 96.2964 114" stroke="#A22828" stroke-width="2" stroke-linecap="round"/>
<path d="M147 113C147.629 115.839 150.163 122.184 153.812 126.009C157.385 129.755 163.805 128.243 168.088 127.614C170.798 125.728 173.342 122.86 176.038 119.85C177.162 118.411 177.791 117.154 178.438 114.905" stroke="#A22828" stroke-width="2" stroke-linecap="round"/>
</svg>
