<svg width="96" height="100" viewBox="0 0 96 100" fill="none" xmlns="http://www.w3.org/2000/svg">
<ellipse cx="48" cy="57.9764" rx="48" ry="41.3115" fill="#AD3232"/>
<path d="M47.9889 17.004C44.7391 16.5479 38.3962 16.109 37.1454 16.9181C36.5169 17.3246 36.0214 17.8953 35.6782 18.6836C35.3351 19.4719 35.1902 20.5045 35.6319 21.109C37.641 23.8586 41.9431 22.0813 48.1469 22.1953C52.389 22.2733 54.8415 22.2232 56.5499 20.9474C56.9134 20.6759 56.2392 19.9944 55.7585 19.6192C53.3842 18.6729 51.3173 18.2324 49.3482 17.7281C47.9485 17.4542 45.7358 17.1436 43.4559 16.8237M52.8358 18.4191C52.9798 18.3342 53.29 18.0068 53.7789 17.453C54.0512 17.1444 54.8354 16.6087 56.6137 15.6949C57.7444 15.114 59.4916 14.6203 61.2343 14.1696C62.9771 13.7189 64.7017 13.4093 65.7758 13.2365C67.825 12.9069 68.5238 13.059 68.8692 13.1469C69.0159 13.1842 69.075 13.294 69.1002 13.4038C69.1254 13.5136 69.1073 13.6424 69.0779 13.7585C69.0083 13.974 68.3644 14.4384 65.6051 15.7915C63.4482 16.7827 59.755 18.392 55.761 20.2624M51.9086 17.6522C51.9303 17.4976 52.1693 15.7951 52.569 13.1338C52.7254 12.0928 52.8504 11.6903 52.999 10.8249C53.3718 8.65212 53.5178 7.1339 53.4967 6.81334C53.4554 6.18562 53.2404 5.53166 52.8181 5.13769C52.5463 4.88418 52.1276 4.94726 51.7745 5.0159C51.1778 5.13191 50.3001 6.27397 49.2845 7.65493C48.8551 8.23867 48.6909 8.64858 48.4262 9.86549C48.1615 11.0824 47.8243 13.1102 47.6545 14.221C47.4847 15.3319 47.4924 15.4643 47.4784 15.7568M47.2236 16.4375L47.2017 16.5936M47.8906 15.6555L47.8796 15.7335M46.9236 15.811C47.0163 15.7411 47.2346 14.1949 47.4864 11.6572C47.8139 8.3579 46.7876 5.16029 46.3133 4.21111C45.9777 3.53947 45.2068 3.30009 43.9382 3.10007C43.4819 3.02811 43.0303 3.28486 42.5625 3.63696C42.1779 3.92647 41.9336 5.1234 41.5998 6.75943L41.5956 6.77982C41.3506 7.98077 41.7753 10.6697 42.3667 14.0602C42.6921 15.5061 42.9232 16.2497 43.1771 17.122C43.2961 17.478 43.3953 17.6577 43.4974 17.8429M35.4562 17.8451C35.3749 17.8337 33.4512 17.6467 29.8628 17.4553C26.6824 17.2856 24.803 17.9808 24.0611 18.3572C22.668 19.064 21.7928 19.7344 20.5817 20.6116C19.6526 21.2846 19.0741 21.784 18.7911 22.162C18.6514 22.3486 18.5488 22.5457 20.2887 22.3992C22.0287 22.2527 25.6217 21.7619 27.7106 21.4388C31.8276 20.6477 34.2745 20.2763 34.7985 20.2663C35.0323 20.257 35.2006 20.2391 35.3741 20.2208M42.0306 16.028C41.9699 15.9474 41.5896 15.5687 39.9536 14.2177C38.6903 13.1745 36.4522 11.524 35.1217 10.4698C33.3738 9.08475 32.6925 8.42277 31.8258 7.88404C29.5902 6.49441 27.7104 6.37509 26.715 6.52473C26.5465 6.55005 26.5394 6.8615 26.5465 7.06394C26.5606 7.46747 27.2249 8.41099 28.0555 9.6189C28.4708 10.2228 29.6085 11.6161 31.2205 13.7334C32.628 15.5823 33.6076 16.3723 34.6354 16.9538C34.8901 17.0993 35.0872 17.2351 35.3732 17.403C35.6592 17.5709 36.0281 17.7668 36.6373 17.8916M49.3683 15.0924C49.0957 15.4866 48.6096 16.8727 48.2372 17.8419C48.0927 18.2218 47.8901 18.6312 47.6164 19.029C47.4835 19.1943 47.3626 19.2854 47.0088 19.4564M48.0965 20.2641C46.237 20.0392 44.7187 20.0434 43.3826 20.1654C42.3238 20.4355 41.7179 20.606 41.5026 20.5763C41.5042 20.5411 41.7311 20.4648 42.1791 20.4163M50.6495 19.9673C50.5218 19.9783 50.3585 20.0026 50.1669 20.0356M50.1669 20.0356C49.6423 20.126 48.9047 20.2818 48.0992 20.4086C45.8555 20.762 44.0695 20.7166 43.0847 20.7433C42.8102 20.7507 42.5446 20.7453 42.2885 20.7297M50.1669 20.0356C49.1652 20.0424 47.7668 20.104 46.7191 20.3269C45.718 20.5398 44.8738 20.183 42.2885 20.7297M50.1669 20.0356C50.5343 20.0332 50.8483 20.0381 51.0721 20.0452C51.8682 20.0704 52.4662 19.969 53.2461 19.9862C53.9612 19.9593 54.4095 19.877 54.7118 19.7922C54.8629 19.7583 55.0092 19.7428 55.3741 19.7569M42.2885 20.7297C40.4253 20.6161 39.0601 19.9589 38.3841 19.721C38.1064 19.6233 38.21 19.1332 38.1819 18.8202C38.1688 18.6746 37.9975 18.5935 37.8567 18.5546C37.7158 18.5157 37.5695 18.5312 37.4665 18.6074C37.2536 18.765 37.2218 19.1725 37.2424 19.539C37.2769 20.151 38.3678 20.0627 38.7733 20.3014C39.0375 20.457 38.6269 20.5129 38.1292 20.5122M42.2885 20.7297C42.2098 20.7464 42.1294 20.7638 42.0475 20.7822C40.6986 21.0842 39.6262 21.271 38.9365 20.9434C38.667 20.8154 38.3997 20.6448 38.1292 20.5122M38.1292 20.5122C37.7518 20.5118 37.3243 20.4788 37.1029 20.4322C36.9702 20.4042 37.1295 20.3278 37.2781 20.3116C37.5692 20.2797 37.8509 20.3758 38.1292 20.5122ZM46.8398 19.1051C45.9189 18.9758 44.1914 18.8054 43.3454 18.7419L43.3427 18.7417C42.2814 18.6619 40.8411 18.5536 39.7917 18.3894C39.6521 18.3676 39.8258 18.2321 40.0021 18.1471C40.1783 18.0621 40.3699 17.9809 41.8643 18.1349C43.3588 18.289 46.1503 18.6807 49.0415 18.9773M55.6747 17.6153C55.9176 17.4322 56.4656 17.1455 57.4044 16.8045C58.1079 16.5489 58.6608 16.5309 59.6791 16.2917M59.6791 16.2917C59.8524 16.251 60.0393 16.2038 60.2426 16.148C60.5286 16.0696 60.8257 16.0004 61.1225 15.938M59.6791 16.2917C59.7243 16.2329 59.7672 16.1729 59.8075 16.1116M59.6791 16.2917C59.5847 16.4144 59.4801 16.5318 59.3679 16.6439M61.1225 15.938C61.1388 15.9346 61.155 15.9312 61.1712 15.9278M61.1225 15.938C61.1371 15.9359 61.1516 15.9339 61.1662 15.9318M61.1225 15.938C60.6596 16.0041 60.219 16.0594 59.8075 16.1116M61.1712 15.9278C61.3137 15.8982 61.456 15.8702 61.5969 15.8434M61.1712 15.9278C61.1695 15.9291 61.1679 15.9304 61.1662 15.9318M61.1712 15.9278C61.3917 15.755 61.5585 15.6152 61.644 15.5258C61.8626 15.2974 62.0812 15.0735 62.3142 14.8625M61.5969 15.8434C62.2224 15.7243 62.8198 15.6298 63.2799 15.5354C63.4316 15.5043 63.5773 15.486 63.282 15.5521C62.6685 15.6893 62.0728 15.7946 61.5063 15.8813M61.5969 15.8434C61.6931 15.8032 61.7925 15.762 61.8952 15.7199C62.6859 15.3958 63.1998 15.1048 63.8029 14.952C64.4075 14.7988 65.3903 14.4869 66.2409 14.1832C66.2951 14.1639 66.3486 14.1432 66.4015 14.1216M61.5969 15.8434C61.5664 15.8561 61.5362 15.8688 61.5063 15.8813M61.5063 15.8813C61.3917 15.8989 61.2783 15.9156 61.1662 15.9318M61.5063 15.8813C61.2851 15.9741 61.0807 16.0618 60.8897 16.1445M61.1662 15.9318C61.0814 15.9982 60.9887 16.0694 60.8897 16.1445M59.8075 16.1116C58.8568 16.2324 58.0616 16.3373 57.5055 16.5238C57.5002 16.5256 57.4948 16.5274 57.4894 16.5292M59.8075 16.1116C59.8282 16.0802 59.8482 16.0484 59.8675 16.0162C60.0093 15.7801 60.0953 15.4578 59.9039 15.4612C59.78 15.4634 59.6558 15.4692 59.5323 15.4798M57.4894 16.5292C57.2821 16.5979 57.0644 16.6544 56.8431 16.7034M57.4894 16.5292C58.1072 16.1286 58.64 15.7676 59.4112 15.5176C59.4513 15.5046 59.4916 15.492 59.5323 15.4798M57.4894 16.5292C57.1639 16.7403 56.8147 16.9625 56.3945 17.1852C56.078 17.3529 55.808 17.5092 55.5891 17.6429M56.8431 16.7034C56.2465 16.8354 55.6234 16.9122 55.1046 17.0249C54.9586 17.0566 54.8343 17.1119 54.7274 17.18M56.8431 16.7034C56.2876 17.0707 55.7974 17.4214 55.4476 17.6802M56.8431 16.7034C57.2768 16.4167 57.7502 16.1199 58.2275 15.8488C58.6243 15.6235 59.0739 15.519 59.5323 15.4798M54.7274 17.18C54.5381 17.3006 54.4036 17.4614 54.3003 17.6024M54.7274 17.18C54.5675 17.336 54.4206 17.4811 54.3003 17.6024M54.7274 17.18C54.9282 16.9841 55.1494 16.7709 55.3643 16.5654M54.3003 17.6024C54.2022 17.7364 54.1324 17.8524 54.0707 17.899C53.8809 18.0427 54.0167 17.8884 54.3003 17.6024ZM55.3643 16.5654C55.7139 16.2312 56.0466 15.9175 56.2468 15.7325C56.7811 15.2387 57.6986 15.0976 58.6513 14.9223C59.3203 14.7993 60.091 14.7876 60.7466 14.7838M55.3643 16.5654C55.3725 16.5619 55.3807 16.5584 55.3889 16.5549C56.5216 16.0691 58.8873 15.352 60.7466 14.7838M55.3643 16.5654C54.7473 16.829 54.0336 17.0979 53.5351 17.4406C53.2761 17.6187 53.1886 17.9565 53.2337 18.1452C53.2599 18.2551 53.5911 18.1615 54.9037 17.8221C55.0697 17.7792 55.2524 17.7315 55.4476 17.6802M60.7466 14.7838C61.1952 14.7812 61.5899 14.7822 61.861 14.7537C62.0796 14.7308 62.3055 14.7019 62.5414 14.6652M60.7466 14.7838C61.008 14.7039 61.2594 14.627 61.496 14.554C62.6738 14.1908 64.9249 13.5508 64.3163 13.7335C64.0683 13.8079 63.6808 13.9288 63.3524 14.1087C63.0531 14.2726 62.7876 14.461 62.5414 14.6652M62.5414 14.6652C63.01 14.5924 63.5177 14.4886 64.0839 14.3385C64.4156 14.2506 64.7195 14.1944 65.0085 14.1619M62.5414 14.6652C62.4639 14.7295 62.3883 14.7954 62.3142 14.8625M65.0085 14.1619C65.3552 14.123 65.6803 14.1182 66.006 14.1339C66.1482 14.1407 66.2805 14.1352 66.4015 14.1216M65.0085 14.1619C65.719 13.9873 67.3367 13.4212 67.3273 13.6804M65.0085 14.1619C64.959 14.1741 64.914 14.1843 64.8742 14.1923C64.2361 14.3198 63.3227 14.6201 62.3142 14.8625M66.4015 14.1216C66.8643 14.0696 67.1615 13.8993 67.2132 13.8485C67.2904 13.7727 67.3259 13.7179 67.3273 13.6804M66.4015 14.1216C66.7349 13.9853 67.0437 13.8101 67.3273 13.6804M67.3273 13.6804C67.6674 13.5249 67.9714 13.4349 68.2386 13.5562C68.3587 13.6107 68.495 13.7497 68.4331 13.839C68.2955 14.0375 67.8886 14.3699 67.2073 14.6497C66.4136 14.9756 65.6154 15.0273 64.9638 15.3355C64.3153 15.6423 63.5567 15.7967 62.6974 16.2036M62.3142 14.8625C62.2431 14.8796 62.1716 14.8964 62.0997 14.9128C60.9722 15.1701 60.2082 15.2764 59.5323 15.4798M55.5891 17.6429C55.2488 17.8507 55.0323 18.0038 54.9577 18.0601C54.7789 18.1949 54.9962 18.0142 55.4476 17.6802M55.5891 17.6429C55.5413 17.6555 55.4941 17.6679 55.4476 17.6802M55.5891 17.6429C56.7339 17.3411 58.253 16.9321 59.3679 16.6439M59.3679 16.6439C59.2793 16.7325 59.1859 16.8177 59.089 16.8997M59.3679 16.6439C59.5586 16.5947 59.7375 16.5489 59.9006 16.5078C60.0319 16.4748 60.1524 16.4449 60.2627 16.4181M59.089 16.8997C59.0622 16.9223 59.0352 16.9446 59.008 16.9668M59.089 16.8997C59.4537 16.7684 59.8239 16.6096 60.2627 16.4181M59.089 16.8997C59.0063 16.9294 58.9239 16.9578 58.8411 16.9848C57.9432 17.2777 56.962 17.7938 56.2712 18.0441C56.0529 18.1232 56.2394 18.0733 56.7833 17.9206M59.008 16.9668C58.8311 17.1103 58.6439 17.2433 58.4535 17.366M59.008 16.9668C58.9242 16.9974 58.8371 17.031 58.7471 17.0677C58.2721 17.2614 57.776 17.4943 57.3154 17.7231M59.008 16.9668C59.5413 16.7719 59.9417 16.6979 60.1259 16.7118M58.4535 17.366C58.3693 17.4202 58.2844 17.4725 58.1995 17.5227M58.4535 17.366C58.6806 17.2986 58.9215 17.2284 59.1696 17.157M58.4535 17.366C58.2397 17.4294 58.0382 17.4902 57.8549 17.5468C57.6594 17.6072 57.4801 17.666 57.3154 17.7231M58.1995 17.5227C58.0888 17.5882 57.978 17.6502 57.8686 17.7088M58.1995 17.5227C57.7653 17.6439 57.3968 17.7478 57.0984 17.8318M58.1995 17.5227C58.2995 17.4948 58.403 17.4659 58.5099 17.4362M57.8686 17.7088C57.1756 18.0797 56.5356 18.3126 56.2929 18.4107C55.0924 18.896 56.6118 18.2438 57.8686 17.7088ZM57.8686 17.7088C58.097 17.6115 58.3168 17.5181 58.5099 17.4362M58.5099 17.4362C58.8299 17.3004 59.0769 17.1959 59.1696 17.157M58.5099 17.4362C58.6927 17.3853 58.8855 17.3319 59.0882 17.2759M59.1696 17.157C59.183 17.1514 59.1931 17.1471 59.1998 17.1443C59.3454 17.0838 59.3885 17.0744 59.3557 17.1036M59.1696 17.157C59.2313 17.1392 59.2933 17.1214 59.3557 17.1036M59.3557 17.1036C59.3252 17.1308 59.2288 17.1916 59.0882 17.2759M59.3557 17.1036C59.4818 17.0675 59.6091 17.0314 59.737 16.9952M59.0882 17.2759C58.4626 17.6508 56.961 18.4899 56.48 18.9065C56.2668 19.0911 56.4751 19.1471 56.6771 19.1394C57.6964 19.1007 58.893 18.506 59.6006 18.0233C60.4289 17.4583 61.404 16.8698 62.2795 16.4137M59.0882 17.2759C59.2245 17.2383 59.3652 17.1995 59.5103 17.1597M62.2795 16.4137C62.3732 16.3649 62.4658 16.3175 62.5569 16.2719C62.604 16.2484 62.6508 16.2256 62.6974 16.2036M62.2795 16.4137C61.6061 16.5917 60.9818 16.7592 60.4098 16.9143M62.2795 16.4137C62.3633 16.3915 62.448 16.3692 62.5333 16.3467C63.3639 16.1279 63.5224 16.0103 62.6974 16.2036M62.6974 16.2036C62.6316 16.219 62.5596 16.2364 62.4811 16.2558C61.9782 16.3807 61.2091 16.5856 60.3992 16.81M60.8897 16.1445C60.6638 16.2424 60.4565 16.3335 60.2627 16.4181M60.8897 16.1445C60.8126 16.2031 60.7316 16.264 60.6475 16.3268M60.2627 16.4181C60.408 16.3827 60.5356 16.3525 60.6475 16.3268M56.7833 17.9206C56.8776 17.894 56.9827 17.8644 57.0984 17.8318M56.7833 17.9206C56.941 17.8576 57.1176 17.7916 57.3154 17.7231M56.7833 17.9206C55.9638 18.2477 55.6509 18.495 55.4997 18.609C55.0632 18.9381 55.9298 18.4225 57.0984 17.8318M57.0984 17.8318C57.1697 17.7958 57.2421 17.7595 57.3154 17.7231M59.5103 17.1597C59.7937 17.0819 60.0937 17 60.4098 16.9143M59.5103 17.1597C58.1789 18.1245 56.8308 19.0861 57.3595 18.8514C57.5156 18.7821 57.6789 18.7477 57.8281 18.6251C58.3892 18.1637 60.2637 17.3123 60.4098 16.9143M59.5103 17.1597C59.586 17.1048 59.6617 17.0499 59.737 16.9952M60.4098 16.9143C60.4243 16.8748 60.4217 16.8398 60.3992 16.81M60.3992 16.81C60.18 16.8707 59.9578 16.9329 59.737 16.9952M60.3992 16.81C60.3651 16.765 60.2853 16.7321 60.1495 16.7142C60.1421 16.7132 60.1342 16.7124 60.1259 16.7118M59.737 16.9952C59.8685 16.8997 59.9987 16.8048 60.1259 16.7118M60.1259 16.7118C60.3079 16.5786 60.4836 16.4491 60.6475 16.3268M60.6475 16.3268C61.3072 16.1752 61.416 16.1819 61.3291 16.2252M32.0927 11.418C32.247 11.4555 32.6831 11.6604 33.8228 12.5222C34.3585 12.9272 35.1162 13.5312 35.816 14.0867M35.816 14.0867C36.3343 14.4981 36.8208 14.883 37.1618 15.1408C37.9633 15.7468 37.9006 15.6267 37.0791 15.0085C36.7483 14.7595 36.2948 14.4303 35.816 14.0867ZM35.816 14.0867C35.1061 13.5771 34.3408 13.0357 33.8385 12.6768C32.9975 12.0758 32.9417 12.0203 32.9588 12.0617C33.0307 12.2361 33.3115 12.5475 33.6848 12.9296M33.6848 12.9296C33.7304 12.9763 33.7774 13.024 33.8256 13.0727C34.7525 14.0097 35.7615 14.3597 35.824 14.3766C35.8398 14.3809 35.7058 14.3205 34.8693 13.7491C34.5534 13.5334 34.1336 13.2429 33.6848 12.9296ZM33.6848 12.9296C33.1104 12.5286 32.4883 12.0902 31.9755 11.7227M31.9755 11.7227C31.8279 11.6169 31.6894 11.5171 31.5636 11.4257C31.5284 11.4001 31.494 11.3749 31.4604 11.3502M31.9755 11.7227C32.0857 11.8337 32.1909 11.9454 32.2921 12.0655C32.6252 12.4609 33.0266 13.0312 33.4567 13.4783C34.1999 14.251 34.6413 14.6993 34.9438 15.0088M31.9755 11.7227C31.8515 11.5978 31.7211 11.4737 31.5825 11.3391C31.3718 11.1345 31.1119 10.8877 30.8641 10.6591M31.4604 11.3502C30.4235 10.5876 30.1511 10.2464 30.0977 10.2293C29.9689 10.1881 30.3648 10.7502 30.813 11.3835C30.9934 11.6383 31.2105 11.9296 31.4398 12.2255M31.4604 11.3502C31.71 11.6433 31.9621 11.9476 32.1797 12.2342C32.8203 13.0779 33.2315 13.6563 33.4512 14.0171M31.4604 11.3502C31.2528 11.1064 31.0469 10.8705 30.8641 10.6591M31.4398 12.2255C31.7803 12.665 32.1478 13.1146 32.4617 13.4698C32.987 14.0643 33.3421 14.3687 33.516 14.4766C33.6899 14.5844 33.6718 14.4864 33.6322 14.368C33.606 14.2895 33.5467 14.1738 33.4512 14.0171M31.4398 12.2255C31.0837 11.867 30.5944 11.3437 30.0696 10.6885C29.7168 10.2479 29.5685 10.06 29.3291 9.66746C29.2241 9.49525 29.1275 9.33457 29.0378 9.18416M31.4398 12.2255C31.6317 12.4188 31.785 12.5642 31.8842 12.6566C32.2964 13.0405 32.6476 13.4077 33.0238 13.6924C33.165 13.7993 33.3083 13.9088 33.4512 14.0171M33.4512 14.0171C33.8788 14.341 34.3036 14.6543 34.6606 14.8549C34.7519 14.9062 34.8471 14.9578 34.9438 15.0088M30.8641 10.6591C30.7328 10.5073 30.6135 10.3682 30.5138 10.2479C29.8359 9.42929 29.4242 8.92474 29.1098 8.62916C28.8875 8.42014 28.6069 8.21063 28.3215 8.00518M30.8641 10.6591C30.6152 10.4295 30.3784 10.2183 30.2156 10.0865C29.8774 9.81267 29.5125 9.54566 29.1493 9.27022C29.1104 9.24071 29.0733 9.21203 29.0378 9.18416M28.3215 8.00518C28.2586 7.95992 28.1956 7.91487 28.1328 7.87005L28.1252 7.86463C27.4588 7.38862 27.2952 7.12926 27.0853 6.90669C27.0304 6.8485 26.9728 6.7947 26.9752 6.77045C26.9942 6.58117 27.4298 6.95335 27.7672 7.29773C27.9681 7.50282 28.1398 7.72899 28.3215 8.00518ZM28.3215 8.00518C28.5281 8.31929 28.7476 8.69809 29.0378 9.18416M29.0378 9.18416C28.5332 8.78779 28.3617 8.55282 28.1041 8.35156C27.9886 8.26128 27.894 8.12897 27.7344 8.01037C27.6485 7.9465 27.5436 7.8874 27.6194 8.07234C27.8859 8.72268 28.5084 9.56096 28.9836 10.2381C29.3195 10.7168 29.5423 10.9144 29.8657 11.2966C30.4392 11.9743 30.8389 12.4291 31.1667 12.8539C31.5757 13.3838 32.1749 14.1442 32.3549 14.4112C32.5533 14.7057 32.7266 14.913 32.9093 15.1561C33.139 15.462 33.6028 15.8712 34.4151 16.5476C34.8495 16.9094 35.229 17.1129 35.7922 17.393C36.1157 17.5539 36.3728 17.6761 36.4811 17.6517C36.9514 17.546 35.8249 16.7973 35.2438 16.2979C35.0164 16.1025 34.8088 15.9192 34.6164 15.7432M34.9438 15.0088C35.3943 15.2466 35.8785 15.4727 36.1648 15.6053C36.4628 15.7435 36.7442 15.9436 37.0945 16.1375C37.4744 16.3476 37.5913 16.7858 37.593 16.8904C37.5971 17.139 36.6263 16.605 36.1765 16.2832C35.8907 16.0787 35.7172 15.8333 35.432 15.5201C35.3002 15.3753 35.1563 15.2263 34.9438 15.0088ZM34.6164 15.7432C34.4875 15.6254 34.3655 15.5108 34.249 15.3982M34.6164 15.7432C34.4213 15.5856 34.23 15.4311 34.0506 15.2892M34.6164 15.7432C34.6318 15.7557 34.6473 15.7682 34.6628 15.7808M34.249 15.3982C33.9842 15.1422 33.7476 14.8958 33.5231 14.6425C33.3805 14.4815 33.2505 14.2999 33.2563 14.2983C33.262 14.2967 33.4118 14.4769 33.8585 14.8841C34.1084 15.1119 34.4499 15.4091 34.7907 15.6962M34.249 15.3982C34.4265 15.4956 34.6105 15.5966 34.7907 15.6962M34.249 15.3982C34.1817 15.3613 34.1154 15.3248 34.0506 15.2892M34.7907 15.6962C35.0592 15.9224 35.3273 16.1423 35.5502 16.3173C36.2823 16.8923 36.6236 17.0362 36.7036 17.0397C36.9306 17.0497 36.4082 16.6371 35.7315 16.2309C35.4843 16.0825 35.1447 15.8919 34.7907 15.6962ZM34.0506 15.2892C33.85 15.1789 33.6637 15.0761 33.5083 14.9885C32.7876 14.5824 32.585 14.4447 32.4308 14.3431C32.3584 14.2953 32.3277 14.2167 32.3549 14.1878C32.6861 14.281 33.1361 14.6171 33.6461 14.9768C33.7704 15.0696 33.9066 15.1753 34.0506 15.2892ZM27.8485 7.3024C27.7703 7.4028 27.6681 7.90101 27.6868 8.33953C27.691 8.43783 27.4752 8.1348 27.4027 7.9643C27.3392 7.81517 27.3836 7.63977 27.3651 7.4848C27.3565 7.41273 27.3912 7.35201 27.4772 7.30743C27.9756 7.04926 28.5024 7.32956 29.2867 7.83068C29.8376 8.18263 30.8415 8.83726 31.5754 9.28212C32.3093 9.72698 32.7399 9.94654 33.53 10.4895C34.32 11.0324 35.4564 11.892 36.1747 12.4648C37.1828 13.2687 37.5064 13.6079 37.7732 13.8129C38.8327 14.627 39.3435 15.0548 40.0284 15.6078C40.3389 15.8584 40.4929 16.1477 40.5577 16.3265C40.5871 16.4075 40.242 16.259 39.2969 15.7679C38.3518 15.2768 36.6983 14.3605 35.7182 13.8386C35.0197 13.4667 34.6888 13.3093 34.5278 13.2365M34.5278 13.2365C34.4628 13.2072 34.4255 13.1916 34.403 13.1813C34.3545 13.1591 34.3766 13.1624 34.5278 13.2365ZM34.5278 13.2365C34.6217 13.2825 34.7654 13.3559 34.973 13.4674C35.5146 13.7585 36.4876 14.3087 37.1384 14.7166C38.5399 15.595 38.6669 15.8765 38.785 15.949C38.8491 15.9883 38.8965 16.0683 38.8305 16.0918C38.5919 16.1769 37.9293 15.9026 36.6856 15.4164C35.8903 15.1054 34.788 14.5996 34.2927 14.3739C33.9427 14.2144 34.7749 14.7 35.8419 15.3961C36.3442 15.6946 36.7 15.9047 37.1066 16.1546C37.2654 16.2425 37.3278 16.2512 37.4593 16.125M29.7956 8.20249C29.7912 8.2337 30.0816 8.54544 30.9771 9.34329C31.136 9.48481 31.3195 9.63794 31.5131 9.79382M31.5131 9.79382C32.0334 10.2128 32.6266 10.6517 33.0092 10.9378C33.549 11.3416 33.8356 11.4761 34.1017 11.5839M31.5131 9.79382C31.8539 9.92695 32.2892 10.1777 33.336 10.9835C33.5548 11.1519 33.8171 11.3588 34.1017 11.5839M31.5131 9.79382C31.4753 9.77906 31.4387 9.76575 31.4025 9.75329C31.3003 9.71808 31.6065 10.1549 31.977 10.6565C32.3476 11.1582 32.902 11.8565 33.2646 12.2908C33.4028 12.4562 33.5336 12.6011 33.6577 12.729M34.1017 11.5839C34.147 11.6023 34.1918 11.6199 34.2372 11.6379C34.5705 11.7704 35.145 12.1974 35.8122 12.7086C36.6124 13.3217 37.6162 14.0727 38.0925 14.4048C38.2132 14.4889 38.3553 14.5304 38.363 14.5478C38.4101 14.6551 37.7646 14.3211 36.5069 13.4341C35.8296 12.9564 34.882 12.2014 34.1017 11.5839ZM33.6577 12.729C34.2082 13.2962 34.6258 13.529 34.9635 13.7409C35.2819 13.9406 35.668 14.105 35.8206 14.1671C35.8704 14.1874 35.7896 14.1005 35.6145 13.9367M33.6577 12.729C34.3556 13.2038 35.1185 13.6668 35.5813 13.9188C35.5926 13.9249 35.6036 13.9309 35.6145 13.9367M33.6577 12.729C33.5835 12.6785 33.5101 12.6279 33.4378 12.5774C32.6856 12.0518 32.0871 11.5541 31.6838 11.181C30.7672 10.3328 30.6022 10.0207 30.181 9.53605C29.8757 9.18475 29.5782 8.96084 29.4425 8.77206C29.5322 8.80779 29.722 8.94678 30.014 9.20378C30.1922 9.36524 30.4312 9.58973 30.806 9.9355M35.6145 13.9367C35.262 13.6071 34.5272 12.9663 33.7039 12.2613C32.3873 11.1338 32.3012 10.8532 32.3115 10.8298C32.3436 10.7567 32.5586 11.0465 33.2234 11.6034C33.8883 12.1604 35.0294 13.1002 35.6451 13.6121C36.2608 14.1241 36.3167 14.1796 36.2752 14.1984C36.2347 14.2168 36.0995 14.1983 35.6145 13.9367ZM28.489 6.86188C28.6829 6.84087 29.3395 6.96486 29.8869 7.19406C30.062 7.26734 30.2001 7.37494 30.6768 7.67305C31.7686 8.35577 32.5069 8.92006 32.6998 9.08311C33.0374 9.36842 33.4394 9.59724 34.0758 10.0137C34.5587 10.3297 35.3284 10.9145 35.8203 11.3008C36.5141 11.8458 36.7822 12.1238 37.0929 12.3591C37.6432 12.7757 37.9894 13.1453 38.3252 13.4236C39.1152 14.0783 39.6633 14.6175 39.8294 14.8009C40.3429 15.3676 40.9484 15.8567 41.3582 16.2214C41.4385 16.2814 41.5278 16.3257 41.6028 16.3685C41.6778 16.4114 41.7358 16.4513 41.8362 16.5464M29.2937 7.31235C29.3249 7.31673 29.4324 7.34773 30.0675 7.70761C30.6214 8.02145 31.6045 8.67142 32.1452 9.01732C32.7439 9.40319 32.8439 9.49776 32.9395 9.61533C32.9949 9.67951 33.0641 9.75288 33.1355 9.82847M34.8735 19.0892C34.7009 19.0649 34.3421 19.11 32.5454 19.3374C31.3318 19.491 29.1568 19.8173 27.9799 19.9797C26.4972 20.1844 26.1355 20.2091 25.7727 20.2705C25.3347 20.3447 24.4235 20.4172 23.702 20.5983C22.9863 20.7779 22.1851 20.9884 21.7798 21.1241C21.1144 21.347 20.8546 21.4121 20.6049 21.5301C20.3686 21.666 20.1662 21.734 20.0071 21.7837C19.9147 21.8111 19.7989 21.8425 19.6257 21.9156M20.8054 21.0686C20.8098 21.0374 20.8208 20.9589 20.9208 20.8129C21.1039 20.5456 22.0946 20.1931 23.3501 19.6547C23.8705 19.4315 24.1738 19.3581 25.0551 19.2889C25.9363 19.2197 27.3914 19.1693 28.2145 19.1298C29.4156 19.0721 29.7641 19.0635 30.4302 18.9487C31.2045 18.8152 31.6317 18.8116 32.8376 18.788C33.4953 18.7751 33.8811 18.8216 34.4744 18.8805C34.738 18.8937 35.0088 18.9153 35.2787 18.9372C35.3924 18.9373 35.4592 18.9148 35.6359 18.8104M35.7703 18.54C35.7391 18.5356 35.0342 18.4526 33.8558 18.3272C32.7419 18.2087 32.2212 18.3148 31.7792 18.3571C31.2108 18.4116 30.5073 18.4391 29.5722 18.4799M29.5722 18.4799C29.5556 18.4806 29.5389 18.4813 29.5222 18.482C28.797 18.5137 28.4787 18.5128 28.1676 18.4935C27.902 18.477 27.5519 18.4792 27.2322 18.4586C26.847 18.4339 26.3971 18.4617 25.9902 18.549C25.6038 18.6319 25.1304 18.7816 24.6915 18.9852C24.5672 19.0428 24.4444 19.0736 24.3253 19.0852M29.5722 18.4799C29.857 18.4472 30.2011 18.4166 30.6198 18.3948C31.1961 18.3647 31.7626 18.2995 32.2584 18.2425L32.2704 18.2412C32.4574 18.2197 32.5198 18.2284 32.2696 18.1933C31.4733 18.0816 30.6647 18.0156 29.416 18.0346C28.4908 18.0487 27.8802 18.0145 27.149 18.0378C26.0292 18.0735 25.6353 18.1034 25.1491 18.2721C24.423 18.5241 23.6055 18.983 23.8938 19.0514C23.9187 19.0573 23.9439 19.0627 23.9695 19.0674M29.5722 18.4799C28.945 18.5517 28.6049 18.6333 28.3863 18.6527C27.6197 18.7207 26.2116 18.8697 25.6261 18.9719C25.2427 19.0389 24.9077 19.1042 24.6779 19.2487C24.6013 19.2968 24.511 19.3323 24.4138 19.358M24.3253 19.0852C24.202 19.0971 24.0826 19.0884 23.9695 19.0674M24.3253 19.0852C24.2656 19.0465 24.1728 19.0235 24.0946 19.0393C24.0594 19.0464 24.0167 19.056 23.9695 19.0674M24.3253 19.0852C24.3265 19.086 24.3277 19.0868 24.329 19.0876C24.3884 19.1278 24.4109 19.1946 24.418 19.2602C24.4217 19.2936 24.42 19.3261 24.4138 19.358M23.9695 19.0674C23.6401 19.1469 23.0931 19.3151 23.3429 19.3678C23.5186 19.4048 24.0226 19.4612 24.4138 19.358M24.4138 19.358C24.3735 19.5637 24.143 19.7418 23.9264 19.9271M23.9264 19.9271C23.9039 19.9464 23.8814 19.9658 23.8594 19.9854C23.6181 20.199 23.1401 20.2545 22.8155 20.2735C22.773 20.276 23.1749 20.1272 23.9264 19.9271ZM23.9264 19.9271C24.2718 19.8352 24.6911 19.7324 25.175 19.6285C26.8227 19.2748 27.8234 19.3857 27.9016 19.4044C27.8995 19.4277 27.8127 19.4792 27.7279 19.508C27.6431 19.5368 27.5629 19.5415 27.3251 19.621M20.807 21.7439C21.033 21.7279 21.458 21.6747 22.7202 21.4856C23.8288 21.3195 25.8688 20.893 26.9722 20.6715C27.2149 20.6228 27.4249 20.5791 27.6096 20.5396M27.6096 20.5396C27.8297 20.4924 28.0141 20.451 28.1757 20.4138M27.6096 20.5396C27.5483 20.513 27.3941 20.5529 27.2154 20.5622C26.7537 20.5861 25.7506 20.7049 24.5957 20.7172C24.0657 20.7229 23.4956 20.816 23.1023 20.788C23.0011 20.7808 23.0857 20.7236 23.2517 20.6631C23.6493 20.5183 24.1171 20.3732 25.2744 20.3838C25.9668 20.3902 27.0224 20.418 28.1757 20.4138M27.6096 20.5396C27.6139 20.5414 27.6177 20.5436 27.621 20.5461C27.6372 20.5583 27.6513 20.5702 27.6633 20.5817M28.1757 20.4138C28.5526 20.3269 28.8051 20.2627 29.0966 20.2003C29.7584 20.0587 30.491 19.938 31.0391 19.8854C31.1775 19.8722 31.3558 19.8501 32.0336 19.8013C32.7114 19.7525 33.8834 19.6783 34.6419 19.6141C35.4005 19.5498 35.7101 19.4978 35.9097 19.4687C36.1093 19.4396 36.1896 19.4349 35.8735 19.5415C35.5574 19.648 34.8426 19.8659 33.6935 20.0436C32.5443 20.2213 30.9825 20.3522 29.3857 20.3959C29.1909 20.4013 28.9964 20.4053 28.8032 20.4081M28.1757 20.4138C28.2446 20.4135 28.3139 20.4132 28.3835 20.4127M28.8032 20.4081C28.6624 20.4102 28.5224 20.4117 28.3835 20.4127M28.8032 20.4081C28.8608 20.3456 28.8613 20.2981 28.8387 20.2835C28.8087 20.2641 28.7436 20.3155 28.4574 20.393C28.4329 20.3996 28.4083 20.4062 28.3835 20.4127M28.8032 20.4081C28.784 20.4289 28.7584 20.4514 28.7253 20.4749C28.0666 20.9421 27.7182 20.8329 27.6694 20.8904C27.468 21.1277 28.41 20.8031 28.8066 20.7373C28.9715 20.7045 29.1211 20.6768 29.258 20.6719C29.3303 20.6739 29.4083 20.6848 29.5426 20.6554M28.3835 20.4127C28.1511 20.4738 27.9068 20.5302 27.6633 20.5817M27.6633 20.5817C28.0827 20.9862 25.9575 20.9726 25.7056 20.9767C25.162 20.9854 26.4021 20.8487 27.6633 20.5817ZM43.4506 11.2279C43.4548 11.0848 43.4823 10.5448 43.4994 9.11778C43.5123 8.03621 43.4193 6.22912 43.3894 5.33049C43.3595 4.43185 43.3664 4.49646 43.4036 4.62994C43.4408 4.76342 43.5081 4.96382 43.689 6.51965C43.7345 6.91104 43.7871 7.38783 43.8428 7.90511M43.8428 7.90511C43.8492 7.96465 43.8557 8.02472 43.8622 8.08527M43.8428 7.90511C43.8409 8.09293 43.842 8.30188 43.8475 8.53401C43.8479 8.5527 43.8484 8.57152 43.8489 8.59047M43.8428 7.90511C43.8481 7.36781 43.8771 7.0034 43.8927 6.76353C43.9138 6.43981 43.9092 6.3596 43.8764 7.55515C43.8721 7.71172 43.8673 7.89021 43.8622 8.08527M43.8622 8.08527C44.0235 9.58965 44.207 11.383 44.3217 12.4148C44.4811 13.849 44.4986 13.7242 44.5317 12.5813C44.5648 11.4383 44.613 9.28106 44.6761 7.89666C44.7393 6.51227 44.8159 5.96611 44.849 5.78728C44.855 5.75474 44.8879 6.3634 44.9148 8.05095C44.9363 9.39969 44.8665 11.7488 44.8376 13.0056C44.8088 14.2625 44.7956 14.3561 44.8841 13.7255C44.9726 13.0949 45.1632 11.7373 45.3718 10.6477C45.5804 9.55811 45.8013 8.77761 45.9443 8.45123C46.0873 8.12485 46.1456 8.27624 46.1911 9.20769C46.2326 10.0585 46.2621 11.5563 46.2534 12.7911M43.8622 8.08527C43.858 8.24369 43.8535 8.41305 43.8489 8.59047M46.2534 12.7911C46.2526 12.9081 46.2515 13.0228 46.2499 13.1344C46.2355 14.1898 46.1879 14.9295 46.1588 15.347M46.2534 12.7911C46.2263 13.5463 46.1999 14.3892 46.1773 14.9386C46.1707 15.0999 46.1644 15.2357 46.1588 15.347M46.2534 12.7911C46.2659 12.4444 46.2785 12.1162 46.2911 11.8433C46.3308 10.9759 46.3681 10.7106 46.3796 10.6286C46.3911 10.5466 46.3758 10.6558 46.3826 11.287C46.3895 11.9181 46.4191 13.068 46.3851 14.0114C46.3774 14.225 46.3663 14.4262 46.3517 14.6119M46.1588 15.347C46.1524 15.4392 46.1468 15.5156 46.1428 15.5763C46.1248 15.8443 46.1365 15.7888 46.1588 15.347ZM46.3517 14.6119C46.3121 15.1122 46.246 15.5001 46.1463 15.714M46.3517 14.6119C46.3286 14.6263 46.2968 14.7292 46.2343 15.1557C46.2067 15.3444 46.177 15.5319 46.1463 15.714M46.3517 14.6119C46.3542 14.6103 46.3566 14.6097 46.3589 14.61C47.023 14.6695 46.6436 16.4159 46.6961 16.6735C46.7478 16.9267 46.9807 16.1922 47.0626 16.1789C47.1472 16.3728 47.2096 16.7359 47.2496 17.0231C47.2712 17.1009 47.2955 17.0407 47.4691 16.9513M46.1463 15.714C46.1195 15.7714 46.0904 15.8163 46.0587 15.8475C46.0333 15.8724 46.0083 15.8943 45.9836 15.9135M46.1463 15.714C46.0933 16.0278 46.0372 16.3259 45.9828 16.5878M45.9836 15.9135C45.9648 15.9281 45.9461 15.9411 45.9276 15.9525M45.9836 15.9135C45.9741 15.4199 45.9354 14.8413 45.8057 14.6664M45.9836 15.9135C45.9891 16.1975 45.9849 16.4533 45.9828 16.5878M45.9276 15.9525C45.8688 15.9888 45.8119 16.0092 45.7566 16.0155M45.9276 15.9525C45.9606 16.3297 45.9735 16.5214 45.9785 16.6081M45.9276 15.9525C45.9161 15.8208 45.9021 15.6665 45.8852 15.4861C45.863 15.2504 45.8357 14.9706 45.8057 14.6664M45.7566 16.0155C45.7284 16.0188 45.7006 16.0184 45.6733 16.0146M45.7566 16.0155C45.7341 15.6134 45.7057 15.1314 45.6751 14.6248M45.7566 16.0155C45.7604 16.0836 45.7641 16.1494 45.7675 16.2127C45.7959 16.7321 45.8111 17.0672 45.8189 17.2834M45.6733 16.0146C45.5605 15.9989 45.4554 15.9253 45.3574 15.8113M45.6733 16.0146C45.7013 16.2704 45.7263 16.5059 45.7462 16.7027C45.7749 16.9862 45.7931 17.1888 45.8047 17.333M45.6733 16.0146C45.6307 15.6266 45.5809 15.192 45.531 14.776M45.3574 15.8113C45.3191 15.7667 45.2819 15.7159 45.2458 15.66M45.3574 15.8113C45.3554 15.7933 45.3534 15.7753 45.3514 15.7572C45.3376 15.6306 45.3248 15.5019 45.313 15.3726M45.3574 15.8113C45.4492 16.6264 45.5832 17.3204 45.6851 17.563C45.7059 17.6126 45.7492 17.5218 45.8047 17.333M45.2458 15.66C45.0552 15.3653 44.8945 14.9282 44.7597 14.5027M45.2458 15.66C45.1726 15.9962 45.1067 16.3681 45.0369 16.7015C44.9844 16.9522 44.8377 15.253 44.7597 14.5027M45.2458 15.66C45.2674 15.5604 45.2898 15.464 45.313 15.3726M44.7597 14.5027C44.7424 14.4482 44.7256 14.3938 44.7092 14.34M44.7597 14.5027C44.7291 14.2084 44.7091 14.06 44.7095 14.2326C44.7096 14.2682 44.7095 14.3041 44.7092 14.34M44.7092 14.34C44.6013 13.9865 44.5114 13.6552 44.4373 13.4379C44.2818 12.9819 44.1719 12.417 44.063 11.5263C43.9565 10.6542 43.8723 9.48037 43.8489 8.59047M44.7092 14.34C44.6995 15.3825 44.5191 16.5348 44.5128 16.4143C44.4317 14.874 44.4416 13.4836 44.4245 13.6234C44.2621 14.9519 44.039 15.9947 44.0011 15.8256C43.9021 15.3836 43.8223 14.7568 43.6566 14.2254M43.8489 8.59047C43.8157 9.86258 43.7723 11.5491 43.7384 12.5924C43.6939 13.9604 43.6677 14.1476 43.6585 14.2129C43.6578 14.218 43.6572 14.2223 43.6566 14.2254M43.6566 14.2254C43.6546 14.2358 43.6529 14.2324 43.648 14.1982M43.6566 14.2254C43.6538 14.2163 43.6509 14.2072 43.648 14.1982M43.648 14.1982C43.6358 14.1123 43.6038 13.8317 43.4984 13.0865C43.3386 11.9572 43.0101 9.76297 42.8425 8.39417C42.6749 7.02537 42.6782 6.54847 42.5944 6.91137C42.5107 7.27428 42.3399 8.49143 42.2596 9.06384C42.1946 9.52701 42.2123 8.38046 42.1986 6.87511C42.1954 6.52303 42.0805 7.698 42.0357 9.21927C42.0254 9.5704 42.0843 9.50864 42.1753 10.1111C42.2559 10.6451 42.3577 11.6493 42.4091 12.3875C42.4711 13.2777 42.4687 13.7547 42.4545 14.0167M43.648 14.1982C43.5934 14.0271 43.5296 13.8666 43.453 13.726M42.4545 14.0167C42.4521 14.0607 42.4494 14.0986 42.4466 14.1314M42.4545 14.0167C42.4516 14.0603 42.4489 14.0983 42.4466 14.1314M42.4545 14.0167C42.4653 13.8543 42.4798 13.6138 42.4994 13.259C42.5561 12.2317 42.6604 10.2414 42.7144 9.32753C42.7684 8.41367 42.7689 8.63651 42.9677 10.1715C43.0861 11.0859 43.2749 12.4637 43.453 13.726M42.4466 14.1314C42.4343 14.2756 42.4204 14.3208 42.4261 14.3466C42.4271 14.3511 42.4322 14.3315 42.4466 14.1314ZM43.453 13.726C43.4965 14.0343 43.5394 14.3356 43.5804 14.6217M43.453 13.726C43.4282 13.6804 43.402 13.6369 43.3743 13.5958C43.3632 13.5793 43.3529 13.568 43.3432 13.5617M43.5804 14.6217C43.6534 15.1305 43.7207 15.5908 43.7756 15.9553C43.9878 17.3638 44.0031 17.2546 43.9375 16.7584C43.8249 15.9071 43.6922 15.1682 43.5804 14.6217ZM43.5804 14.6217C43.5109 14.2821 43.4496 14.0168 43.4061 13.845C43.3838 13.7569 43.3628 13.6598 43.3432 13.5617M43.3432 13.5617C43.3043 13.3661 43.2715 13.1666 43.2475 13.0274C43.2005 12.7544 43.1628 13.9553 43.1058 15.9078C43.0858 16.5923 43.0747 16.6547 43.0868 16.6255C43.1472 16.4791 43.1841 15.5384 43.2268 14.2034C43.2416 13.7406 43.2732 13.5161 43.3432 13.5617ZM45.313 15.3726C45.3766 15.1228 45.4473 14.9108 45.531 14.776M45.313 15.3726C45.247 14.6462 45.214 13.9025 45.2084 13.4125C45.2019 12.8354 45.2326 12.6169 45.3476 13.3742C45.3986 13.7097 45.465 14.2268 45.531 14.776M45.531 14.776C45.5408 14.7602 45.5507 14.7454 45.5609 14.7318C45.6029 14.6756 45.6409 14.641 45.6751 14.6248M45.6751 14.6248C45.7265 14.6004 45.7696 14.6178 45.8057 14.6664M45.6751 14.6248C45.6006 13.3927 45.513 12.0158 45.4647 11.2927C45.3932 10.2218 45.4075 10.5739 45.5086 11.6566C45.5857 12.4807 45.7099 13.6972 45.8057 14.6664M45.9828 16.5878C45.9822 16.6245 45.9817 16.6522 45.9817 16.669C45.9817 16.6723 45.9814 16.6567 45.9785 16.6081M45.9828 16.5878C45.9814 16.5946 45.9799 16.6013 45.9785 16.6081M45.9785 16.6081C45.9214 16.8815 45.8663 17.1145 45.8189 17.2834M45.8189 17.2834C45.8313 17.6269 45.8253 17.6703 45.8244 17.6761C45.8235 17.6825 45.8293 17.6412 45.8047 17.333M45.8189 17.2834C45.8141 17.3006 45.8093 17.3171 45.8047 17.333M50.2623 10.4481C50.2894 10.5951 50.3166 10.7421 50.3239 11.7716C50.3313 12.8012 50.3182 14.7088 50.2874 15.8631C50.2565 17.0175 50.2083 17.3608 50.0667 16.2721C49.9251 15.1835 49.6916 12.6526 49.582 11.1593C49.4724 9.66603 49.4937 9.28714 49.4658 9.14219C49.438 8.99725 49.3602 9.09772 49.1644 10.146C48.9686 11.1942 48.657 13.1872 48.5799 13.6767C48.5028 14.1661 48.6695 13.0916 48.8249 12.2693C49.0833 10.9024 49.3114 10.2356 49.3896 10.0218C49.4232 9.92999 49.4279 9.86616 49.3931 11.0776C49.3583 12.289 49.2798 14.7761 49.2325 15.9928C49.1852 17.2094 49.1715 17.0802 48.9841 16.6542C48.7968 16.2282 48.4363 15.5093 48.1955 14.9642C48.1699 14.9063 48.1457 14.8502 48.1227 14.7959M48.1227 14.7959C47.7971 14.0264 47.7288 13.6209 47.7597 13.5051C47.7925 13.382 48.0249 13.4452 48.1296 13.4994C48.1697 13.5605 48.1834 13.6897 48.1635 14.1185C48.1551 14.2988 48.1407 14.5314 48.1227 14.7959ZM48.1227 14.7959C48.0979 15.1604 48.0663 15.5855 48.0341 16.018M50.9036 7.5968C50.9348 7.60118 51.0511 8.47674 51.2136 10.5175C51.3064 11.6829 51.2973 13.12 51.2438 14.3753C51.2305 14.6878 51.2125 14.9866 51.192 15.2665M51.192 15.2665C51.1316 16.0944 51.0497 16.7575 51.0042 17.1262L51.0015 17.1476C50.9417 17.6324 50.9548 17.5388 51.0944 16.2044C51.1225 15.9352 51.1558 15.6155 51.192 15.2665ZM51.192 15.2665C51.3354 13.8856 51.5251 12.0446 51.6264 11.0429C51.7533 9.78798 51.7336 9.92842 51.7113 10.4844C51.6889 11.0403 51.6646 12.0075 51.5558 13.2481C51.447 14.4887 51.2546 15.9733 51.0563 17.5029M50.1081 16.3573C50.0615 16.4626 49.9409 16.8613 50.057 17.401C50.0857 17.534 50.1508 17.6468 50.2052 17.7198C50.295 17.8403 50.5223 17.8619 50.7696 17.8728C51.0951 17.887 51.3381 17.4325 51.5489 17.1948C51.7398 16.9795 51.9032 18.0991 52.0689 18.5281C52.1434 18.6825 52.2206 18.8231 52.3596 18.9149C52.4584 18.9534 52.6144 18.9753 52.7752 18.9978M52.8283 18.6195C52.8788 18.2597 53.0475 17.5114 53.2337 17.2149C53.4432 16.8816 53.6734 16.7139 53.9038 16.5052C54.1588 16.2741 54.5344 15.9524 54.8686 15.7563C55.1711 15.5788 55.5398 15.4329 56.062 15.2012C56.5545 14.9827 57.0875 14.9428 57.8041 14.7875C59.2071 14.4836 60.1913 14.3653 60.3404 14.3301C60.7069 14.2435 61.1015 14.2838 61.4777 14.2406C62.0642 14.1733 62.6183 14.1273 62.97 14.1444C63.3832 14.1644 64.0955 13.9981 64.7417 13.8872C65.0631 13.8321 65.4219 13.7339 65.8117 13.6514C65.9023 13.6398 65.9825 13.6351 66.0573 13.6215C66.132 13.6079 66.1988 13.5854 66.4161 13.5349M43.0101 5.09065C42.8852 5.29638 42.6778 6.08408 42.587 6.73072C42.5598 6.92483 42.5707 6.84681 42.5684 6.74981C42.5581 6.31261 42.5885 5.80587 42.6657 5.30921C42.73 4.89558 43.0841 4.55618 43.2338 4.29535C43.4004 4.00509 43.8426 3.95479 44.2236 3.93498C44.7807 3.90602 45.2346 5.03061 45.5377 5.50784C45.7684 5.87108 45.97 6.43523 46.2009 7.18825C46.4949 8.14712 46.5554 8.80196 46.5894 9.01479C46.6409 9.33675 46.7811 10.162 46.8448 11.2547C46.9079 12.3382 46.782 12.9144 46.7647 13.3231C46.7429 13.6501 46.7086 14.125 46.6659 14.714C46.6409 14.9506 46.5884 15.3251 46.5342 15.711M44.1906 4.58127C44.2921 4.77152 44.3916 5.09021 44.6892 6.15252C44.7382 6.32751 44.7928 6.53089 44.8507 6.75282M44.8507 6.75282C45.0929 7.6811 45.3925 8.93377 45.5822 9.78908C45.8173 10.8489 45.8562 11.2521 45.8659 11.363C45.8757 11.4738 45.8552 11.28 45.564 10.3451C45.2728 9.4103 44.7116 7.74034 44.4134 6.83105C44.0845 5.82785 44.0873 5.66037 44.1307 5.57797C44.1493 5.54261 44.2256 5.58237 44.2812 5.64611C44.3862 5.81224 44.5152 6.04011 44.8233 6.68969C44.8322 6.71013 44.8414 6.73119 44.8507 6.75282ZM44.8507 6.75282C45.0826 7.2891 45.4485 8.18625 45.8564 9.2029M45.2491 3.91014C45.3523 3.97235 45.6491 4.36552 46.0974 5.29564C46.3434 5.8061 46.4229 6.1722 46.5099 6.57292L46.5124 6.58465C46.7072 7.37673 46.7616 7.67318 46.879 8.26731C46.9011 8.4006 46.9079 8.4652 46.9083 8.57906M51.9057 5.95338C51.7358 6.13687 51.5388 6.62323 51.4518 7.01292C51.2768 7.79664 51.066 8.50102 50.9614 8.96129C50.85 9.45121 50.7263 10.2345 50.5888 10.9872C50.5473 11.2143 50.4765 11.1069 50.4298 10.9796C50.2115 10.3848 50.016 9.80502 49.9293 8.64647C49.9278 8.62534 49.9264 8.60452 49.9252 8.58402M49.9252 8.58402C49.8693 7.6375 50.2017 7.34721 50.3779 6.98612C50.5719 6.58855 51.0033 6.29541 51.2376 6.13276C51.5777 5.89665 50.701 6.98589 50.4964 7.4097C50.2876 7.84219 50.0734 8.31968 49.9252 8.58402ZM49.9252 8.58402C49.8795 8.6654 49.8401 8.72658 49.809 8.76001C49.7473 8.82641 49.6545 8.83525 49.6008 8.81229C49.5247 8.72253 49.4657 8.56911 49.4256 8.33951C49.4214 8.1945 49.4499 7.99164 49.4792 7.78264M52.357 5.48632C52.4314 5.64044 52.5758 5.98185 52.7177 6.347C52.9685 6.99251 53.0489 7.65486 53.0395 7.95178C53.0345 8.10959 53.1123 8.80074 53.0936 10.1359C52.9329 11.6899 52.789 12.6022 52.7466 12.7325C52.7286 12.8025 52.7176 12.8805 52.7063 12.9609M52.0708 7.18201C52.1749 7.58091 52.2934 8.11106 52.5265 9.3068C52.63 9.83741 52.6985 10.9414 52.7076 11.6339C52.7088 11.7219 52.7035 11.8332 52.604 12.6006C52.5045 13.368 52.3052 14.788 52.1849 15.5887C51.9381 17.0601 51.7939 17.9748 51.736 18.2153C51.7113 18.3331 51.6959 18.4423 51.6329 18.5482M51.8883 7.10817C51.8839 7.13938 51.851 7.37392 51.7974 7.98239C51.7145 8.9244 51.7194 9.6863 51.6778 10.1528C51.618 11.4393 51.5405 12.1049 51.5299 12.352C51.5213 12.472 51.5059 12.5812 51.4901 12.6938M52.9759 7.26081C52.9605 7.37052 53.0128 8.81186 53.0006 9.89023C52.9918 10.6605 52.8047 11.7992 52.7992 12.241C52.7946 12.6009 52.7298 13.1368 52.6825 13.7592C52.6646 13.9951 52.638 14.2474 52.5663 14.9262L52.5645 14.9437C52.362 16.445 52.1756 17.5462 52.0941 17.7833C52.0613 17.9 52.046 18.0092 52.0302 18.1218" stroke="#346F51" stroke-width="3" stroke-linecap="round"/>
<path d="M37.5468 18.331C37.5512 18.2995 37.6027 18.1617 37.7132 17.9503C37.804 17.7766 38.2686 17.5586 38.9952 17.2232C39.7309 16.8836 40.5707 16.874 41.5012 16.8669C42.0429 16.8627 42.7244 16.949 43.0408 17.0009C43.3572 17.0529 43.2875 17.0913 43.1921 17.1348C42.9801 17.2316 42.3872 17.402 41.5325 17.6063C40.8644 17.7659 40.138 17.817 39.4212 17.9596C38.6891 18.1051 38.418 18.1447 37.7167 18.1838C36.8252 18.2334 36.3091 18.3681 36.2068 18.3459C36.1052 18.3239 36.1646 18.1214 36.2072 17.9899C36.2589 17.83 36.5502 17.6732 36.9722 17.4895C37.4454 17.2836 38.0501 17.2665 39.0627 17.2952C39.7686 17.3152 40.8585 17.4659 41.6379 17.5266C42.4172 17.5873 42.8514 17.584 43.1245 17.5732C43.3976 17.5624 43.4966 17.5441 42.7649 17.6176C42.0331 17.6912 40.4678 17.857 39.6029 17.9583C38.3965 18.0996 38.0804 18.4692 37.8266 18.5974C37.7281 18.6471 37.7877 18.3492 37.7684 18.2572C37.7602 18.2177 37.6752 18.2351 37.6056 18.2658C37.2669 18.4151 37.0984 19.4451 37.111 20.0454C37.113 20.1395 37.1467 20.2521 37.1459 20.2617C37.084 20.9519 36.4003 18.6413 36.3481 18.6089C35.9973 18.3911 36.2359 19.4584 36.3029 19.9073C36.3607 20.295 36.5287 20.6045 36.7105 20.8738C36.8675 21.1066 37.1371 21.1289 37.2485 21.145C37.2936 21.1516 37.2831 21.0219 37.2547 20.9361C37.1988 20.7672 37.0622 20.6326 36.9272 20.5002C36.7734 20.3494 36.3952 20.3112 36.0327 20.2924C35.9059 20.2859 35.8977 20.3699 35.9338 20.4562C36.1004 20.855 36.3936 20.9915 36.611 21.1765C36.968 21.4804 37.6693 21.4957 38.0341 21.6119C38.3097 21.6996 38.6169 21.7912 39.0484 21.8922C40.0592 22.1287 40.5299 22.0276 41.015 21.9903C41.4335 21.9581 41.8958 21.8951 42.3146 21.8643C42.7334 21.8335 43.1228 21.8239 44.1676 21.7929C44.9685 21.7691 46.5046 21.6872 47.4107 21.6333C48.9593 21.5411 49.4764 21.5308 49.7588 21.5459C50.1239 21.5653 50.5422 21.5665 50.8977 21.576C51.5578 21.5936 51.912 21.6293 52.3049 21.6114C52.6126 21.5974 53.0045 21.475 53.5024 21.2851C53.8791 21.1415 54.498 21.0031 55.0294 20.8099C55.2021 20.7471 55.3245 20.6805 55.3758 20.6067C55.4932 20.4375 54.926 20.5267 54.5925 20.5929C53.9637 20.7176 53.5661 20.7409 52.5976 20.8398C52.2538 20.8749 51.8323 20.886 51.0508 20.8578C50.2694 20.8297 49.1398 20.7515 48.5175 20.7136C47.6526 20.6608 47.0421 20.6528 46.484 20.6236C45.6372 20.5793 45.0606 20.5372 44.4911 20.4899C44.0664 20.4547 43.3694 20.462 42.5381 20.4424C41.439 20.4166 40.7969 20.4091 40.2228 20.3777C39.4722 20.3366 38.8947 20.3047 38.5006 20.274C38.3309 20.2607 38.1345 20.2793 37.9417 20.3248C37.7623 20.367 37.7594 20.6316 37.7529 20.7926C37.74 21.1094 37.9674 21.3418 38.1775 21.5183C38.4175 21.72 38.8546 21.4848 39.6273 21.3986C40.3857 21.3139 41.193 21.2284 41.7777 21.2214C42.0092 21.2186 42.108 21.1947 42.9284 21.1969C43.7488 21.1992 45.2876 21.2224 46.122 21.2241C47.2071 21.2263 47.5055 21.1247 47.8469 21.059C48.2062 20.9898 48.8022 20.8852 49.4276 20.8189C50.3289 20.7233 51.3286 20.5904 51.6624 20.5236C52.1737 20.4212 52.4865 20.088 52.6401 19.8662C52.6772 19.8126 52.6505 19.7381 52.584 19.6957C52.4138 19.5872 52.0949 19.5458 51.642 19.3771C50.9667 19.1255 50.103 18.8451 49.2057 18.4924C48.3058 18.1386 47.6958 18.0517 47.4668 18.0115C46.6222 17.8633 45.4396 17.7185 44.781 17.7879C44.3194 17.8366 43.8658 17.9513 42.7758 18.0984C42.4471 18.1427 41.7271 18.1861 40.7484 18.2838C39.7243 18.3861 38.6031 18.5601 38.3889 18.6919C38.0903 18.8756 39.2847 18.9965 40.4404 19.2397C40.9426 19.3454 41.3673 19.5321 42.0101 19.671C42.9933 19.8835 43.7978 19.9064 44.1404 19.8897C44.39 19.8776 44.6029 19.8407 45.3322 19.75C45.9508 19.6731 47.0666 19.4792 47.8471 19.415C49.663 19.2655 50.1585 19.4521 50.1393 19.4813C49.9522 19.7659 48.8403 19.768 47.6461 19.9005C47.0303 19.9689 46.6516 19.9491 45.1668 19.8619C43.8912 19.787 41.5644 19.5257 40.3163 19.4082C38.7631 19.262 38.4566 19.2536 38.4644 19.2469C38.532 19.1884 38.814 19.2079 39.4615 19.2576C41.1396 19.3865 42.2532 19.5917 42.3555 19.6706C42.4097 19.7123 42.4175 19.808 42.3944 19.8622C42.2614 20.1731 41.7335 20.1837 41.6321 20.2104C41.6142 20.2151 41.6723 20.1445 41.655 20.1009C41.6066 19.9787 41.1511 19.9564 40.7403 19.8747C40.7142 19.7987 41.2474 19.6793 42.2043 19.5464C42.716 19.4956 43.2806 19.4784 43.9578 19.4742" stroke="#346F51" stroke-width="2" stroke-linecap="round"/>
<path d="M40.8846 43.7692C42.6978 43.571 46.371 43.3728 48.7864 43.2975C51.4166 43.1731 55.1963 43.0747 55.8978 42.8758C56.0601 42.8258 56.22 42.7766 56.3846 42.5769" stroke="#942323" stroke-linecap="round"/>
<path d="M26.5769 59.4842C27.049 60.1146 27.9956 61.3706 28.9066 62.3648C29.7384 63.2724 30.9991 64.2192 32.463 65.2075C33.8224 66.1253 34.7191 66.8261 35.903 67.3819C37.606 68.1813 38.9089 68.4092 40.1343 68.7256C41.6596 69.1194 42.9421 69.3572 44.2066 69.6345C45.0533 69.8201 45.7914 69.753 47.6739 69.8715C55.896 70.389 57.4899 69.2055 59.3084 68.7683C62.1166 68.093 63.0272 66.9115 65.1197 65.7312C68.1835 64.0032 69.4328 62.0958 71.173 59.7697C71.8883 58.3822 72.4435 57.3536 72.6012 56.8808C72.6807 56.6427 72.759 56.408 73.0769 55.6923" stroke="#942323" stroke-linecap="round"/>
<path d="M57.9078 40.1604C57.8772 40.1604 57.8155 40.1757 57.7306 40.2295C57.5173 40.3647 57.5524 40.7004 57.5443 41.88C57.541 42.3588 57.6294 42.6638 57.7141 42.897C57.7903 43.1068 57.7992 43.3607 57.8612 43.5927C57.927 43.8394 57.9848 44.0872 58.0391 44.3656C58.1134 44.7465 58.124 44.9381 58.1704 45.4317C58.2163 45.92 58.3559 46.175 58.4255 46.4227C58.5043 46.703 58.5721 47.0101 58.7037 47.2578C58.8367 47.5084 59.0203 47.6447 59.2138 47.7995C59.4259 47.9691 59.8387 48.0159 60.5722 48.163C61.3265 48.3142 61.7093 48.233 62.2886 48.2715C63.7961 48.3717 64.1376 48.233 64.5248 48.1945C65.342 48.1132 65.6538 48.1096 65.9405 48.0553C66.4352 47.9617 66.8749 47.9398 67.2242 47.8312C67.5156 47.7407 67.8965 47.6614 68.2294 47.6222C68.4559 47.5956 68.6703 47.5529 68.91 47.4524C69.1682 47.3442 69.3969 47.2903 69.6755 47.1664C69.8971 47.0679 70.1392 46.9349 70.3793 46.7876C70.594 46.6558 70.6811 46.4246 70.8126 46.1926C70.9483 45.9532 71.0828 45.6832 71.1455 45.4115C71.2 45.175 71.3306 44.8175 71.4083 44.5224C71.4696 44.2898 71.5013 43.9211 71.5475 43.6254C71.5938 43.3286 71.6711 43.0536 71.6946 42.2976C71.7023 42.0477 71.7333 41.6176 71.695 41.0611C71.6808 40.8537 71.5802 40.8108 71.4948 40.7872C71.157 40.6935 70.8379 40.6865 69.5887 40.6631C69.1986 40.6558 68.9204 40.6243 68.6346 40.6167C67.9022 40.5971 66.8164 40.5473 66.5074 40.493C66.2619 40.4499 66.0129 40.4388 65.6341 40.4003C65.1786 40.354 64.8994 40.3154 64.6359 40.2919C64.2954 40.2617 63.8323 40.2226 62.4598 40.1991C62.1298 40.1935 61.3943 40.1604 60.3045 40.2063C59.9014 40.2233 59.8118 40.3441 59.7492 40.4144C59.5781 40.6064 59.5937 40.9166 59.5856 42.189C59.5822 42.7279 59.7162 43.189 59.8021 43.5613C59.8823 43.9095 59.9482 44.4398 60.0493 44.9376C60.1231 45.3005 60.2117 45.5718 60.289 45.7658C60.3982 46.0399 60.9995 45.8975 61.4781 45.9518C61.7541 45.9831 62.0049 45.975 62.5117 45.9982C63.5993 46.048 64.448 45.9908 64.6874 45.9676C65.0666 45.9308 65.5304 45.8669 65.8786 45.8284C66.195 45.7934 66.8109 45.7741 67.4247 45.6818C67.7711 45.6297 68.0672 45.4809 68.3377 45.3879C68.6203 45.2907 68.8401 45.0791 69.0264 44.9318C69.1839 44.8073 69.2428 44.4769 69.2897 44.1747C69.349 43.7921 69.3978 43.4563 69.383 42.5838C69.3801 42.4156 69.2911 42.4031 69.2289 42.3952C68.9821 42.3639 68.6425 42.3103 67.4233 42.2869C66.7861 42.2746 66.075 42.2175 65.7343 42.1941C65.27 42.1622 64.8066 42.1247 63.8038 42.1013C63.2743 42.0889 62.6892 42.0013 62.0622 41.9621C61.8973 41.9518 61.6676 41.9234 61.3586 41.9464C61.2316 41.9558 61.1721 42.0152 61.1176 42.1001C60.8191 42.565 60.8 43.2048 60.8072 43.5616C60.8085 43.6283 60.8761 43.6548 60.9304 43.6706C61.1772 43.7423 61.6778 43.7328 62.5519 43.8483C62.8224 43.884 62.9796 43.8873 63.5623 43.9105C64.0834 43.9312 65.0636 43.9183 65.6526 43.903C66.8459 43.872 67.4947 43.7949 67.7501 43.7715C67.8199 43.7639 67.8965 43.7485 67.9742 43.7407C68.0519 43.7328 68.1285 43.7328 68.2073 43.7328" stroke="#962A2A" stroke-opacity="0.66" stroke-width="3" stroke-linecap="round"/>
<path d="M24.6451 40.241C24.592 40.2587 24.4853 40.3298 24.3827 40.3833C24.2737 40.4403 24.209 40.5965 24.1243 40.9515C23.9274 41.7765 24.155 41.9418 24.1907 42.1333C24.223 42.3065 24.2528 42.5201 24.2754 42.6992C24.2935 42.8425 24.3154 42.9841 24.3377 43.313C24.3618 43.6686 24.4313 43.9099 24.4757 44.1776C24.5007 44.3287 24.5292 44.4716 24.5427 44.6678C24.5532 44.8208 24.6179 44.997 24.6584 45.1801C24.696 45.3504 24.8231 45.4519 24.912 45.5633C25.0125 45.6894 25.0904 45.7726 25.1837 45.853C25.3081 45.9604 25.5169 46.1019 25.6647 46.2271C25.7847 46.3287 25.9536 46.4049 26.1675 46.5299C26.4471 46.6931 26.6041 46.7347 26.8402 46.8151C27.0326 46.8807 27.2546 46.9758 27.3839 47.0112C27.6033 47.0712 27.8773 47.2243 28.1718 47.3317C28.4243 47.4239 28.5465 47.4654 28.7467 47.5367C28.9024 47.5922 29.0275 47.6081 29.2277 47.6438C29.3129 47.6589 29.4899 47.6883 29.9198 47.715C30.6393 47.7597 31.13 47.7329 31.2277 47.7463C31.449 47.7765 31.8401 47.7775 32.2605 47.8219C32.5544 47.8529 32.768 47.8577 32.9605 47.8843C33.0459 47.8961 33.1256 47.92 33.5715 47.9333C33.9819 47.9456 34.767 47.9379 35.1978 47.9335C35.8086 47.9272 36.091 47.8133 36.4475 47.7377C36.671 47.6903 36.9024 47.5995 37.0451 47.5195C37.1739 47.4472 37.2856 47.3857 37.4148 47.3013C37.5278 47.2275 37.6154 47.119 37.7311 46.9319C37.8365 46.7616 37.9805 46.6198 38.0787 46.544C38.1737 46.4707 38.2301 46.3173 38.3014 46.1835C38.4051 45.9892 38.453 45.8362 38.5108 45.6979C38.5686 45.5598 38.64 45.3995 38.7201 45.2481C38.7983 45.1002 38.9335 44.7597 38.9742 44.4378C38.9924 44.2941 39.0142 44.1702 39.0676 43.8902C39.1156 43.6388 39.1302 43.3695 39.1568 43.1991C39.1899 42.9866 39.2189 42.6832 39.2637 42.531C39.3125 42.365 39.3525 42.2192 39.3751 42.0856C39.3995 41.9416 39.4242 41.7831 39.4507 41.6225C39.5146 41.2366 39.4688 40.7223 39.4378 40.6779C39.4214 40.6544 39.3803 40.651 38.758 40.6464C38.1357 40.6419 36.9275 40.6419 36.2742 40.6463C35.6209 40.6507 35.5592 40.6595 35.3951 40.6641C34.9665 40.676 34.6321 40.6774 34.0711 40.6908C33.572 40.7027 32.637 40.6954 32.1246 40.6998C31.6121 40.7042 31.5504 40.713 31.2584 40.7175C30.9664 40.7221 30.4461 40.7221 30.156 40.7177C29.7317 40.7112 29.5546 40.6777 29.2387 40.6642C28.9835 40.6533 28.7175 40.6243 28.1395 40.6108C27.9597 40.6066 27.8615 40.5885 27.7682 40.584C27.6654 40.5792 27.2765 40.5617 26.7555 40.5573C26.5428 40.5555 26.4453 40.535 26.3252 40.5394C26.2481 40.5422 26.1955 40.5882 26.151 40.6415C26.0608 40.7496 26.0707 40.9706 26.066 41.5039C26.0639 41.7472 26.1059 41.906 26.1194 42.0578C26.1338 42.2191 26.177 42.4491 26.2174 42.6678C26.2947 43.087 26.4443 43.7324 26.4757 43.8839C26.5167 44.0818 26.6223 44.1782 26.707 44.3027C26.8427 44.5022 27.0317 44.508 27.2145 44.588C27.4326 44.6835 27.6907 44.7309 28.0903 44.8549C28.2916 44.9173 28.6293 44.9789 28.9254 45.0328C29.2216 45.0868 29.4685 45.1221 29.6619 45.1623C29.8552 45.2026 29.9875 45.2466 30.2453 45.3002C30.503 45.3538 30.8823 45.4156 31.2143 45.4474C31.8178 45.5052 32.1808 45.488 32.354 45.5013C32.5531 45.5167 32.7509 45.5235 33.0874 45.5502C33.335 45.5699 33.7413 45.5593 33.99 45.5505C34.3189 45.5388 34.5498 45.4971 34.8563 45.4661C35.4022 45.4108 35.6634 45.337 35.838 45.27C35.9962 45.2094 36.2075 45.0788 36.4344 44.963C36.6943 44.8303 36.9724 44.5903 37.1921 44.2642C37.3297 44.06 37.3572 43.788 37.4373 43.4758C37.4626 43.3771 37.4732 43.2706 37.4379 43.1505C37.4208 43.0921 37.3321 43.0744 37.1238 43.0432C36.9155 43.0119 36.5715 42.9766 35.2302 42.9584C33.8888 42.9403 31.5605 42.9403 30.3214 42.9359C29.0823 42.9314 29.0029 42.9226 28.9136 42.9181C28.5566 42.9047 28.3252 42.8868 28.001 42.8646C27.8457 42.8601 27.5988 42.8601 27.3444 42.8601" stroke="#962A2A" stroke-opacity="0.66" stroke-width="3" stroke-linecap="round"/>
<path d="M23 40.5618C23 42.0525 23.1816 44.5282 23.5945 45.8084C23.9913 47.0391 25.1962 47.7956 26.2984 48.2828C27.5107 48.8187 29.1372 49.2096 31.3815 49.5194C36.1586 50.1788 37.3054 49.1248 38.3168 48.684C39.4062 48.2091 39.6942 46.6571 40.0616 45.5966C40.4291 44.5362 40.6134 43.1302 40.8419 41.6275C40.9216 41.103 40.8887 40.3129 40.7524 39.8204C40.6162 39.3279 40.3437 39.1531 37.4788 39.0631C34.6139 38.9731 29.1647 38.9731 26.3122 39.1041C23.4596 39.2352 23.3688 39.4974 23.2752 40.0322" stroke="#942323" stroke-linecap="round"/>
<path d="M73.0769 40.5618C73.0769 42.0525 72.9074 44.5282 72.5221 45.8084C72.1517 47.0391 71.0271 47.7956 69.9984 48.2828C68.8669 48.8187 67.3489 49.2096 65.2541 49.5194C60.7955 50.1788 59.7252 49.1248 58.7812 48.684C57.7645 48.2091 57.4956 46.6571 57.1527 45.5966C56.8098 44.5362 56.6377 43.1302 56.4245 41.6275C56.3501 41.103 56.3808 40.3129 56.508 39.8204C56.6351 39.3279 56.8894 39.1531 59.5634 39.0631C62.2373 38.9731 67.3232 38.9731 69.9856 39.1041C72.6479 39.2352 72.7327 39.4974 72.82 40.0322" stroke="#942323" stroke-linecap="round"/>
<path d="M48.0083 53.4244C48.1367 53.4244 48.4598 53.4244 48.9454 53.5208C49.4467 53.6202 49.6296 54.201 49.759 54.5893C49.8884 54.9776 49.9546 55.3688 49.7619 55.7571C49.5692 55.9527 49.1839 56.1454 48.7927 56.2447C48.4014 56.3439 48.0161 56.3439 47.619 56.3439" stroke="#942323" stroke-linecap="round"/>
<path d="M29.0009 44.8846C29.2879 44.4771 29.8159 43.9023 30.6447 43.1799C31.036 42.8388 31.8802 42.7698 32.9881 42.7327C33.8789 42.8881 34.5057 43.1052 34.6975 43.1651C34.7942 43.2012 34.8894 43.2488 35.0596 43.3699" stroke="#712626" stroke-opacity="0.47" stroke-linecap="round"/>
<path d="M62.324 43.4421C63.0424 43.2026 63.8603 43.0093 65.2387 42.8896C66.1581 42.8097 66.8659 42.9841 67.2381 43.2001C67.4912 43.3685 67.6607 43.5373 67.8165 43.7291C67.9009 43.8258 67.9961 43.921 68.0942 44.1634" stroke="#712626" stroke-opacity="0.47" stroke-linecap="round"/>
</svg>
