<svg width="85" height="77" viewBox="0 0 85 77" fill="none" xmlns="http://www.w3.org/2000/svg">
<path d="M42.5 13.924C54.0394 13.924 64.4484 17.4515 71.9502 23.1067C79.4514 28.7614 84 36.4983 84 44.9621C84 53.426 79.4514 61.1629 71.9502 66.8176C64.4484 72.4727 54.0394 76.0002 42.5 76.0002C30.9606 76.0002 20.5516 72.4727 13.0498 66.8176C5.54861 61.1629 1.00003 53.426 1 44.9621C1 36.4983 5.54863 28.7614 13.0498 23.1067C20.5516 17.4515 30.9606 13.924 42.5 13.924Z" fill="#AF6666" stroke="#BD7373" stroke-width="2"/>
<path d="M44.4186 15.5381C43.9541 15.6082 43.301 15.729 42.5878 15.8274C40.6013 16.1014 39.0199 16.0662 38.1479 16.0869C37.9049 16.0926 37.6697 16.0885 37.4429 16.0764C37.3732 16.0893 37.3021 16.1028 37.2295 16.1171C36.0352 16.3513 35.0857 16.4961 34.475 16.2421C34.2364 16.1428 33.9997 16.0105 33.7602 15.9077C33.426 15.9073 33.0475 15.8818 32.8515 15.8456C32.734 15.824 32.8751 15.7647 33.0067 15.7521C33.2644 15.7274 33.5138 15.8019 33.7602 15.9077C34.2009 15.9082 34.5645 15.8649 34.3305 15.7442C33.9715 15.5591 33.0056 15.6275 32.9751 15.1529C32.9568 14.8687 32.9849 14.5527 33.1735 14.4305C33.2646 14.3714 33.3942 14.3594 33.5189 14.3895C33.6436 14.4197 33.7953 14.4826 33.8069 14.5955C33.8318 14.8382 33.7401 15.2183 33.9859 15.2941C34.5844 15.4786 35.7932 15.9883 37.4429 16.0764C39.732 15.6524 40.4795 15.9291 41.3658 15.764C42.2935 15.5912 43.5317 15.5433 44.4186 15.5381Z" fill="#AF6666"/>
<path d="M49.0205 12.8469C49.33 12.5876 49.6246 12.3444 49.8019 12.2009C50.2749 11.818 51.0873 11.7086 51.9308 11.5726C52.5231 11.4772 53.2056 11.4681 53.786 11.4652C54.0175 11.4032 54.2401 11.3435 54.4496 11.287C55.4924 11.0053 57.4856 10.509 56.9467 10.6506C56.7272 10.7083 56.384 10.8021 56.0933 10.9416C55.8282 11.0687 55.5932 11.2148 55.3752 11.3732C55.7901 11.3167 56.2397 11.2362 56.741 11.1199C57.0347 11.0517 57.3037 11.0081 57.5596 10.9829C58.1887 10.8475 59.621 10.4085 59.6127 10.6095C59.9138 10.4889 60.183 10.4191 60.4196 10.5132C60.5259 10.5555 60.6466 10.6632 60.5918 10.7325C60.47 10.8864 60.1097 11.1442 59.5064 11.3612C58.8037 11.6139 58.0969 11.654 57.52 11.893C56.9459 12.1309 56.2741 12.2507 55.5133 12.5662C56.2438 12.4164 56.1034 12.5076 55.368 12.6772C55.2925 12.6947 55.2175 12.712 55.1433 12.7292C54.3681 13.0829 53.5047 13.5393 52.7713 13.9775C52.1448 14.3518 51.0853 14.813 50.1828 14.8431C50.004 14.849 49.8195 14.8056 50.0083 14.6624C50.4342 14.3394 51.7637 13.6886 52.3176 13.3979C52.1382 13.4413 51.9675 13.4827 51.8057 13.5222C51.6346 13.5857 51.44 13.6581 51.2378 13.7336C50.6243 14.0212 50.0576 14.2019 49.8427 14.278C48.7797 14.6543 50.125 14.1485 51.2378 13.7336C51.3347 13.6881 51.4328 13.64 51.5308 13.5892C51.1463 13.6833 50.8201 13.7638 50.5558 13.829C49.5211 14.287 48.7538 14.6869 49.1404 14.4317C49.2742 14.3433 49.5513 14.1515 50.2768 13.8978C49.7953 14.0163 49.6302 14.055 49.8235 13.9936C50.4351 13.7995 51.3038 13.3992 52.0989 13.1721C52.1722 13.1512 52.2452 13.1292 52.3183 13.1061C52.4042 13.0425 52.4869 12.9764 52.5653 12.9078C51.5782 13.1312 50.2332 13.4484 49.2195 13.6825C48.9182 13.8437 48.7265 13.9624 48.6604 14.006C48.5021 14.1106 48.6945 13.9704 49.0942 13.7114C48.9214 13.7512 48.7596 13.7882 48.6126 13.8215C47.4505 14.0847 47.1572 14.1573 47.134 14.072C47.0941 13.9257 47.1715 13.6637 47.4008 13.5256C47.8422 13.2598 48.4741 13.0513 49.0205 12.8469Z" fill="#AF6666"/>
<path d="M32.9037 11.7421C32.6018 11.5421 32.171 11.2436 31.7121 10.9246C31.0835 10.5294 30.4059 10.1095 29.9612 9.83112C29.2166 9.36509 29.1671 9.32199 29.1822 9.35414C29.2459 9.4894 29.4945 9.73086 29.825 10.0272C30.2225 10.2702 30.5942 10.4954 30.8739 10.6628C31.6145 11.1059 31.7332 11.1528 31.7191 11.1494C31.6638 11.1363 30.7704 10.8648 29.9497 10.1382C29.9071 10.1005 29.8654 10.0634 29.825 10.0272C29.3165 9.71623 28.7657 9.3762 28.3116 9.0912C28.4092 9.17733 28.5023 9.26393 28.5919 9.35711C28.8869 9.66373 29.2423 10.106 29.6231 10.4527C30.2812 11.0519 30.672 11.3996 30.9398 11.6397C31.3387 11.8241 31.7675 11.9994 32.0209 12.1023C32.2848 12.2094 32.5339 12.3647 32.8441 12.515C33.1804 12.678 33.2839 13.0178 33.2855 13.0989C33.2891 13.2917 32.4295 12.8776 32.0312 12.628C31.7782 12.4694 31.6246 12.2791 31.3721 12.0362C31.2554 11.9239 31.128 11.8084 30.9398 11.6397C30.8542 11.6001 30.7699 11.5601 30.6891 11.5203C30.3729 11.3647 29.9969 11.1218 29.6183 10.8706C29.7028 10.9921 29.7553 11.0818 29.7785 11.1427C29.8136 11.2345 29.8296 11.3105 29.6756 11.2269C29.5216 11.1433 29.2073 10.9072 28.7421 10.4462C28.4642 10.1706 28.1388 9.82199 27.8373 9.48118C27.522 9.20312 27.0887 8.79729 26.6241 8.28918C26.3117 7.9475 26.1804 7.80175 25.9685 7.49734C25.8755 7.36378 25.79 7.23917 25.7105 7.12253C25.2638 6.81514 25.1119 6.63291 24.8839 6.47683C24.7815 6.40681 24.6978 6.3042 24.5565 6.21223C24.4804 6.16269 24.3876 6.11686 24.4547 6.26029C24.6906 6.76465 25.2418 7.41475 25.6625 7.93987C25.96 8.31116 26.1572 8.46437 26.4436 8.76077C26.9514 9.28637 27.3053 9.63907 27.5955 9.96848C27.9577 10.3795 28.4882 10.9691 28.6476 11.1763C28.8233 11.4046 28.9767 11.5654 29.1384 11.7539C29.3418 11.9911 29.7525 12.3084 30.4717 12.8331C30.8564 13.1136 31.1923 13.2715 31.691 13.4887C31.9774 13.6135 32.205 13.7082 32.3009 13.6893C32.7174 13.6073 31.72 13.0267 31.2054 12.6394C31.0041 12.4879 30.8202 12.3457 30.6499 12.2092C30.4772 12.087 30.3078 11.9672 30.149 11.8571C29.9713 11.7716 29.8064 11.6918 29.6688 11.6239C29.0306 11.309 28.8513 11.2022 28.7147 11.1234C28.6507 11.0864 28.6235 11.0254 28.6476 11.0029C28.9408 11.0753 29.3392 11.3359 29.7908 11.6148C29.9008 11.6868 30.0215 11.7688 30.149 11.8571C30.2063 11.8848 30.2651 11.913 30.3246 11.9416C30.0901 11.7431 29.8806 11.5521 29.6819 11.3556C29.5556 11.2307 29.4405 11.0899 29.4456 11.0887C29.4507 11.0875 29.5833 11.2272 29.9789 11.543C30.2002 11.7196 30.5025 11.9501 30.8043 12.1728C31.1177 12.3245 31.4183 12.4723 31.6373 12.5874C32.2364 12.9025 32.699 13.2224 32.498 13.2147C32.4271 13.212 32.125 13.1004 31.4767 12.6545C31.2794 12.5188 31.042 12.3482 30.8043 12.1728C30.6447 12.0955 30.4818 12.0172 30.3246 11.9416C30.4278 12.029 30.5358 12.1178 30.6499 12.2092C30.8202 12.3457 31.0041 12.4879 31.2054 12.6394C31.72 13.0267 32.7174 13.6073 32.3009 13.6893C32.205 13.7082 31.9774 13.6135 31.691 13.4887C31.1923 13.2715 30.8564 13.1136 30.4717 12.8331C29.7525 12.3084 29.3418 11.9911 29.1384 11.7539C28.9767 11.5654 28.8233 11.4046 28.6476 11.1763C28.4882 10.9691 27.9577 10.3795 27.5955 9.96848C27.3053 9.63907 26.9514 9.28637 26.4436 8.76077C26.1572 8.46437 25.96 8.31116 25.6625 7.93987C25.2418 7.41475 24.6906 6.76465 24.4547 6.26029C24.3876 6.11686 24.4804 6.16269 24.5565 6.21223C24.6978 6.3042 24.7815 6.40681 24.8839 6.47683C25.1119 6.63291 25.2638 6.81514 25.7105 7.12253C25.4536 6.74557 25.2593 6.4518 25.0763 6.20821C25.0207 6.17311 24.9648 6.13816 24.9092 6.10341L24.9025 6.0992C24.3124 5.73005 24.1676 5.5289 23.9818 5.3563C23.9332 5.31117 23.8821 5.26945 23.8843 5.25064C23.9011 5.10385 24.2868 5.39249 24.5855 5.65956C24.7634 5.81861 24.9155 5.99401 25.0763 6.20821C25.329 6.36753 25.5775 6.53001 25.7743 6.69212C26.0526 6.92135 26.4172 7.31263 27.0175 7.9475C27.1057 8.04079 27.2113 8.14868 27.3275 8.26637C27.547 8.44367 27.7771 8.63507 27.9637 8.79376C28.0864 8.8981 28.2019 8.99435 28.3116 9.0912C28.7657 9.3762 29.3165 9.71623 29.825 10.0272C29.4945 9.73086 29.2459 9.4894 29.1822 9.35414C29.1671 9.32199 29.2166 9.36509 29.9612 9.83112C30.4059 10.1095 31.0835 10.5294 31.7121 10.9246C32.136 11.1911 32.5376 11.4463 32.8305 11.6394C33.5578 12.1188 33.6133 12.212 32.9037 11.7421Z" fill="#AF6666"/>
<path d="M30.5714 10.2652C30.514 10.2425 30.4809 10.2304 30.4609 10.2224C30.418 10.2052 30.4376 10.2078 30.5714 10.2652Z" fill="#AF6666"/>
<path d="M29.2269 8.48255C28.8881 8.26061 28.3629 7.9203 27.9022 7.59534C27.8687 7.58389 27.8363 7.57357 27.8043 7.5639C27.7138 7.5366 27.9849 7.87535 28.313 8.26438C28.6411 8.65342 29.1319 9.19502 29.453 9.53177C29.5754 9.66009 29.6912 9.77245 29.8011 9.87162C30.419 10.2398 31.0945 10.5989 31.5043 10.7943C31.5142 10.7991 31.524 10.8037 31.5337 10.8083C31.2216 10.5527 30.5709 10.0557 29.842 9.50891C28.6763 8.63451 28.6 8.4169 28.6091 8.39876C28.6375 8.34208 28.8279 8.56681 29.4166 8.99872C30.0053 9.43064 31.0156 10.1595 31.5608 10.5565C32.1059 10.9535 32.1554 10.9966 32.1187 11.0112C32.0828 11.0254 31.9631 11.0111 31.5337 10.8083C31.6887 10.9353 31.7602 11.0027 31.7161 10.987C31.5811 10.9387 31.2392 10.8113 30.9573 10.6564C30.6582 10.4921 30.2885 10.3115 29.8011 9.87162C29.6912 9.77245 29.5754 9.66009 29.453 9.53177C29.1319 9.19502 28.6411 8.65342 28.313 8.26438C27.9849 7.87535 27.7138 7.5366 27.8043 7.5639C27.8363 7.57357 27.8687 7.58389 27.9022 7.59534C28.204 7.69858 28.5894 7.89306 29.5162 8.51793C29.71 8.64857 29.9422 8.80899 30.1942 8.9836C30.2344 8.99785 30.274 9.01151 30.3142 9.02549C30.6093 9.12825 31.1179 9.45934 31.7087 9.8558C32.4172 10.3313 33.306 10.9137 33.7278 11.1712C33.8346 11.2365 33.9604 11.2686 33.9672 11.2822C34.0089 11.3654 33.4374 11.1064 32.3238 10.4185C31.7241 10.048 30.8851 9.46244 30.1942 8.9836C29.9586 8.90001 29.7048 8.79565 29.2269 8.48255Z" fill="#AF6666"/>
<path d="M21.223 14.7872C21.2003 14.7835 21.178 14.7794 21.156 14.7748C20.9007 14.7218 21.6245 14.3659 22.2674 14.1705C22.6979 14.0396 23.0467 14.0165 24.0382 13.9888C24.6856 13.9707 25.2263 13.9972 26.0454 13.9863C27.151 13.9715 27.867 14.0227 28.5721 14.1093C28.7935 14.1366 28.7383 14.1298 28.5727 14.1464L28.5622 14.1475C28.1231 14.1917 27.6215 14.2422 27.1113 14.2656C26.7405 14.2825 26.4359 14.3063 26.1837 14.3316C25.6284 14.3873 25.3272 14.4505 25.1337 14.4656C24.4549 14.5183 23.2082 14.6339 22.6898 14.7132C22.3503 14.7651 22.0536 14.8158 21.8502 14.9278C21.7824 14.9651 21.7025 14.9927 21.6164 15.0126C21.5807 15.1721 21.3766 15.3102 21.1849 15.454C21.1649 15.4689 21.145 15.484 21.1255 15.4991C20.9119 15.6648 20.4886 15.7078 20.2013 15.7226C20.1636 15.7245 20.5195 15.6091 21.1849 15.454C21.3766 15.3102 21.5807 15.1721 21.6164 15.0126C21.27 15.0926 20.8238 15.0489 20.6682 15.0202C20.447 14.9793 20.9313 14.8488 21.223 14.7872Z" fill="#AF6666"/>
<path d="M24.9472 15.8314C25.2809 15.764 25.5045 15.7142 25.7626 15.6658C26.3486 15.556 26.9972 15.4624 27.4825 15.4216C27.6051 15.4113 27.7629 15.3942 28.3631 15.3564C28.9632 15.3185 30.0009 15.261 30.6725 15.2112C31.3442 15.1613 31.6183 15.121 31.7951 15.0984C31.9718 15.0758 32.0428 15.0722 31.763 15.1549C31.4831 15.2375 30.8502 15.4065 29.8327 15.5443C28.8153 15.6821 27.4324 15.7836 26.0185 15.8175C25.8461 15.8217 25.6738 15.8248 25.5028 15.827C25.3782 15.8286 25.2542 15.8297 25.1312 15.8305C24.9254 15.8779 24.7091 15.9217 24.4935 15.9616C24.8649 16.2752 22.9832 16.2648 22.7602 16.2679C22.2789 16.2746 23.3768 16.1686 24.4935 15.9616C24.4829 15.9527 24.4705 15.9435 24.4561 15.934C24.4531 15.932 24.4498 15.9303 24.446 15.9289C24.3917 15.9083 24.2552 15.9393 24.097 15.9465C23.6882 15.965 22.8 16.0571 21.7774 16.0667C21.3081 16.0711 20.8034 16.1433 20.4552 16.1216C20.3655 16.116 20.4404 16.0716 20.5874 16.0247C20.9395 15.9125 21.3536 15.7999 22.3783 15.8081C22.9915 15.813 23.926 15.8347 24.9472 15.8314Z" fill="#AF6666"/>
<path d="M38.8363 6.27031C38.9791 7.437 39.1416 8.82776 39.2431 9.628C39.3843 10.7403 39.3998 10.6434 39.4291 9.75706C39.4584 8.87068 39.5011 7.19768 39.557 6.12405C39.6129 5.05041 39.6807 4.62685 39.71 4.48817C39.7153 4.46293 39.7445 4.93497 39.7683 6.2437C39.7874 7.28968 39.7255 9.11143 39.7 10.0861C39.6744 11.0609 39.6628 11.1335 39.7412 10.6445C39.8195 10.1554 39.9882 9.10258 40.1729 8.25756C40.3576 7.41254 40.5532 6.80724 40.6798 6.55412C40.8064 6.30101 40.858 6.41842 40.8983 7.14078C40.9351 7.80058 40.9612 8.96214 40.9536 9.91976C40.9646 9.65092 40.9758 9.3964 40.9869 9.18478C41.0221 8.51209 41.055 8.30636 41.0652 8.24273C41.0754 8.17911 41.0619 8.26382 41.068 8.75331C41.0741 9.2428 41.1002 10.1345 41.0701 10.8662C41.0633 11.0318 41.0535 11.1878 41.0405 11.3318C41.0055 11.7199 40.947 12.0207 40.8587 12.1866C40.8118 12.43 40.7621 12.6611 40.7139 12.8642C40.7134 12.8927 40.713 12.9142 40.713 12.9272C40.7129 12.9297 40.7127 12.9177 40.7102 12.8799C40.6596 13.092 40.6108 13.2727 40.5688 13.4037C40.5798 13.6701 40.5744 13.7037 40.5737 13.7082C40.5729 13.7132 40.5781 13.6811 40.5562 13.4421C40.507 13.5886 40.4687 13.659 40.4503 13.6205C40.3601 13.4323 40.2415 12.8941 40.1602 12.262C40.1263 12.2274 40.0933 12.188 40.0613 12.1447C39.9965 12.4054 39.9382 12.6938 39.8764 12.9524C39.8299 13.1468 39.7 11.8291 39.631 11.2472C39.6157 11.2049 39.6008 11.1628 39.5862 11.121C39.5777 11.9295 39.418 12.8231 39.4124 12.7297C39.3406 11.5351 39.3493 10.4568 39.3342 10.5653C39.1904 11.5956 38.9928 12.4043 38.9593 12.2732C38.8717 11.9304 38.801 11.4443 38.6543 11.0321C38.6525 11.0402 38.651 11.0375 38.6467 11.0111C38.5983 10.8784 38.5418 10.7538 38.474 10.6448C38.5125 10.8839 38.5505 11.1176 38.5868 11.3395C38.6858 11.7633 38.8033 12.3363 38.903 12.9965C38.9611 13.3814 38.9475 13.4661 38.7596 12.3737C38.711 12.091 38.6515 11.734 38.5868 11.3395C38.5253 11.0761 38.471 10.8703 38.4325 10.7371C38.4128 10.6688 38.3941 10.5935 38.3768 10.5174C38.3148 10.482 38.2869 10.6562 38.2738 11.0151C38.2359 12.0504 38.2033 12.7799 38.1497 12.8935C38.1391 12.9161 38.1488 12.8677 38.1666 12.3369C38.2171 10.8226 38.2504 9.89136 38.292 10.103C38.3133 10.211 38.3423 10.3657 38.3768 10.5174C38.3853 10.5223 38.3945 10.5311 38.4043 10.5439C38.4288 10.5757 38.452 10.6095 38.474 10.6448C38.3163 9.66587 38.1492 8.59739 38.0443 7.8882C37.8683 6.69781 37.8678 6.52499 37.82 7.23372C37.7722 7.94244 37.6799 9.48594 37.6297 10.2826C37.6124 10.5578 37.5994 10.7443 37.5899 10.8702C37.5878 10.9044 37.5854 10.9338 37.5829 10.9592C37.5702 11.1144 37.5656 11.1296 37.5648 11.1261C37.5597 11.1061 37.572 11.0711 37.5829 10.9592C37.585 10.9336 37.5873 10.9041 37.5899 10.8702C37.6024 10.6671 37.6046 10.2972 37.5497 9.6068C37.5042 9.03431 37.4141 8.25552 37.3427 7.8414C37.2621 7.37417 37.21 7.42207 37.2191 7.14975C37.2587 5.96998 37.3605 5.05877 37.3633 5.3318C37.3754 6.49924 37.3598 7.38842 37.4173 7.02922C37.4884 6.5853 37.6397 5.64137 37.7138 5.35993C37.7879 5.07849 37.785 5.44834 37.9334 6.50987C38.0818 7.57141 38.3727 9.27308 38.5142 10.1489C38.6075 10.7268 38.6359 10.9444 38.6467 11.0111C38.6492 11.018 38.6518 11.0251 38.6543 11.0321C38.6548 11.0297 38.6553 11.0264 38.656 11.0224C38.6641 10.9718 38.6873 10.8266 38.7267 9.7657C38.7567 8.95658 38.7951 7.64866 38.8245 6.66211C38.8241 6.64741 38.8237 6.63282 38.8233 6.61833C38.8184 6.4383 38.8175 6.27626 38.8191 6.1306C38.8238 5.71391 38.8495 5.4313 38.8633 5.24528C38.882 4.99423 38.8779 4.93202 38.8489 5.85919C38.8451 5.98061 38.8408 6.11904 38.8363 6.27031Z" fill="#AF6666"/>
<path d="M42.2872 10.4736C42.2599 10.5633 42.3203 10.8778 42.6087 11.4746C42.6246 11.2695 42.6373 11.0891 42.6448 10.9492C42.6624 10.6167 42.6503 10.5165 42.6147 10.4691C42.522 10.4271 42.3163 10.3781 42.2872 10.4736Z" fill="#AF6666"/>
<path d="M45.1599 13.2818C45.2002 12.9958 45.2727 12.4816 45.3263 11.8395C45.2942 12.1102 45.2647 12.3581 45.2398 12.5669C45.1162 13.6018 45.1046 13.6744 45.1576 13.2983L45.1599 13.2818Z" fill="#AF6666"/>
<path d="M40.3592 7.59166C40.1913 6.92835 39.926 5.95688 39.7116 5.23697C39.7033 5.22019 39.6952 5.20386 39.6873 5.18801C39.4145 4.68424 39.3003 4.50753 39.2073 4.37869C39.158 4.32926 39.0906 4.29842 39.0741 4.32585C39.0356 4.38975 39.0331 4.51963 39.3244 5.29764C39.5883 6.00281 40.0853 7.29791 40.3431 8.02289C40.6009 8.74787 40.6191 8.89818 40.6104 8.81224C40.6018 8.72629 40.5674 8.41356 40.3592 7.59166Z" fill="#AF6666"/>
<path d="M44.6054 5.4179C44.4494 5.69793 44.1551 5.92306 44.2046 6.6571C44.3358 6.45211 44.5254 6.0818 44.7103 5.7464C44.8915 5.41772 45.6677 4.57299 45.3666 4.7561C45.1592 4.88224 44.7772 5.10958 44.6054 5.4179Z" fill="#AF6666"/>
<path d="M42.4902 13.187C39.6127 12.8333 33.9966 12.4929 32.8891 13.1203C32.3327 13.4356 31.8939 13.8782 31.5901 14.4896C31.2863 15.1009 31.158 15.9017 31.549 16.3705C33.328 18.5029 37.1371 17.1246 42.6301 17.213C46.3861 17.2734 48.5575 17.2346 50.0702 16.2452C50.3921 16.0346 49.7951 15.5061 49.3695 15.2152C47.2673 14.4813 45.4372 14.1396 43.6937 13.7486C42.4544 13.5361 40.4952 13.2953 38.4766 13.0471M46.7817 14.2844C46.9092 14.2186 47.1839 13.9647 47.6167 13.5352C47.8578 13.2959 48.5522 12.8804 50.1267 12.1718C51.1279 11.7212 52.6748 11.3384 54.2179 10.9889C55.761 10.6393 57.2879 10.3993 58.239 10.2652C60.0534 10.0096 60.6721 10.1276 60.9779 10.1958C61.1078 10.2247 61.1602 10.3098 61.1825 10.395C61.2048 10.4801 61.1888 10.58 61.1627 10.67C61.1011 10.8371 60.531 11.1973 58.0878 12.2467C56.1781 13.0154 52.9081 14.2634 49.3717 15.7139M45.9608 13.6897C45.98 13.5698 46.1915 12.2495 46.5455 10.1855C46.6839 9.37824 46.7946 9.06613 46.9261 8.39493C47.2563 6.70992 47.3855 5.5325 47.3668 5.28391C47.3303 4.79709 47.1399 4.28993 46.766 3.9844C46.5254 3.7878 46.1547 3.83671 45.842 3.88995C45.3137 3.97992 44.5366 4.86561 43.6373 5.93658C43.2571 6.38928 43.1117 6.70718 42.8773 7.65092C42.643 8.59466 42.3445 10.1673 42.1941 11.0287C42.0437 11.8902 42.0505 11.9929 42.0381 12.2198M41.8126 12.7476L41.7932 12.8687M42.4031 12.1412L42.3934 12.2017M41.5469 12.2618C41.629 12.2076 41.8223 11.0085 42.0453 9.04043C42.3352 6.48174 41.4265 4.00193 41.0066 3.26582C40.7094 2.74494 40.0268 2.5593 38.9036 2.40418C38.4996 2.34837 38.0997 2.54749 37.6855 2.82055C37.345 3.04507 37.1287 3.97332 36.8331 5.24209L36.8294 5.25791C36.6125 6.18927 36.9885 8.27461 37.5122 10.904C37.8003 12.0253 38.0049 12.602 38.2297 13.2785C38.3351 13.5546 38.4229 13.694 38.5133 13.8376M31.3935 13.8393C31.3215 13.8305 29.6182 13.6854 26.441 13.537C23.625 13.4054 21.961 13.9445 21.304 14.2365C20.0706 14.7846 19.2957 15.3045 18.2233 15.9848C17.4007 16.5067 16.8885 16.894 16.6379 17.1872C16.5142 17.3319 16.4234 17.4848 17.964 17.3711C19.5045 17.2575 22.6859 16.8768 24.5354 16.6263C28.1807 16.0128 30.3472 15.7247 30.8112 15.717C31.0181 15.7098 31.1672 15.6959 31.3208 15.6817M37.2146 12.4301C37.1608 12.3676 36.8241 12.0739 35.3755 11.0262C34.257 10.2172 32.2754 8.93711 31.0974 8.11954C29.5497 7.04544 28.9464 6.53205 28.1791 6.11425C26.1997 5.03657 24.5353 4.94403 23.6539 5.06008C23.5047 5.07972 23.4984 5.32125 23.5047 5.47825C23.5172 5.79119 24.1054 6.52292 24.8408 7.45968C25.2085 7.92804 26.2158 9.00853 27.6431 10.6506C28.8894 12.0844 29.7568 12.6971 30.6667 13.1481C30.8923 13.2609 31.0668 13.3662 31.32 13.4964C31.5732 13.6266 31.8998 13.7785 32.4393 13.8753M43.7115 11.7045C43.4701 12.0102 43.0398 13.0852 42.71 13.8368C42.5821 14.1314 42.4026 14.4489 42.1603 14.7574C42.0426 14.8856 41.9356 14.9563 41.6224 15.0889M42.5855 15.7153C40.939 15.5409 39.5947 15.5441 38.4116 15.6387C37.4741 15.8482 36.9377 15.9804 36.7471 15.9574C36.7485 15.9301 36.9494 15.871 37.346 15.8333M44.8459 15.4851C44.7328 15.4936 44.5883 15.5125 44.4186 15.5381M44.4186 15.5381C43.9541 15.6082 43.301 15.729 42.5878 15.8274C40.6013 16.1014 39.0199 16.0662 38.1479 16.0869C37.9049 16.0926 37.6697 16.0885 37.4429 16.0764M44.4186 15.5381C43.5317 15.5433 42.2935 15.5912 41.3658 15.764C40.4795 15.9291 39.732 15.6524 37.4429 16.0764M44.4186 15.5381C44.7439 15.5362 45.0219 15.54 45.22 15.5455C45.925 15.565 46.4544 15.4864 47.1449 15.4997C47.7781 15.4789 48.1751 15.4151 48.4428 15.3493C48.5765 15.323 48.7061 15.311 49.0291 15.3219M37.4429 16.0764C35.7932 15.9883 34.5844 15.4786 33.9859 15.2941C33.7401 15.2183 33.8318 14.8382 33.8069 14.5955C33.7953 14.4826 33.6436 14.4197 33.5189 14.3895C33.3942 14.3594 33.2646 14.3714 33.1735 14.4305C32.9849 14.5527 32.9568 14.8687 32.9751 15.1529C33.0056 15.6275 33.9715 15.5591 34.3305 15.7442C34.5645 15.8649 34.2009 15.9082 33.7602 15.9077M37.4429 16.0764C37.3732 16.0893 37.3021 16.1028 37.2295 16.1171C36.0352 16.3513 35.0857 16.4961 34.475 16.2421C34.2364 16.1428 33.9997 16.0105 33.7602 15.9077M33.7602 15.9077C33.426 15.9073 33.0475 15.8818 32.8515 15.8456C32.734 15.824 32.8751 15.7647 33.0067 15.7521C33.2644 15.7274 33.5138 15.8019 33.7602 15.9077ZM41.4727 14.8164C40.6573 14.7162 39.1278 14.5841 38.3788 14.5347L38.3764 14.5346C37.4367 14.4727 36.1614 14.3887 35.2322 14.2614C35.1086 14.2445 35.2624 14.1394 35.4185 14.0735C35.5745 14.0075 35.7442 13.9446 37.0674 14.064C38.3906 14.1835 40.8622 14.4873 43.4221 14.7174M49.2953 13.6611C49.5104 13.519 49.9956 13.2967 50.8268 13.0322C51.4497 12.8341 51.9392 12.8201 52.8408 12.6346M52.8408 12.6346C52.9943 12.603 53.1598 12.5664 53.3398 12.5232C53.5931 12.4623 53.8561 12.4087 54.1189 12.3603M52.8408 12.6346C52.8809 12.589 52.9189 12.5424 52.9545 12.495M52.8408 12.6346C52.7573 12.7297 52.6647 12.8208 52.5653 12.9078M54.1189 12.3603C54.1333 12.3577 54.1476 12.355 54.162 12.3524M54.1189 12.3603C54.1318 12.3587 54.1447 12.3571 54.1576 12.3554M54.1189 12.3603C53.709 12.4116 53.3189 12.4544 52.9545 12.495M54.162 12.3524C54.2882 12.3295 54.4142 12.3077 54.5389 12.2869M54.162 12.3524C54.1605 12.3534 54.159 12.3544 54.1576 12.3554M54.162 12.3524C54.3572 12.2184 54.5049 12.11 54.5806 12.0406C54.7741 11.8635 54.9677 11.6898 55.174 11.5262M54.5389 12.2869C55.0928 12.1945 55.6217 12.1213 56.0291 12.0481C56.1634 12.0239 56.2924 12.0097 56.0309 12.061C55.4878 12.1674 54.9603 12.2491 54.4587 12.3163M54.5389 12.2869C54.6241 12.2557 54.7121 12.2238 54.803 12.1912C55.5031 11.9398 55.9582 11.7142 56.4922 11.5956C57.0275 11.4768 57.8977 11.2349 58.6508 10.9994C58.6987 10.9844 58.7462 10.9684 58.793 10.9516M54.5389 12.2869C54.5119 12.2968 54.4851 12.3066 54.4587 12.3163M54.4587 12.3163C54.3572 12.3299 54.2568 12.3429 54.1576 12.3554M54.4587 12.3163C54.2629 12.3883 54.0819 12.4563 53.9128 12.5205M54.1576 12.3554C54.0825 12.407 54.0004 12.4622 53.9128 12.5205M52.9545 12.495C52.1128 12.5886 51.4087 12.67 50.9163 12.8146C50.9116 12.816 50.9068 12.8174 50.9021 12.8188M52.9545 12.495C52.9729 12.4705 52.9906 12.4459 53.0077 12.421C53.1332 12.2378 53.2093 11.9879 53.0399 11.9905C52.9302 11.9922 52.8202 11.9967 52.7109 12.0049M50.9021 12.8188C50.7185 12.8721 50.5258 12.9159 50.3299 12.9539M50.9021 12.8188C51.4491 12.5081 51.9208 12.2282 52.6037 12.0343C52.6391 12.0242 52.6749 12.0144 52.7109 12.0049M50.9021 12.8188C50.6138 12.9825 50.3046 13.1548 49.9326 13.3275C49.6524 13.4576 49.4133 13.5788 49.2195 13.6825M50.3299 12.9539C49.8016 13.0562 49.2499 13.1158 48.7905 13.2032C48.6613 13.2278 48.5512 13.2707 48.4566 13.3235M50.3299 12.9539C49.838 13.2387 49.4039 13.5107 49.0942 13.7114M50.3299 12.9539C50.7138 12.7315 51.133 12.5013 51.5556 12.2911C51.907 12.1164 52.305 12.0354 52.7109 12.0049M48.4566 13.3235C48.289 13.417 48.1698 13.5417 48.0784 13.6511M48.4566 13.3235C48.315 13.4445 48.1849 13.557 48.0784 13.6511M48.4566 13.3235C48.6343 13.1716 48.8302 13.0062 49.0205 12.8469M48.0784 13.6511C47.9915 13.755 47.9297 13.845 47.8751 13.8811C47.707 13.9925 47.8273 13.8729 48.0784 13.6511ZM49.0205 12.8469C49.33 12.5876 49.6246 12.3444 49.8019 12.2009C50.2749 11.818 51.0873 11.7086 51.9308 11.5726C52.5231 11.4772 53.2056 11.4681 53.786 11.4652M49.0205 12.8469C49.0277 12.8441 49.035 12.8414 49.0423 12.8387C50.0451 12.462 52.1398 11.9058 53.786 11.4652M49.0205 12.8469C48.4741 13.0513 47.8422 13.2598 47.4008 13.5256C47.1715 13.6637 47.0941 13.9257 47.134 14.072C47.1572 14.1573 47.4505 14.0847 48.6126 13.8215C48.7596 13.7882 48.9214 13.7512 49.0942 13.7114M53.786 11.4652C54.1833 11.4631 54.5327 11.464 54.7728 11.4419C54.9663 11.424 55.1663 11.4017 55.3752 11.3732M53.786 11.4652C54.0175 11.4032 54.2401 11.3435 54.4496 11.287C55.4924 11.0053 57.4856 10.509 56.9467 10.6506C56.7272 10.7083 56.384 10.8021 56.0933 10.9416C55.8282 11.0687 55.5932 11.2148 55.3752 11.3732M55.3752 11.3732C55.7901 11.3167 56.2397 11.2362 56.741 11.1199C57.0347 11.0517 57.3037 11.0081 57.5596 10.9829M55.3752 11.3732C55.3065 11.4231 55.2396 11.4741 55.174 11.5262M57.5596 10.9829C57.8665 10.9527 58.1544 10.949 58.4428 10.9611C58.5687 10.9664 58.6859 10.9622 58.793 10.9516M57.5596 10.9829C58.1887 10.8475 59.621 10.4085 59.6127 10.6095M57.5596 10.9829C57.5158 10.9923 57.4759 11.0003 57.4407 11.0065C56.8757 11.1054 56.067 11.3383 55.174 11.5262M58.793 10.9516C59.2028 10.9113 59.4659 10.7792 59.5117 10.7399C59.5801 10.6811 59.6115 10.6386 59.6127 10.6095M58.793 10.9516C59.0882 10.8459 59.3616 10.71 59.6127 10.6095M59.6127 10.6095C59.9138 10.4889 60.183 10.4191 60.4196 10.5132C60.5259 10.5555 60.6466 10.6632 60.5918 10.7325C60.47 10.8864 60.1097 11.1442 59.5064 11.3612C58.8037 11.6139 58.0969 11.654 57.52 11.893C56.9459 12.1309 56.2741 12.2507 55.5133 12.5662M55.174 11.5262C55.1111 11.5395 55.0477 11.5525 54.9841 11.5652C53.9858 11.7648 53.3093 11.8472 52.7109 12.0049M49.2195 13.6825C48.9182 13.8437 48.7265 13.9624 48.6604 14.006C48.5021 14.1106 48.6945 13.9704 49.0942 13.7114M49.2195 13.6825C49.1772 13.6923 49.1354 13.7019 49.0942 13.7114M49.2195 13.6825C50.2332 13.4484 51.5782 13.1312 52.5653 12.9078M52.5653 12.9078C52.4869 12.9764 52.4042 13.0425 52.3183 13.1061M52.5653 12.9078C52.7342 12.8695 52.8925 12.8341 53.037 12.8022C53.1533 12.7766 53.2599 12.7534 53.3576 12.7326M52.3183 13.1061C52.2947 13.1236 52.2708 13.141 52.2466 13.1581M52.3183 13.1061C52.6413 13.0042 52.9691 12.8811 53.3576 12.7326M52.3183 13.1061C52.2452 13.1292 52.1722 13.1512 52.0989 13.1721C51.3038 13.3992 50.4351 13.7995 49.8235 13.9936C49.6302 14.055 49.7953 14.0163 50.2768 13.8978M52.2466 13.1581C52.09 13.2694 51.9243 13.3726 51.7557 13.4677M52.2466 13.1581C52.1724 13.1819 52.0953 13.2079 52.0156 13.2364C51.595 13.3866 51.1559 13.5672 50.748 13.7447M52.2466 13.1581C52.7188 13.007 53.0734 12.9496 53.2365 12.9604M51.7557 13.4677C51.6811 13.5098 51.606 13.5503 51.5308 13.5892M51.7557 13.4677C51.9567 13.4155 52.1701 13.361 52.3898 13.3056M51.7557 13.4677C51.5664 13.5169 51.388 13.5641 51.2257 13.608C51.0526 13.6548 50.8938 13.7004 50.748 13.7447M51.5308 13.5892C51.4328 13.64 51.3347 13.6881 51.2378 13.7336M51.5308 13.5892C51.1463 13.6833 50.8201 13.7638 50.5558 13.829M51.5308 13.5892C51.6193 13.5676 51.711 13.5452 51.8057 13.5222M51.2378 13.7336C50.6243 14.0212 50.0576 14.2019 49.8427 14.278C48.7797 14.6543 50.125 14.1485 51.2378 13.7336ZM51.2378 13.7336C51.44 13.6581 51.6346 13.5857 51.8057 13.5222M51.8057 13.5222C52.0889 13.4169 52.3077 13.3358 52.3898 13.3056M51.8057 13.5222C51.9675 13.4827 52.1382 13.4413 52.3176 13.3979M52.3898 13.3056C52.4016 13.3013 52.4106 13.298 52.4165 13.2958C52.5454 13.2489 52.5835 13.2416 52.5545 13.2642M52.3898 13.3056C52.4443 13.2919 52.4993 13.2781 52.5545 13.2642M52.5545 13.2642C52.5275 13.2853 52.4422 13.3325 52.3176 13.3979M52.5545 13.2642C52.6661 13.2363 52.7789 13.2082 52.8921 13.1802M52.3176 13.3979C51.7637 13.6886 50.4342 14.3394 50.0083 14.6624C49.8195 14.8056 50.004 14.849 50.1828 14.8431C51.0853 14.813 52.1448 14.3518 52.7713 13.9775C53.5047 13.5393 54.3681 13.0829 55.1433 12.7292M52.3176 13.3979C52.4383 13.3687 52.5629 13.3386 52.6914 13.3078M55.1433 12.7292C55.2263 12.6913 55.3082 12.6546 55.3889 12.6193C55.4306 12.601 55.4721 12.5833 55.5133 12.5662M55.1433 12.7292C54.5471 12.8672 53.9942 12.9971 53.4878 13.1174M55.1433 12.7292C55.2175 12.712 55.2925 12.6947 55.368 12.6772C56.1034 12.5076 56.2438 12.4164 55.5133 12.5662M55.5133 12.5662C55.455 12.5782 55.3913 12.5917 55.3218 12.6068C54.8765 12.7036 54.1956 12.8626 53.4784 13.0365M53.9128 12.5205C53.7127 12.5964 53.5292 12.667 53.3576 12.7326M53.9128 12.5205C53.8445 12.5659 53.7727 12.6131 53.6983 12.6618M53.3576 12.7326C53.4862 12.7052 53.5992 12.6817 53.6983 12.6618M50.2768 13.8978C50.3604 13.8772 50.4535 13.8543 50.5558 13.829M50.2768 13.8978C50.4165 13.849 50.5729 13.7978 50.748 13.7447M50.2768 13.8978C49.5513 14.1515 49.2742 14.3433 49.1404 14.4317C48.7538 14.6869 49.5211 14.287 50.5558 13.829M50.5558 13.829C50.619 13.8011 50.6831 13.7729 50.748 13.7447M52.6914 13.3078C52.9424 13.2474 53.208 13.1839 53.4878 13.1174M52.6914 13.3078C51.5126 14.056 50.3189 14.8018 50.7871 14.6197C50.9252 14.566 51.0699 14.5393 51.2019 14.4442C51.6988 14.0864 53.3585 13.4261 53.4878 13.1174M52.6914 13.3078C52.7585 13.2652 52.8255 13.2226 52.8921 13.1802M53.4878 13.1174C53.5006 13.0868 53.4984 13.0596 53.4784 13.0365M53.4784 13.0365C53.2843 13.0836 53.0876 13.1318 52.8921 13.1802M53.4784 13.0365C53.4483 13.0017 53.3776 12.9762 53.2574 12.9623C53.2508 12.9615 53.2438 12.9609 53.2365 12.9604M52.8921 13.1802C53.0086 13.1061 53.1239 13.0326 53.2365 12.9604M53.2365 12.9604C53.3976 12.8571 53.5531 12.7567 53.6983 12.6618M53.6983 12.6618C54.2824 12.5443 54.3787 12.5494 54.3018 12.583M28.4154 8.85489C28.5521 8.88403 28.9382 9.04293 29.9473 9.71125C30.4215 10.0253 31.0925 10.4937 31.7121 10.9246M31.7121 10.9246C32.171 11.2436 32.6018 11.5421 32.9037 11.7421C33.6133 12.212 33.5578 12.1188 32.8305 11.6394C32.5376 11.4463 32.136 11.1911 31.7121 10.9246ZM31.7121 10.9246C31.0835 10.5294 30.4059 10.1095 29.9612 9.83112C29.2166 9.36509 29.1671 9.32199 29.1822 9.35414C29.2459 9.4894 29.4945 9.73086 29.825 10.0272M29.825 10.0272C29.8654 10.0634 29.9071 10.1005 29.9497 10.1382C30.7704 10.8648 31.6638 11.1363 31.7191 11.1494C31.7332 11.1528 31.6145 11.1059 30.8739 10.6628C30.5942 10.4954 30.2225 10.2702 29.825 10.0272ZM29.825 10.0272C29.3165 9.71623 28.7657 9.3762 28.3116 9.0912M28.3116 9.0912C28.181 9.0092 28.0583 8.93176 27.947 8.86088C27.9158 8.84101 27.8853 8.82149 27.8555 8.80232M28.3116 9.0912C28.4092 9.17733 28.5023 9.26393 28.5919 9.35711C28.8869 9.66373 29.2423 10.106 29.6231 10.4527C30.2812 11.0519 30.672 11.3996 30.9398 11.6397M28.3116 9.0912C28.2019 8.99435 28.0864 8.8981 27.9637 8.79376C27.7771 8.63507 27.547 8.44367 27.3275 8.26637M27.8555 8.80232C26.9375 8.21093 26.6963 7.9463 26.649 7.93306C26.5349 7.90114 26.8855 8.337 27.2824 8.82817C27.4421 9.0258 27.6343 9.25171 27.8373 9.48118M27.8555 8.80232C28.0765 9.02963 28.2998 9.26568 28.4924 9.48791C29.0596 10.1422 29.4237 10.5908 29.6183 10.8706M27.8555 8.80232C27.6717 8.6133 27.4894 8.43032 27.3275 8.26637M27.8373 9.48118C28.1388 9.82199 28.4642 10.1706 28.7421 10.4462C29.2073 10.9072 29.5216 11.1433 29.6756 11.2269C29.8296 11.3105 29.8136 11.2345 29.7785 11.1427C29.7553 11.0818 29.7028 10.9921 29.6183 10.8706M27.8373 9.48118C27.522 9.20312 27.0887 8.79729 26.6241 8.28918C26.3117 7.9475 26.1804 7.80175 25.9685 7.49734C25.8755 7.36378 25.79 7.23917 25.7105 7.12253M27.8373 9.48118C28.0073 9.63108 28.1429 9.74384 28.2308 9.81547C28.5958 10.1132 28.9067 10.398 29.2398 10.6188C29.3648 10.7017 29.4917 10.7866 29.6183 10.8706M29.6183 10.8706C29.9969 11.1218 30.3729 11.3647 30.6891 11.5203C30.7699 11.5601 30.8542 11.6001 30.9398 11.6397M27.3275 8.26637C27.2113 8.14868 27.1057 8.04079 27.0175 7.9475C26.4172 7.31263 26.0526 6.92135 25.7743 6.69212C25.5775 6.53001 25.329 6.36753 25.0763 6.20821M27.3275 8.26637C27.1072 8.08834 26.8975 7.92452 26.7534 7.8223C26.4539 7.60996 26.1309 7.40288 25.8093 7.18927C25.7748 7.16638 25.7419 7.14415 25.7105 7.12253M25.0763 6.20821C25.0207 6.17311 24.9648 6.13816 24.9092 6.10341L24.9025 6.0992C24.3124 5.73005 24.1676 5.5289 23.9818 5.3563C23.9332 5.31117 23.8821 5.26945 23.8843 5.25064C23.9011 5.10385 24.2868 5.39249 24.5855 5.65956C24.7634 5.81861 24.9155 5.99401 25.0763 6.20821ZM25.0763 6.20821C25.2593 6.4518 25.4536 6.74557 25.7105 7.12253M25.7105 7.12253C25.2638 6.81514 25.1119 6.63291 24.8839 6.47683C24.7815 6.40681 24.6978 6.3042 24.5565 6.21223C24.4804 6.16269 24.3876 6.11686 24.4547 6.26029C24.6906 6.76465 25.2418 7.41475 25.6625 7.93987C25.96 8.31116 26.1572 8.46437 26.4436 8.76077C26.9514 9.28637 27.3053 9.63907 27.5955 9.96848C27.9577 10.3795 28.4882 10.9691 28.6476 11.1763C28.8233 11.4046 28.9767 11.5654 29.1384 11.7539C29.3418 11.9911 29.7525 12.3084 30.4717 12.8331C30.8564 13.1136 31.1923 13.2715 31.691 13.4887C31.9774 13.6135 32.205 13.7082 32.3009 13.6893C32.7174 13.6073 31.72 13.0267 31.2054 12.6394C31.0041 12.4879 30.8202 12.3457 30.6499 12.2092M30.9398 11.6397C31.3387 11.8241 31.7675 11.9994 32.0209 12.1023C32.2848 12.2094 32.5339 12.3647 32.8441 12.515C33.1804 12.678 33.2839 13.0178 33.2855 13.0989C33.2891 13.2917 32.4295 12.8776 32.0312 12.628C31.7782 12.4694 31.6246 12.2791 31.3721 12.0362C31.2554 11.9239 31.128 11.8084 30.9398 11.6397ZM30.6499 12.2092C30.5358 12.1178 30.4278 12.029 30.3246 11.9416M30.6499 12.2092C30.4772 12.087 30.3078 11.9672 30.149 11.8571M30.6499 12.2092C30.6636 12.2189 30.6773 12.2286 30.691 12.2383M30.3246 11.9416C30.0901 11.7431 29.8806 11.5521 29.6819 11.3556C29.5556 11.2307 29.4405 11.0899 29.4456 11.0887C29.4507 11.0875 29.5833 11.2272 29.9789 11.543C30.2002 11.7196 30.5025 11.9501 30.8043 12.1728M30.3246 11.9416C30.4818 12.0172 30.6447 12.0955 30.8043 12.1728M30.3246 11.9416C30.2651 11.913 30.2063 11.8848 30.149 11.8571M30.8043 12.1728C31.042 12.3482 31.2794 12.5188 31.4767 12.6545C32.125 13.1004 32.4271 13.212 32.498 13.2147C32.699 13.2224 32.2364 12.9025 31.6373 12.5874C31.4183 12.4723 31.1177 12.3245 30.8043 12.1728ZM30.149 11.8571C29.9713 11.7716 29.8064 11.6918 29.6688 11.6239C29.0306 11.309 28.8513 11.2022 28.7147 11.1234C28.6507 11.0864 28.6235 11.0254 28.6476 11.0029C28.9408 11.0753 29.3392 11.3359 29.7908 11.6148C29.9008 11.6868 30.0215 11.7688 30.149 11.8571ZM24.6575 5.66318C24.5883 5.74105 24.4978 6.12742 24.5143 6.4675C24.5181 6.54374 24.327 6.30873 24.2628 6.1765C24.2066 6.06085 24.2459 5.92482 24.2295 5.80464C24.2219 5.74874 24.2526 5.70165 24.3288 5.66708C24.7701 5.46687 25.2365 5.68424 25.9309 6.07288C26.4187 6.34582 27.3076 6.8535 27.9574 7.1985C28.6072 7.5435 28.9885 7.71377 29.688 8.13482C30.3875 8.55586 31.3937 9.22251 32.0297 9.66678C32.9222 10.2902 33.2088 10.5532 33.445 10.7122C34.3831 11.3436 34.8353 11.6753 35.4418 12.1042C35.7167 12.2986 35.8531 12.5229 35.9105 12.6616C35.9365 12.7244 35.6309 12.6093 34.7941 12.2284C33.9573 11.8475 32.4932 11.1369 31.6255 10.7322C31.007 10.4438 30.714 10.3217 30.5714 10.2652M30.5714 10.2652C30.514 10.2425 30.4809 10.2304 30.4609 10.2224C30.418 10.2052 30.4376 10.2078 30.5714 10.2652ZM30.5714 10.2652C30.6546 10.3009 30.7819 10.3578 30.9657 10.4443C31.4452 10.67 32.3067 11.0968 32.883 11.4131C34.1239 12.0943 34.2363 12.3126 34.3408 12.3688C34.3976 12.3993 34.4396 12.4613 34.3812 12.4796C34.1699 12.5455 33.5832 12.3329 32.482 11.9557C31.7779 11.7146 30.8019 11.3224 30.3633 11.1473C30.0535 11.0236 30.7903 11.4002 31.735 11.94C32.1797 12.1716 32.4948 12.3344 32.8548 12.5283C32.9954 12.5964 33.0507 12.6032 33.1671 12.5053M26.3815 6.36122C26.3776 6.38543 26.6347 6.62719 27.4277 7.24594C27.5683 7.35569 27.7308 7.47445 27.9022 7.59534M27.9022 7.59534C28.3629 7.9203 28.8881 8.26061 29.2269 8.48255C29.7048 8.79565 29.9586 8.90001 30.1942 8.9836M27.9022 7.59534C28.204 7.69858 28.5894 7.89306 29.5162 8.51793C29.71 8.64857 29.9422 8.80899 30.1942 8.9836M27.9022 7.59534C27.8687 7.58389 27.8363 7.57357 27.8043 7.5639C27.7138 7.5366 27.9849 7.87535 28.313 8.26438C28.6411 8.65342 29.1319 9.19502 29.453 9.53177C29.5754 9.66009 29.6912 9.77245 29.8011 9.87162M30.1942 8.9836C30.2344 8.99785 30.274 9.01151 30.3142 9.02549C30.6093 9.12825 31.1179 9.45934 31.7087 9.8558C32.4172 10.3313 33.306 10.9137 33.7278 11.1712C33.8346 11.2365 33.9604 11.2686 33.9672 11.2822C34.0089 11.3654 33.4374 11.1064 32.3238 10.4185C31.7241 10.048 30.8851 9.46244 30.1942 8.9836ZM29.8011 9.87162C30.2885 10.3115 30.6582 10.4921 30.9573 10.6564C31.2392 10.8113 31.5811 10.9387 31.7161 10.987C31.7602 11.0027 31.6887 10.9353 31.5337 10.8083M29.8011 9.87162C30.419 10.2398 31.0945 10.5989 31.5043 10.7943C31.5142 10.7991 31.524 10.8037 31.5337 10.8083M29.8011 9.87162C29.7354 9.83247 29.6704 9.79321 29.6063 9.75404C28.9403 9.34647 28.4104 8.96049 28.0534 8.6711C27.2418 8.01336 27.0956 7.77127 26.7227 7.39543C26.4524 7.12299 26.1891 6.94934 26.0688 6.80293C26.1483 6.83065 26.3163 6.93843 26.5749 7.13775C26.7327 7.26296 26.9443 7.43706 27.2761 7.70521M31.5337 10.8083C31.2216 10.5527 30.5709 10.0557 29.842 9.50891C28.6763 8.63451 28.6 8.4169 28.6091 8.39876C28.6375 8.34208 28.8279 8.56681 29.4166 8.99872C30.0053 9.43064 31.0156 10.1595 31.5608 10.5565C32.1059 10.9535 32.1554 10.9966 32.1187 11.0112C32.0828 11.0254 31.9631 11.0111 31.5337 10.8083ZM25.2246 5.32155C25.3963 5.30526 25.9777 5.40141 26.4624 5.57916C26.6174 5.63599 26.7396 5.71944 27.1617 5.95063C28.1284 6.4801 28.7822 6.91772 28.953 7.04416C29.2518 7.26543 29.6078 7.44288 30.1713 7.76587C30.5988 8.01096 31.2803 8.46443 31.7158 8.76401C32.3302 9.18667 32.5675 9.40233 32.8427 9.58479C33.3299 9.90785 33.6364 10.1945 33.9338 10.4103C34.6332 10.9181 35.1185 11.3362 35.2656 11.4784C35.7203 11.9179 36.2564 12.2973 36.6192 12.5801C36.6903 12.6266 36.7694 12.661 36.8358 12.6942C36.9022 12.7274 36.9536 12.7584 37.0425 12.8321M25.9371 5.67089C25.9647 5.67429 26.0599 5.69833 26.6223 5.97743C27.1127 6.22082 27.9831 6.72489 28.4618 6.99314C28.992 7.29239 29.0805 7.36573 29.1652 7.45691C29.2142 7.50669 29.2755 7.56358 29.3387 7.62221M30.8776 14.8041C30.7248 14.7853 30.4071 14.8203 28.8163 14.9966C27.7417 15.1157 25.8159 15.3688 24.7739 15.4948C23.4611 15.6535 23.1408 15.6726 22.8196 15.7203C22.4317 15.7778 21.6249 15.834 20.9862 15.9745C20.3524 16.1138 19.643 16.277 19.2842 16.3822C18.695 16.5551 18.465 16.6056 18.2439 16.6971C18.0347 16.8025 17.8554 16.8552 17.7146 16.8938C17.6328 16.915 17.5303 16.9394 17.3769 16.9961M18.4214 16.3392C18.4253 16.315 18.435 16.2541 18.5236 16.1409C18.6858 15.9336 19.563 15.6602 20.6746 15.2427C21.1353 15.0696 21.4039 15.0126 22.1842 14.959C22.9644 14.9053 24.2528 14.8662 24.9815 14.8356C26.045 14.7909 26.3536 14.7842 26.9434 14.6951C27.629 14.5916 28.0072 14.5888 29.0749 14.5705C29.6573 14.5605 29.9989 14.5966 30.5242 14.6423C30.7576 14.6525 30.9974 14.6692 31.2363 14.6863C31.3371 14.6863 31.3962 14.6689 31.5526 14.5879M31.6716 14.3782C31.644 14.3748 31.0199 14.3104 29.9765 14.2132C28.9902 14.1213 28.5292 14.2035 28.1378 14.2364C27.6346 14.2786 27.0117 14.3 26.1837 14.3316M26.1837 14.3316C26.169 14.3321 26.1542 14.3327 26.1394 14.3333C25.4973 14.3578 25.2155 14.3571 24.94 14.3421C24.7049 14.3293 24.3949 14.331 24.1118 14.3151C23.7707 14.2959 23.3724 14.3175 23.0121 14.3852C22.67 14.4495 22.2508 14.5655 21.8622 14.7234C21.7522 14.7682 21.6435 14.7921 21.538 14.801M26.1837 14.3316C26.4359 14.3063 26.7405 14.2825 27.1113 14.2656C27.6215 14.2422 28.1231 14.1917 28.5622 14.1475L28.5727 14.1464C28.7383 14.1298 28.7935 14.1366 28.5721 14.1093C27.867 14.0227 27.151 13.9715 26.0454 13.9863C25.2263 13.9972 24.6856 13.9707 24.0382 13.9888C23.0467 14.0165 22.6979 14.0396 22.2674 14.1705C21.6245 14.3659 20.9007 14.7218 21.156 14.7748C21.178 14.7794 21.2003 14.7835 21.223 14.7872M26.1837 14.3316C25.6284 14.3873 25.3272 14.4505 25.1337 14.4656C24.4549 14.5183 23.2082 14.6339 22.6898 14.7132C22.3503 14.7651 22.0536 14.8158 21.8502 14.9278C21.7824 14.9651 21.7025 14.9927 21.6164 15.0126M21.538 14.801C21.4289 14.8103 21.3232 14.8035 21.223 14.7872M21.538 14.801C21.4852 14.771 21.403 14.7532 21.3338 14.7654C21.3026 14.771 21.2647 14.7784 21.223 14.7872M21.538 14.801C21.5391 14.8016 21.5402 14.8023 21.5413 14.8029C21.5939 14.834 21.6138 14.8859 21.6201 14.9367C21.6234 14.9626 21.6219 14.9878 21.6164 15.0126M21.223 14.7872C20.9313 14.8488 20.447 14.9793 20.6682 15.0202C20.8238 15.0489 21.27 15.0926 21.6164 15.0126M21.6164 15.0126C21.5807 15.1721 21.3766 15.3102 21.1849 15.454M21.1849 15.454C21.1649 15.4689 21.145 15.484 21.1255 15.4991C20.9119 15.6648 20.4886 15.7078 20.2013 15.7226C20.1636 15.7245 20.5195 15.6091 21.1849 15.454ZM21.1849 15.454C21.4907 15.3826 21.8619 15.3029 22.2903 15.2224C23.7492 14.948 24.6353 15.034 24.7045 15.0485C24.7027 15.0666 24.6258 15.1065 24.5507 15.1289C24.4756 15.1513 24.4046 15.1549 24.1941 15.2165M18.4229 16.8629C18.623 16.8505 18.9993 16.8092 20.1168 16.6626C21.0984 16.5338 22.9046 16.203 23.8817 16.0312C24.0965 15.9935 24.2824 15.9596 24.446 15.9289M24.446 15.9289C24.6409 15.8923 24.8042 15.8602 24.9472 15.8314M24.446 15.9289C24.3917 15.9083 24.2552 15.9393 24.097 15.9465C23.6882 15.965 22.8 16.0571 21.7774 16.0667C21.3081 16.0711 20.8034 16.1433 20.4552 16.1216C20.3655 16.116 20.4404 16.0716 20.5874 16.0247C20.9395 15.9125 21.3536 15.7999 22.3783 15.8081C22.9915 15.813 23.926 15.8347 24.9472 15.8314M24.446 15.9289C24.4498 15.9303 24.4531 15.932 24.4561 15.934C24.4705 15.9435 24.4829 15.9527 24.4935 15.9616M24.9472 15.8314C25.2809 15.764 25.5045 15.7142 25.7626 15.6658C26.3486 15.556 26.9972 15.4624 27.4825 15.4216C27.6051 15.4113 27.7629 15.3942 28.3631 15.3564C28.9632 15.3185 30.0009 15.261 30.6725 15.2112C31.3442 15.1613 31.6183 15.121 31.7951 15.0984C31.9718 15.0758 32.0428 15.0722 31.763 15.1549C31.4831 15.2375 30.8502 15.4065 29.8327 15.5443C28.8153 15.6821 27.4324 15.7836 26.0185 15.8175C25.8461 15.8217 25.6738 15.8248 25.5028 15.827M24.9472 15.8314C25.0082 15.8312 25.0696 15.8309 25.1312 15.8305M25.5028 15.827C25.3782 15.8286 25.2542 15.8297 25.1312 15.8305M25.5028 15.827C25.5538 15.7785 25.5542 15.7416 25.5343 15.7303C25.5077 15.7153 25.4501 15.7552 25.1966 15.8152C25.175 15.8204 25.1531 15.8254 25.1312 15.8305M25.5028 15.827C25.4858 15.8431 25.4632 15.8606 25.4339 15.8788C24.8506 16.2411 24.5421 16.1564 24.4989 16.201C24.3206 16.385 25.1546 16.1333 25.5059 16.0823C25.6519 16.0568 25.7843 16.0353 25.9055 16.0315C25.9695 16.0331 26.0386 16.0416 26.1575 16.0188M25.1312 15.8305C24.9254 15.8779 24.7091 15.9217 24.4935 15.9616M24.4935 15.9616C24.8649 16.2752 22.9832 16.2648 22.7602 16.2679C22.2789 16.2746 23.3768 16.1686 24.4935 15.9616ZM38.4719 8.70753C38.4756 8.59655 38.5 8.17774 38.5151 7.07105C38.5265 6.23227 38.4441 4.83083 38.4177 4.13392C38.3912 3.43701 38.3973 3.48711 38.4302 3.59063C38.4632 3.69415 38.5228 3.84956 38.683 5.05614C38.7232 5.35967 38.7698 5.72943 38.8191 6.1306M38.8191 6.1306C38.8248 6.17677 38.8305 6.22336 38.8363 6.27031M38.8191 6.1306C38.8175 6.27626 38.8184 6.4383 38.8233 6.61833C38.8237 6.63282 38.8241 6.64741 38.8245 6.66211M38.8191 6.1306C38.8238 5.71391 38.8495 5.4313 38.8633 5.24528C38.882 4.99423 38.8779 4.93202 38.8489 5.85919C38.8451 5.98061 38.8408 6.11904 38.8363 6.27031M38.8363 6.27031C38.9791 7.437 39.1416 8.82776 39.2431 9.628C39.3843 10.7403 39.3998 10.6434 39.4291 9.75706C39.4584 8.87068 39.5011 7.19768 39.557 6.12405C39.6129 5.05041 39.6807 4.62685 39.71 4.48817C39.7153 4.46293 39.7445 4.93497 39.7683 6.2437C39.7874 7.28968 39.7255 9.11143 39.7 10.0861C39.6744 11.0609 39.6628 11.1335 39.7412 10.6445C39.8195 10.1554 39.9882 9.10258 40.1729 8.25756C40.3576 7.41254 40.5532 6.80724 40.6798 6.55412C40.8064 6.30101 40.858 6.41842 40.8983 7.14078C40.9351 7.80058 40.9612 8.96214 40.9536 9.91976M38.8363 6.27031C38.8326 6.39318 38.8286 6.52452 38.8245 6.66211M40.9536 9.91976C40.9528 10.0105 40.9518 10.0995 40.9505 10.186C40.9377 11.0045 40.8955 11.5782 40.8698 11.902M40.9536 9.91976C40.9295 10.5055 40.9061 11.1592 40.8861 11.5853C40.8803 11.7103 40.8747 11.8157 40.8698 11.902M40.9536 9.91976C40.9646 9.65092 40.9758 9.3964 40.9869 9.18478C41.0221 8.51209 41.055 8.30636 41.0652 8.24273C41.0754 8.17911 41.0619 8.26382 41.068 8.75331C41.0741 9.2428 41.1002 10.1345 41.0701 10.8662C41.0633 11.0318 41.0535 11.1878 41.0405 11.3318M40.8698 11.902C40.8641 11.9734 40.8592 12.0327 40.8556 12.0798C40.8397 12.2876 40.8501 12.2445 40.8698 11.902ZM41.0405 11.3318C41.0055 11.7199 40.947 12.0207 40.8587 12.1866M41.0405 11.3318C41.0201 11.3431 40.9919 11.4228 40.9367 11.7536C40.9122 11.9 40.8859 12.0453 40.8587 12.1866M41.0405 11.3318C41.0427 11.3306 41.0449 11.3302 41.0469 11.3304C41.6349 11.3766 41.299 12.7309 41.3455 12.9307C41.3913 13.1271 41.5975 12.5574 41.67 12.5471C41.7449 12.6975 41.8001 12.9791 41.8355 13.2018C41.8547 13.2622 41.8763 13.2154 42.03 13.1461M40.8587 12.1866C40.835 12.2311 40.8092 12.2659 40.7811 12.2901C40.7587 12.3094 40.7365 12.3264 40.7147 12.3413M40.8587 12.1866C40.8118 12.43 40.7621 12.6611 40.7139 12.8642M40.7147 12.3413C40.698 12.3526 40.6814 12.3627 40.6651 12.3715M40.7147 12.3413C40.7063 11.9585 40.6719 11.5097 40.5571 11.3742M40.7147 12.3413C40.7195 12.5615 40.7158 12.7599 40.7139 12.8642M40.6651 12.3715C40.613 12.3997 40.5626 12.4155 40.5137 12.4204M40.6651 12.3715C40.6943 12.664 40.7057 12.8127 40.7102 12.8799M40.6651 12.3715C40.6549 12.2694 40.6425 12.1497 40.6275 12.0099C40.6079 11.8271 40.5837 11.6101 40.5571 11.3742M40.5137 12.4204C40.4887 12.4229 40.4641 12.4226 40.4399 12.4197M40.5137 12.4204C40.4937 12.1086 40.4686 11.7347 40.4415 11.3419M40.5137 12.4204C40.517 12.4732 40.5203 12.5243 40.5233 12.5733C40.5485 12.9761 40.5619 13.236 40.5688 13.4037M40.4399 12.4197C40.34 12.4075 40.247 12.3504 40.1602 12.262M40.4399 12.4197C40.4647 12.6181 40.4868 12.8007 40.5045 12.9533C40.5299 13.1732 40.546 13.3303 40.5562 13.4421M40.4399 12.4197C40.4021 12.1188 40.3581 11.7818 40.3139 11.4591M40.1602 12.262C40.1263 12.2274 40.0933 12.188 40.0613 12.1447M40.1602 12.262C40.1584 12.2481 40.1567 12.2341 40.1549 12.2201C40.1426 12.1219 40.1313 12.0221 40.1209 11.9218M40.1602 12.262C40.2415 12.8941 40.3601 13.4323 40.4503 13.6205C40.4687 13.659 40.507 13.5886 40.5562 13.4421M40.0613 12.1447C39.8927 11.9162 39.7503 11.5772 39.631 11.2472M40.0613 12.1447C39.9965 12.4054 39.9382 12.6938 39.8764 12.9524C39.8299 13.1468 39.7 11.8291 39.631 11.2472M40.0613 12.1447C40.0805 12.0675 40.1003 11.9927 40.1209 11.9218M39.631 11.2472C39.6157 11.2049 39.6008 11.1628 39.5862 11.121M39.631 11.2472C39.6039 11.0189 39.5862 10.9039 39.5866 11.0377C39.5866 11.0654 39.5865 11.0931 39.5862 11.121M39.5862 11.121C39.4907 10.8469 39.4111 10.5899 39.3455 10.4214C39.2078 10.0678 39.1105 9.62965 39.0141 8.93891C38.9198 8.26257 38.8453 7.35224 38.8245 6.66211M39.5862 11.121C39.5777 11.9295 39.418 12.8231 39.4124 12.7297C39.3406 11.5351 39.3493 10.4568 39.3342 10.5653C39.1904 11.5956 38.9928 12.4043 38.9593 12.2732C38.8717 11.9304 38.801 11.4443 38.6543 11.0321M38.8245 6.66211C38.7951 7.64866 38.7567 8.95658 38.7267 9.7657C38.6873 10.8266 38.6641 10.9718 38.656 11.0224C38.6553 11.0264 38.6548 11.0297 38.6543 11.0321M38.6543 11.0321C38.6525 11.0402 38.651 11.0375 38.6467 11.0111M38.6543 11.0321C38.6518 11.0251 38.6492 11.018 38.6467 11.0111M38.6467 11.0111C38.6359 10.9444 38.6075 10.7268 38.5142 10.1489C38.3727 9.27308 38.0818 7.57141 37.9334 6.50987C37.785 5.44834 37.7879 5.07849 37.7138 5.35993C37.6397 5.64137 37.4884 6.5853 37.4173 7.02922C37.3598 7.38842 37.3754 6.49924 37.3633 5.3318C37.3605 5.05877 37.2587 5.96998 37.2191 7.14975C37.21 7.42207 37.2621 7.37417 37.3427 7.8414C37.4141 8.25552 37.5042 9.03431 37.5497 9.6068C37.6046 10.2972 37.6024 10.6671 37.5899 10.8702M38.6467 11.0111C38.5983 10.8784 38.5418 10.7538 38.474 10.6448M37.5899 10.8702C37.5878 10.9044 37.5854 10.9338 37.5829 10.9592M37.5899 10.8702C37.5873 10.9041 37.585 10.9336 37.5829 10.9592M37.5899 10.8702C37.5994 10.7443 37.6124 10.5578 37.6297 10.2826C37.6799 9.48594 37.7722 7.94244 37.82 7.23372C37.8678 6.52499 37.8683 6.69781 38.0443 7.8882C38.1492 8.59739 38.3163 9.66587 38.474 10.6448M37.5829 10.9592C37.572 11.0711 37.5597 11.1061 37.5648 11.1261C37.5656 11.1296 37.5702 11.1144 37.5829 10.9592ZM38.474 10.6448C38.5125 10.8839 38.5505 11.1176 38.5868 11.3395M38.474 10.6448C38.452 10.6095 38.4288 10.5757 38.4043 10.5439C38.3945 10.5311 38.3853 10.5223 38.3768 10.5174M38.5868 11.3395C38.6515 11.734 38.711 12.091 38.7596 12.3737C38.9475 13.4661 38.9611 13.3814 38.903 12.9965C38.8033 12.3363 38.6858 11.7633 38.5868 11.3395ZM38.5868 11.3395C38.5253 11.0761 38.471 10.8703 38.4325 10.7371C38.4128 10.6688 38.3941 10.5935 38.3768 10.5174M38.3768 10.5174C38.3423 10.3657 38.3133 10.211 38.292 10.103C38.2504 9.89136 38.2171 10.8226 38.1666 12.3369C38.1488 12.8677 38.1391 12.9161 38.1497 12.8935C38.2033 12.7799 38.2359 12.0504 38.2738 11.0151C38.2869 10.6562 38.3148 10.482 38.3768 10.5174ZM40.1209 11.9218C40.1772 11.7281 40.2398 11.5637 40.3139 11.4591M40.1209 11.9218C40.0624 11.3584 40.0332 10.7817 40.0283 10.4017C40.0225 9.95416 40.0497 9.78474 40.1515 10.372C40.1967 10.6322 40.2554 11.0332 40.3139 11.4591M40.3139 11.4591C40.3225 11.4469 40.3314 11.4354 40.3404 11.4249C40.3776 11.3813 40.4112 11.3544 40.4415 11.3419M40.4415 11.3419C40.487 11.323 40.5252 11.3365 40.5571 11.3742M40.4415 11.3419C40.3755 10.3864 40.298 9.31855 40.2552 8.75773C40.1919 7.92728 40.2045 8.20031 40.2941 9.03998C40.3623 9.67908 40.4723 10.6225 40.5571 11.3742M40.7139 12.8642C40.7134 12.8927 40.713 12.9142 40.713 12.9272C40.7129 12.9297 40.7127 12.9177 40.7102 12.8799M40.7139 12.8642C40.7126 12.8695 40.7114 12.8747 40.7102 12.8799M40.7102 12.8799C40.6596 13.092 40.6108 13.2727 40.5688 13.4037M40.5688 13.4037C40.5798 13.6701 40.5744 13.7037 40.5737 13.7082C40.5729 13.7132 40.5781 13.6811 40.5562 13.4421M40.5688 13.4037C40.5645 13.417 40.5603 13.4298 40.5562 13.4421M44.5031 8.10275C44.5271 8.21676 44.5511 8.33077 44.5577 9.12919C44.5642 9.92761 44.5526 11.407 44.5253 12.3022C44.4979 13.1974 44.4553 13.4637 44.3299 12.6194C44.2045 11.7752 43.9978 9.81236 43.9007 8.6543C43.8036 7.49623 43.8225 7.2024 43.7979 7.08998C43.7732 6.97757 43.7043 7.05549 43.531 7.86844C43.3576 8.68139 43.0817 10.227 43.0134 10.6066C42.9452 10.9862 43.0928 10.1528 43.2304 9.51516C43.4592 8.45505 43.6611 7.93792 43.7304 7.77217C43.7602 7.70094 43.7643 7.65144 43.7335 8.59092C43.7027 9.53041 43.6331 11.4592 43.5912 12.4028C43.5493 13.3463 43.5372 13.2461 43.3714 12.9157C43.2055 12.5853 42.8863 12.0278 42.6731 11.605C42.6504 11.5601 42.629 11.5167 42.6087 11.4746M42.6087 11.4746C42.3203 10.8778 42.2599 10.5633 42.2872 10.4736C42.3163 10.3781 42.522 10.4271 42.6147 10.4691C42.6503 10.5165 42.6624 10.6167 42.6448 10.9492C42.6373 11.0891 42.6246 11.2695 42.6087 11.4746ZM42.6087 11.4746C42.5867 11.7573 42.5587 12.0869 42.5302 12.4223M45.0709 5.8915C45.0985 5.89489 45.2015 6.57391 45.3454 8.15655C45.4275 9.06033 45.4194 10.1748 45.3721 11.1484C45.3603 11.3908 45.3444 11.6224 45.3263 11.8395M45.3263 11.8395C45.2727 12.4816 45.2002 12.9958 45.1599 13.2818L45.1576 13.2983C45.1046 13.6744 45.1162 13.6018 45.2398 12.5669C45.2647 12.3581 45.2942 12.1102 45.3263 11.8395ZM45.3263 11.8395C45.4532 10.7686 45.6211 9.34083 45.7108 8.56401C45.8232 7.59081 45.8058 7.69972 45.786 8.13088C45.7662 8.56203 45.7447 9.31212 45.6484 10.2742C45.552 11.2363 45.3816 12.3877 45.2061 13.5739M44.3665 12.6854C44.3252 12.7671 44.2185 13.0763 44.3213 13.4949C44.3467 13.5981 44.4044 13.6855 44.4525 13.7421C44.532 13.8356 44.7333 13.8523 44.9522 13.8607C45.2404 13.8718 45.4556 13.5193 45.6423 13.3349C45.8112 13.168 45.956 14.0363 46.1027 14.369C46.1687 14.4887 46.237 14.5977 46.3601 14.669C46.4475 14.6988 46.5857 14.7158 46.728 14.7333M46.775 14.4399C46.8198 14.1608 46.9691 13.5805 47.134 13.3506C47.3195 13.0921 47.5233 12.9621 47.7273 12.8002C47.9531 12.6209 48.2857 12.3715 48.5816 12.2194C48.8494 12.0817 49.1759 11.9686 49.6382 11.7889C50.0743 11.6194 50.5462 11.5885 51.1807 11.4681C52.4229 11.2324 53.2944 11.1406 53.4264 11.1133C53.7509 11.0461 54.1003 11.0774 54.4333 11.0439C54.9527 10.9917 55.4432 10.9561 55.7547 10.9693C56.1206 10.9848 56.7512 10.8558 57.3234 10.7699C57.6079 10.7271 57.9256 10.6509 58.2708 10.587C58.351 10.578 58.422 10.5744 58.4882 10.5638C58.5544 10.5532 58.6135 10.5358 58.8059 10.4967M38.0818 3.94792C37.9713 4.10747 37.7876 4.71834 37.7072 5.21983C37.6831 5.37037 37.6928 5.30986 37.6908 5.23463C37.6816 4.89558 37.7086 4.50259 37.7769 4.11742C37.8338 3.79664 38.1474 3.53342 38.2799 3.33115C38.4274 3.10604 38.819 3.06703 39.1563 3.05167C39.6495 3.02921 40.0514 3.90136 40.3198 4.27145C40.5241 4.55316 40.7026 4.99067 40.907 5.57465C41.1673 6.31828 41.2209 6.82612 41.251 6.99118C41.2966 7.24086 41.4208 7.8809 41.4771 8.72826C41.533 9.56858 41.4216 10.0155 41.4062 10.3324C41.3869 10.5859 41.3565 10.9543 41.3188 11.4111C41.2966 11.5946 41.2501 11.885 41.2021 12.1842M39.127 3.55288C39.217 3.70042 39.305 3.94758 39.5686 4.77142C39.612 4.90713 39.6603 5.06486 39.7116 5.23697M39.7116 5.23697C39.926 5.95688 40.1913 6.92835 40.3592 7.59166C40.5674 8.41356 40.6018 8.72629 40.6104 8.81224C40.6191 8.89818 40.6009 8.74787 40.3431 8.02289C40.0853 7.29791 39.5883 6.00281 39.3244 5.29764C39.0331 4.51963 39.0356 4.38975 39.0741 4.32585C39.0906 4.29842 39.158 4.32926 39.2073 4.37869C39.3003 4.50753 39.4145 4.68424 39.6873 5.18801C39.6952 5.20386 39.7033 5.22019 39.7116 5.23697ZM39.7116 5.23697C39.9168 5.65287 40.2408 6.34863 40.602 7.13706M40.0643 3.0324C40.1556 3.08065 40.4184 3.38556 40.8154 4.10689C41.0332 4.50277 41.1036 4.78668 41.1806 5.09745L41.1829 5.10655C41.3553 5.72082 41.4035 5.95073 41.5075 6.41149C41.527 6.51486 41.533 6.56496 41.5334 6.65326M45.9582 4.61699C45.8077 4.75929 45.6333 5.13647 45.5563 5.43868C45.4014 6.04648 45.2147 6.59274 45.122 6.94969C45.0234 7.32963 44.9139 7.9371 44.7922 8.52082C44.7554 8.69696 44.6928 8.61368 44.6514 8.51492C44.4581 8.05364 44.285 7.60402 44.2083 6.70554C44.2069 6.68915 44.2056 6.67301 44.2046 6.6571M44.2046 6.6571C44.1551 5.92306 44.4494 5.69793 44.6054 5.4179C44.7772 5.10958 45.1592 4.88224 45.3666 4.7561C45.6677 4.57299 44.8915 5.41772 44.7103 5.7464C44.5254 6.0818 44.3358 6.45211 44.2046 6.6571ZM44.2046 6.6571C44.1641 6.72022 44.1292 6.76766 44.1017 6.7936C44.0471 6.84509 43.9649 6.85194 43.9174 6.83413C43.85 6.76452 43.7978 6.64555 43.7623 6.46749C43.7585 6.35503 43.7837 6.19771 43.8097 6.03562M46.3578 4.25477C46.4236 4.37429 46.5515 4.63906 46.6771 4.92225C46.8992 5.42286 46.9703 5.93652 46.9621 6.16679C46.9576 6.28918 47.0265 6.82518 47.01 7.86065C46.8677 9.06576 46.7402 9.7733 46.7027 9.87432C46.6867 9.92864 46.677 9.98915 46.667 10.0515M46.1044 5.56981C46.1965 5.87917 46.3014 6.29032 46.5078 7.21764C46.5994 7.62914 46.6601 8.48532 46.6682 9.02236C46.6692 9.09058 46.6646 9.17691 46.5765 9.77206C46.4884 10.3672 46.3119 11.4685 46.2054 12.0894C45.9869 13.2305 45.8591 13.9399 45.8079 14.1264C45.786 14.2177 45.7724 14.3024 45.7166 14.3846M45.9428 5.51255C45.9389 5.53676 45.9097 5.71865 45.8623 6.19053C45.7889 6.92108 45.7932 7.51195 45.7563 7.8737C45.7034 8.87141 45.6348 9.38762 45.6254 9.57924C45.6178 9.67234 45.6042 9.75705 45.5902 9.84433M46.9057 5.63093C46.8921 5.71601 46.9384 6.8338 46.9276 7.6701C46.9198 8.26744 46.7542 9.15054 46.7492 9.49321C46.7452 9.77227 46.6879 10.1879 46.646 10.6706C46.6301 10.8536 46.6065 11.0492 46.5431 11.5756L46.5415 11.5892C46.3622 12.7535 46.1971 13.6075 46.125 13.7914C46.096 13.8819 46.0824 13.9666 46.0684 14.0539" stroke="#608472" stroke-width="3" stroke-linecap="round"/>
<path d="M33.2537 14.1873C33.2611 14.1682 33.2729 14.1413 33.2895 14.1076C32.5649 14.1497 32.1446 14.2441 32.0581 14.2277C31.9681 14.2106 32.0207 14.0536 32.0584 13.9516C32.1042 13.8276 32.3622 13.706 32.7358 13.5635C33.1247 13.4153 33.614 13.3932 34.3994 13.4086C34.4408 13.3918 34.4834 13.3746 34.527 13.357C35.1784 13.0936 35.922 13.0862 36.7458 13.0806C37.2254 13.0774 37.8289 13.1443 38.109 13.1846C38.3892 13.2249 38.3275 13.2547 38.243 13.2885C38.0762 13.3552 37.6432 13.4669 37.0178 13.6021C37.6141 13.639 37.9596 13.6362 38.1832 13.6284C38.425 13.62 38.5126 13.6059 37.8647 13.6629C37.2169 13.7199 35.8309 13.8485 35.0651 13.9271C33.9969 14.0367 33.717 14.3233 33.4923 14.4227C33.4051 14.4613 33.4578 14.2303 33.4408 14.1589C33.4335 14.1283 33.3582 14.1418 33.2967 14.1655C33.282 14.1712 33.2677 14.1785 33.2537 14.1873C32.9825 14.3587 32.8481 15.1029 32.8587 15.5456C32.8605 15.6186 32.8904 15.706 32.8896 15.7134C32.8348 16.2487 32.2294 14.4567 32.1832 14.4316C31.8726 14.2627 32.0839 15.0904 32.1432 15.4386C32.163 15.5548 32.1973 15.6619 32.2413 15.7617C32.4375 15.7838 32.6081 15.8229 32.696 15.8984C32.8155 16.0011 32.9365 16.1054 32.9859 16.2364C33.0111 16.3029 33.0203 16.4035 32.9805 16.3985C32.8818 16.386 32.6431 16.3686 32.5041 16.1881C32.4053 16.06 32.3112 15.9201 32.2413 15.7617C32.1334 15.7495 32.0178 15.7424 31.904 15.7372C31.7917 15.7322 31.7844 15.7973 31.8164 15.8643C31.9639 16.1736 32.2235 16.2794 32.416 16.4229C32.7321 16.6585 33.353 16.6704 33.676 16.7605C33.9201 16.8286 34.1921 16.8996 34.5741 16.9779C35.4691 17.1613 35.8858 17.0829 36.3154 17.054C36.6859 17.029 37.0953 16.9802 37.4661 16.9563C37.8369 16.9324 38.1816 16.925 39.1067 16.9009C39.8159 16.8824 41.1759 16.8189 41.9782 16.7771C43.3494 16.7056 43.8072 16.6976 44.0572 16.7093C44.3805 16.7244 44.7509 16.7253 45.0657 16.7327C45.6502 16.7463 45.9637 16.774 46.3116 16.7601C46.584 16.7493 46.9311 16.6543 47.3719 16.5071C47.7054 16.3957 48.2534 16.2884 48.7239 16.1386C48.8769 16.0899 48.9852 16.0382 49.0306 15.9809C49.1346 15.8497 48.6324 15.919 48.3371 15.9702C47.7804 16.0669 47.4283 16.085 46.5708 16.1618C46.2664 16.189 45.8932 16.1976 45.2013 16.1757C44.8511 16.1647 44.422 16.1437 44.0121 16.1218C43.9289 16.13 43.846 16.1379 43.764 16.1455C43.2103 16.1969 42.6826 16.2781 42.3644 16.3317C42.0621 16.3827 41.7979 16.4615 40.8372 16.4598C40.0984 16.4584 38.7359 16.4404 38.0095 16.4387C37.2832 16.437 37.1957 16.4555 36.9907 16.4577C36.473 16.4631 35.7582 16.5294 35.0867 16.5951C34.4025 16.662 34.0155 16.8444 33.803 16.6879C33.6169 16.5511 33.4156 16.3708 33.427 16.1251C33.4328 16.0003 33.4354 15.7951 33.5942 15.7623C33.7649 15.7271 33.9388 15.7127 34.089 15.7229C34.438 15.7467 34.9493 15.7715 35.6139 15.8033C36.1223 15.8277 36.6908 15.8335 37.6639 15.8536C38.4 15.8687 39.0172 15.8631 39.3932 15.8904C39.8974 15.9271 40.408 15.9598 41.1577 15.9941C41.6518 16.0167 42.1924 16.0229 42.9582 16.0638C43.2303 16.0784 43.6121 16.1005 44.0121 16.1218C44.7377 16.0508 45.4776 15.963 45.7428 15.9165C46.1955 15.8371 46.4725 15.5787 46.6084 15.4067C46.6413 15.3651 46.6177 15.3074 46.5587 15.2745C46.4081 15.1903 46.1257 15.1582 45.7247 15.0273C45.1268 14.8323 44.362 14.6148 43.5676 14.3413C42.7708 14.0669 42.2307 13.9995 42.0279 13.9683C41.28 13.8534 40.233 13.7411 39.6499 13.7949C39.2411 13.8327 38.8396 13.9216 37.8744 14.0357C37.5834 14.0701 36.9459 14.1037 36.0793 14.1795C35.1726 14.2588 34.1798 14.3938 33.9902 14.496C33.7258 14.6385 34.7833 14.7322 35.8066 14.9208C36.0163 14.9595 36.2108 15.0121 36.4174 15.0683C36.7491 15.1073 37.0143 15.1461 37.2003 15.1796C37.2151 15.1823 37.2294 15.185 37.2432 15.1876C38.0425 15.2588 38.9072 15.3342 39.5818 15.3789C39.7207 15.3631 39.8976 15.3428 40.1379 15.3166C40.6856 15.257 41.6736 15.1066 42.3647 15.0567C43.9725 14.9409 44.4112 15.0856 44.3942 15.1082C44.2285 15.3289 43.244 15.3306 42.1867 15.4333C41.6415 15.4863 41.3061 15.471 39.9914 15.4034C39.8656 15.3969 39.7282 15.3886 39.5818 15.3789C39.3474 15.4055 39.2215 15.419 39.0827 15.4249C38.8207 15.4361 38.2534 15.4244 37.5427 15.3148C37.5511 15.3457 37.5483 15.3798 37.5367 15.4036C37.4189 15.6447 36.9515 15.6529 36.8618 15.6736C36.8459 15.6773 36.8973 15.6225 36.8821 15.5887C36.8392 15.494 36.4358 15.4767 36.0721 15.4133C36.0529 15.3642 36.3767 15.2919 36.9743 15.2096C36.868 15.1859 36.7682 15.1613 36.6727 15.1366C36.3075 15.1039 35.9724 15.0743 35.6967 15.0515C34.3215 14.9381 34.0501 14.9316 34.057 14.9264C34.1169 14.881 34.3665 14.8961 34.9398 14.9347C35.5149 14.9734 36.015 15.021 36.4174 15.0683C36.2108 15.0121 36.0163 14.9595 35.8066 14.9208C34.7833 14.7322 33.7258 14.6385 33.9902 14.496C34.1798 14.3938 35.1726 14.2588 36.0793 14.1795C36.9459 14.1037 37.5834 14.0701 37.8744 14.0357C38.8396 13.9216 39.2411 13.8327 39.6499 13.7949C40.233 13.7411 41.28 13.8534 42.0279 13.9683C42.2307 13.9995 42.7708 14.0669 43.5676 14.3413C44.362 14.6148 45.1268 14.8323 45.7247 15.0273C46.1257 15.1582 46.4081 15.1903 46.5587 15.2745C46.6177 15.3074 46.6413 15.3651 46.6084 15.4067C46.4725 15.5787 46.1955 15.8371 45.7428 15.9165C45.4776 15.963 44.7377 16.0508 44.0121 16.1218C44.422 16.1437 44.8511 16.1647 45.2013 16.1757C45.8932 16.1976 46.2664 16.189 46.5708 16.1618C47.4283 16.085 47.7804 16.0669 48.3371 15.9702C48.6324 15.919 49.1346 15.8497 49.0306 15.9809C48.9852 16.0382 48.8769 16.0899 48.7239 16.1386C48.2534 16.2884 47.7054 16.3957 47.3719 16.5071C46.9311 16.6543 46.584 16.7493 46.3116 16.7601C45.9637 16.774 45.6502 16.7463 45.0657 16.7327C44.7509 16.7253 44.3805 16.7244 44.0572 16.7093C43.8072 16.6976 43.3494 16.7056 41.9782 16.7771C41.1759 16.8189 39.8159 16.8824 39.1067 16.9009C38.1816 16.925 37.8369 16.9324 37.4661 16.9563C37.0953 16.9802 36.6859 17.029 36.3154 17.054C35.8858 17.0829 35.4691 17.1613 34.5741 16.9779C34.1921 16.8996 33.9201 16.8286 33.676 16.7605C33.353 16.6704 32.7321 16.6585 32.416 16.4229C32.2235 16.2794 31.9639 16.1736 31.8164 15.8643C31.7844 15.7973 31.7917 15.7322 31.904 15.7372C32.0178 15.7424 32.1334 15.7495 32.2413 15.7617C32.1973 15.6619 32.163 15.5548 32.1432 15.4386C32.0839 15.0904 31.8726 14.2627 32.1832 14.4316C32.2294 14.4567 32.8348 16.2487 32.8896 15.7134C32.8904 15.706 32.8605 15.6186 32.8587 15.5456C32.8481 15.1029 32.9825 14.3587 33.2537 14.1873Z" fill="#AF6666"/>
<path d="M33.2446 14.2161C33.2485 14.1917 33.2941 14.0848 33.3919 13.9209C33.4723 13.7862 33.8836 13.6171 34.527 13.357C35.1784 13.0936 35.922 13.0862 36.7458 13.0806C37.2254 13.0774 37.8289 13.1443 38.109 13.1846C38.3892 13.2249 38.3275 13.2547 38.243 13.2885C38.0553 13.3635 37.5303 13.4957 36.7736 13.6541C36.1821 13.7779 35.5389 13.8175 34.9042 13.9281C34.256 14.0409 34.016 14.0716 33.395 14.1019C32.6057 14.1404 32.1487 14.2449 32.0581 14.2277C31.9681 14.2106 32.0207 14.0536 32.0584 13.9516C32.1042 13.8276 32.3622 13.706 32.7358 13.5635C33.1548 13.4038 33.6902 13.3906 34.5868 13.4128C35.2118 13.4283 36.1768 13.5452 36.8669 13.5923C37.5569 13.6394 37.9413 13.6368 38.1832 13.6284C38.425 13.62 38.5126 13.6059 37.8647 13.6629C37.2169 13.7199 35.8309 13.8485 35.0651 13.9271C33.9969 14.0367 33.717 14.3233 33.4923 14.4227C33.4051 14.4613 33.4578 14.2303 33.4408 14.1589C33.4335 14.1283 33.3582 14.1418 33.2967 14.1655C32.9967 14.2813 32.8475 15.0801 32.8587 15.5456C32.8605 15.6186 32.8904 15.706 32.8896 15.7134C32.8348 16.2487 32.2294 14.4567 32.1832 14.4316C31.8726 14.2627 32.0839 15.0904 32.1432 15.4386C32.1944 15.7392 32.3432 15.9792 32.5041 16.1881C32.6431 16.3686 32.8818 16.386 32.9805 16.3985C33.0203 16.4035 33.0111 16.3029 32.9859 16.2364C32.9365 16.1054 32.8155 16.0011 32.696 15.8984C32.5598 15.7814 32.2249 15.7518 31.904 15.7372C31.7917 15.7322 31.7844 15.7973 31.8164 15.8643C31.9639 16.1736 32.2235 16.2794 32.416 16.4229C32.7321 16.6585 33.353 16.6704 33.676 16.7605C33.9201 16.8286 34.1921 16.8996 34.5741 16.9779C35.4691 17.1613 35.8858 17.0829 36.3154 17.054C36.6859 17.029 37.0953 16.9802 37.4661 16.9563C37.8369 16.9324 38.1816 16.925 39.1067 16.9009C39.8159 16.8824 41.1759 16.8189 41.9782 16.7771C43.3494 16.7056 43.8072 16.6976 44.0572 16.7093C44.3805 16.7244 44.7509 16.7253 45.0657 16.7327C45.6502 16.7463 45.9637 16.774 46.3116 16.7601C46.584 16.7493 46.9311 16.6543 47.3719 16.5071C47.7054 16.3957 48.2534 16.2884 48.7239 16.1386C48.8769 16.0899 48.9852 16.0382 49.0306 15.9809C49.1346 15.8497 48.6324 15.919 48.3371 15.9702C47.7804 16.0669 47.4283 16.085 46.5708 16.1618C46.2664 16.189 45.8932 16.1976 45.2013 16.1757C44.5093 16.1539 43.5092 16.0933 42.9582 16.0638C42.1924 16.0229 41.6518 16.0167 41.1577 15.9941C40.408 15.9598 39.8974 15.9271 39.3932 15.8904C39.0172 15.8631 38.4 15.8687 37.6639 15.8536C36.6908 15.8335 36.1223 15.8277 35.6139 15.8033C34.9493 15.7715 34.438 15.7467 34.089 15.7229C33.9388 15.7127 33.7649 15.7271 33.5942 15.7623C33.4354 15.7951 33.4328 16.0003 33.427 16.1251C33.4156 16.3708 33.6169 16.5511 33.803 16.6879C34.0155 16.8444 34.4025 16.662 35.0867 16.5951C35.7582 16.5294 36.473 16.4631 36.9906 16.4577C37.1957 16.4555 37.2832 16.437 38.0095 16.4387C38.7359 16.4404 40.0984 16.4584 40.8372 16.4598C41.7979 16.4615 42.0621 16.3827 42.3644 16.3317C42.6826 16.2781 43.2103 16.1969 43.764 16.1455C44.562 16.0714 45.4472 15.9683 45.7428 15.9165C46.1955 15.8371 46.4725 15.5787 46.6084 15.4067C46.6413 15.3651 46.6177 15.3074 46.5587 15.2745C46.4081 15.1903 46.1257 15.1582 45.7247 15.0273C45.1268 14.8323 44.362 14.6148 43.5676 14.3413C42.7708 14.0669 42.2307 13.9995 42.0279 13.9683C41.28 13.8534 40.233 13.7411 39.6499 13.7949C39.2411 13.8327 38.8396 13.9216 37.8744 14.0357C37.5834 14.0701 36.9459 14.1037 36.0793 14.1795C35.1726 14.2588 34.1798 14.3938 33.9902 14.496C33.7258 14.6385 34.7833 14.7322 35.8066 14.9208C36.2512 15.0028 36.6273 15.1476 37.1965 15.2553C38.067 15.4201 38.7793 15.4378 39.0827 15.4249C39.3037 15.4155 39.4922 15.3869 40.1379 15.3166C40.6856 15.257 41.6736 15.1066 42.3647 15.0567C43.9725 14.9409 44.4112 15.0856 44.3942 15.1082C44.2285 15.3289 43.244 15.3306 42.1867 15.4333C41.6415 15.4863 41.3061 15.471 39.9914 15.4034C38.862 15.3453 36.8018 15.1426 35.6967 15.0515C34.3215 14.9381 34.0501 14.9316 34.057 14.9264C34.1169 14.881 34.3665 14.8961 34.9398 14.9347C36.4257 15.0347 37.4117 15.1938 37.5023 15.255C37.5502 15.2873 37.5572 15.3616 37.5367 15.4036C37.4189 15.6447 36.9515 15.6529 36.8618 15.6736C36.8459 15.6773 36.8973 15.6225 36.8821 15.5887C36.8392 15.494 36.4358 15.4767 36.0721 15.4133C36.049 15.3544 36.5211 15.2618 37.3684 15.1587C37.8214 15.1192 38.3214 15.106 38.921 15.1027" stroke="#608472" stroke-width="2" stroke-linecap="round"/>
<path d="M43 33.3333V56.6667M31.3333 45H54.6666" stroke="#DDBFBF" stroke-width="3.5" stroke-linecap="round" stroke-linejoin="round"/>
</svg>
