<svg width="152" height="158" viewBox="0 0 152 158" fill="none" xmlns="http://www.w3.org/2000/svg">
<g id="launchscreen2">
<ellipse id="tomato body" cx="76" cy="91.7959" rx="76" ry="65.4098" fill="#AD3232"/>
<g id="tomato stem">
<g id="Vector">
<path d="M79.4308 31.7231C78.6002 31.8662 77.4324 32.1128 76.157 32.3137C72.6045 32.8732 69.7767 32.8013 68.2174 32.8435C67.7828 32.8553 67.3623 32.8468 66.9566 32.8221C66.832 32.8484 66.7049 32.8761 66.5751 32.9051C64.4394 33.3834 62.7414 33.679 61.6493 33.1604C61.2227 32.9577 60.7995 32.6876 60.3711 32.4777C59.7736 32.4769 59.0967 32.4248 58.7462 32.351C58.536 32.3067 58.7884 32.1857 59.0236 32.16C59.4845 32.1095 59.9305 32.2618 60.3711 32.4777C61.1592 32.4787 61.8094 32.3902 61.3909 32.1439C60.749 31.7659 59.0217 31.9057 58.9671 30.9367C58.9345 30.3564 58.9847 29.7112 59.3219 29.4617C59.485 29.3411 59.7166 29.3165 59.9396 29.3781C60.1626 29.4396 60.4338 29.5682 60.4546 29.7987C60.4991 30.2942 60.3351 31.0702 60.7747 31.225C61.845 31.6016 64.0066 32.6422 66.9566 32.8221C71.0501 31.9564 72.3868 32.5213 73.9718 32.1842C75.6306 31.8314 77.8448 31.7337 79.4308 31.7231Z" fill="#A73A3A"/>
<path d="M87.66 26.2286C88.2136 25.6993 88.7404 25.2026 89.0574 24.9097C89.9033 24.128 91.356 23.9046 92.8644 23.627C93.9237 23.4322 95.1441 23.4137 96.182 23.4077C96.5959 23.2812 96.994 23.1593 97.3686 23.0438C99.2334 22.4688 102.798 21.4555 101.834 21.7447C101.441 21.8625 100.828 22.054 100.308 22.3387C99.8339 22.5983 99.4136 22.8966 99.0237 23.22C99.7658 23.1046 100.57 22.9403 101.466 22.7027C101.991 22.5635 102.473 22.4745 102.93 22.4231C104.055 22.1465 106.616 21.2503 106.601 21.6607C107.14 21.4145 107.621 21.272 108.044 21.464C108.234 21.5504 108.45 21.7704 108.352 21.9118C108.134 22.2261 107.49 22.7523 106.411 23.1953C105.155 23.7113 103.891 23.7933 102.859 24.2812C101.833 24.7669 100.631 25.0114 99.2707 25.6557C100.577 25.3496 100.326 25.5358 99.011 25.8823C98.8758 25.9179 98.7418 25.9532 98.6091 25.9883C97.2229 26.7105 95.679 27.6423 94.3675 28.5369C93.2471 29.3011 91.3525 30.2427 89.7387 30.3041C89.4189 30.3163 89.0889 30.2276 89.4265 29.9353C90.1882 29.2758 92.5657 27.947 93.5562 27.3536C93.2354 27.4421 92.9301 27.5268 92.6406 27.6073C92.3348 27.7371 91.9868 27.8849 91.6252 28.0389C90.528 28.6261 89.5146 28.995 89.1304 29.1503C87.2296 29.9187 89.6353 28.886 91.6252 28.0389C91.7985 27.9461 91.9738 27.8479 92.1491 27.7442C91.4616 27.9362 90.8782 28.1006 90.4057 28.2338C88.5554 29.1689 87.1832 29.9853 87.8745 29.4642C88.1138 29.2837 88.6093 28.8922 89.9067 28.3742C89.0457 28.6161 88.7504 28.695 89.096 28.5698C90.1898 28.1736 91.7433 27.3563 93.1651 26.8926C93.2962 26.8498 93.4266 26.8049 93.5574 26.7578C93.7109 26.628 93.8588 26.4931 93.9991 26.3529C92.2339 26.8091 89.8287 27.4567 88.016 27.9346C87.4772 28.2637 87.1345 28.506 87.0162 28.5952C86.7331 28.8086 87.0772 28.5224 87.792 27.9936C87.4828 28.0749 87.1936 28.1505 86.9308 28.2184C84.8526 28.7557 84.3281 28.9039 84.2865 28.7298C84.2152 28.4311 84.3537 27.8963 84.7638 27.6143C85.5531 27.0717 86.6831 26.646 87.66 26.2286Z" fill="#A73A3A"/>
<path d="M58.8395 23.973C58.2996 23.5648 57.5293 22.9554 56.7087 22.304C55.5845 21.4971 54.3728 20.6398 53.5775 20.0715C52.246 19.1201 52.1576 19.0321 52.1846 19.0977C52.2985 19.3739 52.7431 19.8668 53.3341 20.4718C54.0448 20.968 54.7095 21.4278 55.2097 21.7695C56.534 22.6741 56.7463 22.7698 56.7212 22.763C56.6223 22.7361 55.0247 22.182 53.5571 20.6985C53.4808 20.6214 53.4064 20.5458 53.3341 20.4718C52.4247 19.837 51.4398 19.1427 50.6278 18.5609C50.8023 18.7367 50.9688 18.9135 51.1291 19.1038C51.6566 19.7298 52.292 20.6327 52.973 21.3407C54.1498 22.564 54.8487 23.2739 55.3275 23.7639C56.0409 24.1404 56.8076 24.4984 57.2609 24.7084C57.7328 24.9271 58.1782 25.2441 58.7329 25.551C59.3344 25.8838 59.5195 26.5775 59.5222 26.7432C59.5286 27.1367 57.9915 26.2913 57.2793 25.7818C56.8268 25.458 56.5521 25.0693 56.1007 24.5735C55.8919 24.3442 55.664 24.1083 55.3275 23.7639C55.1744 23.6831 55.0238 23.6015 54.8792 23.5203C54.3139 23.2026 53.6414 22.7066 52.9644 22.1937C53.1155 22.4419 53.2094 22.6251 53.251 22.7493C53.3136 22.9367 53.3422 23.0919 53.0669 22.9212C52.7916 22.7505 52.2294 22.2685 51.3976 21.3272C50.9006 20.7647 50.3188 20.0529 49.7796 19.3571C49.2158 18.7894 48.441 17.9608 47.6102 16.9234C47.0515 16.2259 46.8167 15.9283 46.4377 15.3068C46.2714 15.0341 46.1185 14.7797 45.9764 14.5416C45.1775 13.914 44.906 13.542 44.4981 13.2233C44.3152 13.0804 44.1655 12.8709 43.9128 12.6831C43.7767 12.582 43.6107 12.4884 43.7307 12.7812C44.1526 13.8109 45.1383 15.1382 45.8906 16.2103C46.4225 16.9683 46.7752 17.2811 47.2872 17.8863C48.1953 18.9593 48.8282 19.6794 49.3472 20.352C49.9948 21.1911 50.9435 22.3949 51.2285 22.8178C51.5427 23.284 51.8171 23.6123 52.1062 23.9972C52.47 24.4815 53.2044 25.1293 54.4905 26.2004C55.1784 26.7732 55.7792 27.0955 56.6708 27.539C57.183 27.7937 57.5901 27.9871 57.7616 27.9486C58.5064 27.7812 56.7227 26.5957 55.8026 25.8051C55.4425 25.4956 55.1138 25.2054 54.8092 24.9268C54.5003 24.6771 54.1974 24.4326 53.9134 24.2079C53.5957 24.0333 53.3007 23.8704 53.0547 23.7318C51.9135 23.0889 51.5929 22.8708 51.3486 22.7098C51.234 22.6343 51.1855 22.5098 51.2285 22.4639C51.7529 22.6116 52.4654 23.1437 53.2729 23.7132C53.4697 23.8602 53.6854 24.0276 53.9134 24.2079C54.016 24.2643 54.121 24.322 54.2275 24.3804C53.8082 23.9751 53.4335 23.5851 53.0781 23.1839C52.8523 22.929 52.6465 22.6416 52.6557 22.639C52.6648 22.6365 52.9019 22.9217 53.6092 23.5665C54.0049 23.9272 54.5455 24.3977 55.0853 24.8524C55.6457 25.1622 56.1833 25.4639 56.5748 25.6989C57.6462 26.3421 58.4734 26.9954 58.114 26.9796C57.9873 26.974 57.4469 26.7461 56.2877 25.8358C55.9349 25.5587 55.5103 25.2104 55.0853 24.8524C54.7998 24.6946 54.5085 24.5347 54.2275 24.3804C54.412 24.5588 54.6052 24.7402 54.8092 24.9268C55.1138 25.2054 55.4425 25.4956 55.8026 25.8051C56.7227 26.5957 58.5064 27.7812 57.7616 27.9486C57.5901 27.9871 57.183 27.7937 56.6708 27.539C55.7792 27.0955 55.1784 26.7732 54.4905 26.2004C53.2044 25.1293 52.47 24.4815 52.1062 23.9972C51.8171 23.6123 51.5427 23.284 51.2285 22.8178C50.9435 22.3949 49.9948 21.1911 49.3472 20.352C48.8282 19.6794 48.1953 18.9593 47.2872 17.8863C46.7752 17.2811 46.4225 16.9683 45.8906 16.2103C45.1383 15.1382 44.1526 13.8109 43.7307 12.7812C43.6107 12.4884 43.7767 12.582 43.9128 12.6831C44.1655 12.8709 44.3152 13.0804 44.4981 13.2233C44.906 13.542 45.1775 13.914 45.9764 14.5416C45.517 13.772 45.1694 13.1722 44.8423 12.6749C44.7428 12.6032 44.6429 12.5319 44.5435 12.4609L44.5315 12.4523C43.4763 11.6987 43.2173 11.288 42.885 10.9356C42.7981 10.8435 42.7068 10.7583 42.7107 10.7199C42.7408 10.4202 43.4304 11.0095 43.9647 11.5547C44.2828 11.8795 44.5547 12.2376 44.8423 12.6749C45.2941 13.0002 45.7385 13.3319 46.0905 13.6628C46.5882 14.1308 47.2401 14.9297 48.3135 16.2259C48.4712 16.4163 48.6602 16.6366 48.868 16.8769C49.2605 17.2389 49.6719 17.6296 50.0056 17.9536C50.225 18.1666 50.4315 18.3632 50.6278 18.5609C51.4398 19.1427 52.4247 19.837 53.3341 20.4718C52.7431 19.8668 52.2985 19.3739 52.1846 19.0977C52.1576 19.0321 52.246 19.1201 53.5775 20.0715C54.3728 20.6398 55.5845 21.4971 56.7087 22.304C57.4666 22.848 58.1848 23.3692 58.7085 23.7634C60.0091 24.7422 60.1084 24.9325 58.8395 23.973Z" fill="#A73A3A"/>
<path d="M54.6689 20.9578C54.5661 20.9113 54.507 20.8867 54.4713 20.8703C54.3945 20.8353 54.4295 20.8405 54.6689 20.9578Z" fill="#A73A3A"/>
<path d="M52.2645 17.3183C51.6587 16.8651 50.7195 16.1703 49.8956 15.5069C49.8358 15.4835 49.7778 15.4624 49.7205 15.4427C49.5587 15.387 50.0435 16.0786 50.6302 16.8728C51.2169 17.6671 52.0947 18.7728 52.6689 19.4604C52.8877 19.7224 53.0949 19.9517 53.2913 20.1542C54.3963 20.906 55.6042 21.6391 56.337 22.038C56.3548 22.0477 56.3723 22.0572 56.3895 22.0665C55.8315 21.5446 54.668 20.53 53.3645 19.4137C51.2798 17.6285 51.1435 17.1842 51.1598 17.1472C51.2106 17.0315 51.551 17.4903 52.6037 18.3721C53.6564 19.2539 55.4631 20.7419 56.438 21.5525C57.4129 22.3631 57.5013 22.4511 57.4357 22.4808C57.3715 22.5099 57.1574 22.4807 56.3895 22.0665C56.6669 22.3258 56.7947 22.4634 56.7159 22.4313C56.4743 22.3329 55.8629 22.0726 55.3589 21.7565C54.8241 21.421 54.1628 21.0524 53.2913 20.1542C53.0949 19.9517 52.8877 19.7224 52.6689 19.4604C52.0947 18.7728 51.2169 17.6671 50.6302 16.8728C50.0435 16.0786 49.5587 15.387 49.7205 15.4427C49.7778 15.4624 49.8358 15.4835 49.8956 15.5069C50.4353 15.7177 51.1245 16.1147 52.7819 17.3905C53.1284 17.6572 53.5437 17.9847 53.9942 18.3412C54.0661 18.3703 54.137 18.3982 54.2088 18.4267C54.7366 18.6365 55.6461 19.3125 56.7025 20.1219C57.9696 21.0927 59.5589 22.2818 60.3131 22.8075C60.5041 22.9407 60.7291 23.0064 60.7413 23.0341C60.8159 23.2039 59.7938 22.6751 57.8025 21.2707C56.73 20.5143 55.2297 19.3188 53.9942 18.3412C53.5729 18.1705 53.1191 17.9575 52.2645 17.3183Z" fill="#A73A3A"/>
<path d="M37.9516 30.19C37.9111 30.1825 37.8712 30.174 37.8318 30.1647C37.3753 30.0565 38.6696 29.3299 39.8193 28.9309C40.5892 28.6636 41.2128 28.6164 42.9859 28.5599C44.1436 28.523 45.1104 28.5771 46.5752 28.5548C48.5523 28.5247 49.8327 28.6291 51.0935 28.8061C51.4896 28.8617 51.3907 28.8478 51.0947 28.8818L51.0758 28.884C50.2906 28.9743 49.3937 29.0774 48.4813 29.125C47.8183 29.1597 47.2736 29.2081 46.8226 29.2598C45.8295 29.3735 45.291 29.5027 44.9449 29.5334C43.7311 29.6411 41.5016 29.877 40.5746 30.0389C39.9676 30.1449 39.437 30.2484 39.0732 30.4771C38.952 30.5533 38.8091 30.6095 38.6551 30.6501C38.5912 30.9759 38.2263 31.2578 37.8834 31.5513C37.8477 31.5819 37.8122 31.6126 37.7773 31.6435C37.3953 31.9818 36.6384 32.0696 36.1245 32.0998C36.0572 32.1037 36.6936 31.8681 37.8834 31.5513C38.2263 31.2578 38.5912 30.9759 38.6551 30.6501C38.0357 30.8135 37.2377 30.7242 36.9595 30.6656C36.5639 30.5823 37.4301 30.3159 37.9516 30.19Z" fill="#A73A3A"/>
<path d="M44.6114 32.3218C45.2082 32.1843 45.608 32.0826 46.0695 31.9839C47.1175 31.7596 48.2773 31.5685 49.1451 31.4853C49.3643 31.4643 49.6466 31.4293 50.7198 31.352C51.7929 31.2748 53.6486 31.1573 54.8496 31.0556C56.0507 30.9539 56.5409 30.8715 56.857 30.8254C57.173 30.7793 57.3 30.7719 56.7996 30.9407C56.2991 31.1094 55.1674 31.4544 53.3479 31.7358C51.5284 32.0171 49.0555 32.2243 46.5272 32.2936C46.2189 32.302 45.9108 32.3083 45.6049 32.3129C45.382 32.3162 45.1603 32.3185 44.9404 32.3201C44.5725 32.4169 44.1857 32.5062 43.8001 32.5878C44.4642 33.2281 41.0993 33.2067 40.7005 33.2131C39.8398 33.2268 41.8032 33.0104 43.8001 32.5878C43.7811 32.5695 43.7589 32.5507 43.7332 32.5313C43.7279 32.5273 43.7219 32.5239 43.7151 32.521C43.618 32.4789 43.3739 32.5422 43.091 32.5568C42.36 32.5947 40.7716 32.7827 38.9431 32.8023C38.1039 32.8112 37.2013 32.9587 36.5786 32.9144C36.4183 32.9029 36.5522 32.8123 36.8151 32.7166C37.4447 32.4874 38.1853 32.2576 40.0177 32.2744C41.1141 32.2844 42.7853 32.3286 44.6114 32.3218Z" fill="#A73A3A"/>
<path d="M69.4483 12.8017C69.7037 15.1836 69.9943 18.023 70.1759 19.6568C70.4283 21.9276 70.456 21.73 70.5084 19.9203C70.5609 18.1107 70.6371 14.695 70.7371 12.503C70.8371 10.3111 70.9584 9.44633 71.0108 9.16319C71.0203 9.11167 71.0725 10.0754 71.1151 12.7473C71.1491 14.8828 71.0385 18.6022 70.9928 20.5922C70.9471 22.5822 70.9263 22.7305 71.0665 21.7321C71.2066 20.7337 71.5083 18.5841 71.8386 16.8589C72.1689 15.1337 72.5187 13.8979 72.745 13.3811C72.9714 12.8643 73.0637 13.104 73.1358 14.5788C73.2016 15.9259 73.2482 18.2974 73.2345 20.2525C73.2543 19.7036 73.2743 19.184 73.2941 18.7519C73.3571 17.3785 73.416 16.9585 73.4342 16.8286C73.4525 16.6987 73.4282 16.8717 73.4391 17.871C73.45 18.8704 73.4968 20.6909 73.4429 22.1847C73.4307 22.5228 73.4133 22.8414 73.3901 23.1354C73.3275 23.9277 73.2227 24.5418 73.0649 24.8806C72.981 25.3774 72.8921 25.8493 72.806 26.2641C72.805 26.3222 72.8043 26.366 72.8043 26.3925C72.8043 26.3978 72.8037 26.3731 72.7993 26.2961C72.7088 26.7291 72.6215 27.098 72.5465 27.3654C72.5662 27.9093 72.5566 27.978 72.5553 27.9872C72.5538 27.9974 72.563 27.9318 72.524 27.4439C72.4361 27.7429 72.3676 27.8866 72.3346 27.8081C72.1734 27.4239 71.9612 26.3251 71.8159 25.0345C71.7552 24.9639 71.6963 24.8835 71.639 24.795C71.5231 25.3273 71.4189 25.9161 71.3083 26.4441C71.2252 26.8409 70.9929 24.1506 70.8694 22.9626C70.8421 22.8763 70.8154 22.7903 70.7894 22.705C70.7741 24.3556 70.4885 26.18 70.4785 25.9894C70.3501 23.5505 70.3657 21.349 70.3387 21.5704C70.0816 23.6739 69.7283 25.3249 69.6684 25.0573C69.5116 24.3574 69.3852 23.365 69.1229 22.5235C69.1198 22.54 69.117 22.5346 69.1093 22.4805C69.0228 22.2096 68.9218 21.9554 68.8005 21.7328C68.8694 22.2209 68.9373 22.6981 69.0022 23.151C69.1792 24.0163 69.3894 25.1862 69.5676 26.5341C69.6715 27.3198 69.6472 27.4928 69.3113 25.2625C69.2244 24.6854 69.1178 23.9566 69.0022 23.151C68.8923 22.6133 68.7951 22.1932 68.7263 21.9212C68.691 21.7818 68.6576 21.628 68.6267 21.4727C68.5158 21.4005 68.4658 21.756 68.4424 22.4887C68.3748 24.6024 68.3164 26.0919 68.2206 26.3237C68.2016 26.3699 68.219 26.2712 68.2507 25.1874C68.341 22.0958 68.4007 20.1945 68.4751 20.6267C68.5131 20.8471 68.565 21.1629 68.6267 21.4727C68.6419 21.4826 68.6583 21.5006 68.6759 21.5267C68.7197 21.5917 68.7612 21.6606 68.8005 21.7328C68.5185 19.7342 68.2196 17.5527 68.0321 16.1048C67.7174 13.6745 67.7165 13.3216 67.631 14.7686C67.5455 16.2155 67.3804 19.3668 67.2907 20.9933C67.2597 21.5552 67.2366 21.9359 67.2195 22.193C67.2157 22.2627 67.2114 22.3228 67.207 22.3747C67.1843 22.6915 67.1761 22.7225 67.1746 22.7154C67.1655 22.6745 67.1875 22.6031 67.207 22.3747C67.2107 22.3224 67.2149 22.2622 67.2195 22.193C67.242 21.7782 67.2458 21.023 67.1476 19.6136C67.0662 18.4447 66.9051 16.8547 66.7774 16.0093C66.6334 15.0554 66.5401 15.1531 66.5565 14.5972C66.6273 12.1885 66.8093 10.3281 66.8144 10.8856C66.836 13.2691 66.808 15.0844 66.9109 14.3511C67.0381 13.4448 67.3086 11.5176 67.4411 10.943C67.5737 10.3684 67.5685 11.1235 67.8338 13.2908C68.0992 15.458 68.6194 18.9322 68.8723 20.7202C69.0392 21.9002 69.09 22.3445 69.1093 22.4805C69.1139 22.4948 69.1184 22.5091 69.1229 22.5235C69.1238 22.5186 69.1248 22.5118 69.1259 22.5037C69.1404 22.4004 69.182 22.1039 69.2524 19.938C69.306 18.286 69.3747 15.6158 69.4273 13.6016C69.4266 13.5716 69.4258 13.5418 69.4251 13.5122C69.4164 13.1446 69.4147 12.8138 69.4177 12.5164C69.4261 11.6657 69.472 11.0887 69.4967 10.7089C69.5301 10.1964 69.5227 10.0694 69.4708 11.9623C69.464 12.2102 69.4565 12.4928 69.4483 12.8017Z" fill="#A73A3A"/>
<path d="M75.6194 21.3832C75.5705 21.5664 75.6787 22.2085 76.1942 23.4269C76.2227 23.0081 76.2455 22.6398 76.2588 22.3543C76.2903 21.6754 76.2686 21.4708 76.2051 21.3741C76.0393 21.2882 75.6714 21.1882 75.6194 21.3832Z" fill="#A73A3A"/>
<path d="M80.7565 27.1165C80.8286 26.5327 80.9583 25.4828 81.054 24.1719C80.9966 24.7246 80.9439 25.2307 80.8993 25.657C80.6784 27.7698 80.6576 27.918 80.7523 27.1503L80.7565 27.1165Z" fill="#A73A3A"/>
<path d="M72.1718 15.4994C71.8714 14.1451 71.397 12.1617 71.0136 10.692C70.9988 10.6577 70.9843 10.6244 70.9702 10.592C70.4824 9.5635 70.278 9.20272 70.1119 8.93968C70.0237 8.83875 69.903 8.77579 69.8736 8.83179C69.8049 8.96224 69.8003 9.22742 70.3211 10.8158C70.7932 12.2555 71.6818 14.8996 72.1429 16.3798C72.6039 17.8599 72.6364 18.1668 72.621 17.9913C72.6055 17.8159 72.544 17.1774 72.1718 15.4994Z" fill="#A73A3A"/>
<path d="M79.7649 11.0613C79.4859 11.6331 78.9596 12.0927 79.0481 13.5914C79.2828 13.1728 79.6219 12.4168 79.9525 11.732C80.2765 11.061 81.6645 9.33636 81.1261 9.71021C80.7552 9.96773 80.0721 10.4319 79.7649 11.0613Z" fill="#A73A3A"/>
<path d="M75.9824 26.9231C70.8367 26.2009 60.7939 25.5059 58.8134 26.7869C57.8183 27.4306 57.0337 28.3343 56.4905 29.5824C55.9472 30.8305 55.7177 32.4655 56.417 33.4225C59.5982 37.7761 66.4098 34.9621 76.2326 35.1426C82.9491 35.266 86.8323 35.1868 89.5372 33.1667C90.1128 32.7368 89.0453 31.6578 88.2842 31.0638C84.525 29.5654 81.2523 28.868 78.1346 28.0695C75.9184 27.6358 72.4149 27.1441 68.8051 26.6375M83.6566 29.1635C83.8846 29.0292 84.3758 28.5108 85.1498 27.6339C85.581 27.1454 86.8227 26.2971 89.6383 24.8503C91.4286 23.9305 94.1949 23.1488 96.9543 22.4352C99.7137 21.7216 102.444 21.2315 104.145 20.9578C107.389 20.4359 108.496 20.6768 109.043 20.816C109.275 20.875 109.369 21.0489 109.409 21.2227C109.448 21.3966 109.42 21.6005 109.373 21.7843C109.263 22.1254 108.244 22.8608 103.875 25.0033C100.46 26.5726 94.612 29.1207 88.2881 32.0821M82.1886 27.9493C82.2229 27.7045 82.6012 25.0089 83.2342 20.7951C83.4818 19.1469 83.6798 18.5097 83.9149 17.1394C84.5053 13.6992 84.7364 11.2953 84.703 10.7878C84.6376 9.7939 84.2972 8.75847 83.6285 8.13467C83.1983 7.73328 82.5353 7.83316 81.9763 7.94185C81.0314 8.12553 79.6418 9.93379 78.0336 12.1203C77.3539 13.0446 77.0938 13.6936 76.6747 15.6204C76.2556 17.5471 75.7218 20.7578 75.4529 22.5166C75.184 24.2755 75.1962 24.4851 75.174 24.9483M74.7707 26.026L74.736 26.2732M75.8267 24.7879L75.8093 24.9114M74.2956 25.0341C74.4424 24.9234 74.788 22.4753 75.1868 18.4572C75.7053 13.2333 74.0802 8.17046 73.3293 6.6676C72.798 5.60416 71.5773 5.22514 69.5688 4.90844C68.8462 4.79451 68.1312 5.20103 67.3906 5.75852C66.7816 6.2169 66.3948 8.11206 65.8662 10.7024L65.8597 10.7347C65.4716 12.6362 66.1441 16.8937 67.0806 22.2619C67.5958 24.5513 67.9617 25.7286 68.3636 27.1099C68.5521 27.6735 68.7091 27.9581 68.8708 28.2513M56.1389 28.2548C56.0101 28.2367 52.9643 27.9406 47.2826 27.6375C42.247 27.3689 39.2714 28.4696 38.0966 29.0656C35.8909 30.1847 34.5052 31.2462 32.5876 32.6351C31.1165 33.7006 30.2005 34.4913 29.7525 35.0898C29.5313 35.3854 29.3688 35.6974 32.1237 35.4654C34.8786 35.2334 40.5676 34.4563 43.875 33.9447C50.3937 32.6923 54.2678 32.1041 55.0976 32.0882C55.4677 32.0735 55.7342 32.0453 56.0088 32.0162M66.5484 25.3777C66.4522 25.2501 65.8501 24.6504 63.2597 22.5114C61.2596 20.8597 57.7159 18.2463 55.6093 16.5771C52.8418 14.3842 51.763 13.336 50.3907 12.4831C46.8511 10.2828 43.8748 10.0939 42.2986 10.3308C42.0318 10.3709 42.0206 10.864 42.0318 11.1846C42.0541 11.8235 43.106 13.3174 44.4212 15.2299C45.0787 16.1861 46.88 18.3921 49.4323 21.7446C51.661 24.6719 53.212 25.9228 54.8393 26.8436C55.2426 27.0739 55.5547 27.2889 56.0075 27.5547C56.4603 27.8205 57.0444 28.1307 58.009 28.3283M78.1664 23.8964C77.7348 24.5204 76.9652 26.7151 76.3755 28.2497C76.1467 28.8512 75.8258 29.4994 75.3925 30.1292C75.1821 30.391 74.9907 30.5353 74.4306 30.8059M76.1528 32.0849C73.2085 31.7287 70.8045 31.7354 68.689 31.9286C67.0125 32.3563 66.0532 32.6262 65.7123 32.5792C65.715 32.5234 66.0742 32.4027 66.7834 32.3259M80.195 31.6149C79.9927 31.6323 79.7342 31.6708 79.4308 31.7231M79.4308 31.7231C78.6002 31.8662 77.4324 32.1128 76.157 32.3137C72.6045 32.8732 69.7767 32.8013 68.2174 32.8435C67.7828 32.8553 67.3623 32.8468 66.9566 32.8221M79.4308 31.7231C77.8448 31.7337 75.6306 31.8314 73.9718 32.1842C72.3868 32.5213 71.0501 31.9564 66.9566 32.8221M79.4308 31.7231C80.0125 31.7192 80.5097 31.727 80.864 31.7382C82.1246 31.7781 83.0713 31.6175 84.3062 31.6447C85.4385 31.6022 86.1483 31.4719 86.627 31.3377C86.8662 31.284 87.0978 31.2594 87.6756 31.2818M66.9566 32.8221C64.0066 32.6422 61.845 31.6016 60.7747 31.225C60.3351 31.0702 60.4991 30.2942 60.4546 29.7987C60.4338 29.5682 60.1626 29.4396 59.9396 29.3781C59.7166 29.3165 59.485 29.3411 59.3219 29.4617C58.9847 29.7112 58.9345 30.3564 58.9671 30.9367C59.0217 31.9057 60.749 31.7659 61.3909 32.1439C61.8094 32.3902 61.1592 32.4787 60.3711 32.4777M66.9566 32.8221C66.832 32.8484 66.7049 32.8761 66.5751 32.9051C64.4394 33.3834 62.7414 33.679 61.6493 33.1604C61.2227 32.9577 60.7995 32.6876 60.3711 32.4777M60.3711 32.4777C59.7736 32.4769 59.0967 32.4248 58.7462 32.351C58.536 32.3067 58.7884 32.1857 59.0236 32.16C59.4845 32.1095 59.9305 32.2618 60.3711 32.4777ZM74.1629 30.2497C72.7048 30.0451 69.9697 29.7753 68.6302 29.6746L68.6259 29.6743C66.9455 29.548 64.665 29.3765 63.0035 29.1166C62.7823 29.082 63.0574 28.8674 63.3365 28.7328C63.6156 28.5983 63.9189 28.4697 66.2851 28.7136C68.6513 28.9575 73.0712 29.5778 77.6489 30.0474M88.1515 27.891C88.5362 27.6009 89.4038 27.147 90.8903 26.607C92.0041 26.2025 92.8795 26.1739 94.4918 25.7952M94.4918 25.7952C94.7663 25.7307 95.0621 25.6561 95.3841 25.5677C95.8369 25.4435 96.3073 25.334 96.7773 25.2352M94.4918 25.7952C94.5634 25.7021 94.6313 25.607 94.6951 25.5101M94.4918 25.7952C94.3424 25.9894 94.1768 26.1753 93.9991 26.3529M96.7773 25.2352C96.8029 25.2298 96.8286 25.2244 96.8543 25.2191M96.7773 25.2352C96.8003 25.2319 96.8233 25.2286 96.8464 25.2253M96.7773 25.2352C96.0442 25.3399 95.3466 25.4273 94.6951 25.5101M96.8543 25.2191C97.0799 25.1722 97.3053 25.1278 97.5283 25.0853M96.8543 25.2191C96.8517 25.2212 96.849 25.2232 96.8464 25.2253M96.8543 25.2191C97.2034 24.9455 97.4675 24.7241 97.603 24.5825C97.949 24.2208 98.2952 23.8664 98.664 23.5323M97.5283 25.0853C98.5188 24.8968 99.4645 24.7472 100.193 24.5977C100.433 24.5484 100.664 24.5194 100.196 24.6241C99.2251 24.8415 98.2818 25.0081 97.3848 25.1454M97.5283 25.0853C97.6807 25.0217 97.838 24.9566 98.0007 24.8899C99.2526 24.3767 100.066 23.916 101.021 23.674C101.978 23.4315 103.535 22.9375 104.881 22.4567C104.967 22.4261 105.052 22.3934 105.136 22.3592M97.5283 25.0853C97.48 25.1055 97.4322 25.1255 97.3848 25.1454M97.3848 25.1454C97.2034 25.1732 97.0239 25.1997 96.8464 25.2253M97.3848 25.1454C97.0347 25.2924 96.7111 25.4312 96.4087 25.5622M96.8464 25.2253C96.7121 25.3304 96.5654 25.4433 96.4087 25.5622M94.6951 25.5101C93.1899 25.7013 91.9308 25.8674 91.0503 26.1627C91.0418 26.1656 91.0333 26.1684 91.0248 26.1712M94.6951 25.5101C94.7279 25.4602 94.7596 25.4099 94.7901 25.359C95.0146 24.9851 95.1507 24.4749 94.8478 24.4802C94.6515 24.4837 94.4549 24.4929 94.2594 24.5097M91.0248 26.1712C90.6965 26.28 90.3519 26.3695 90.0016 26.447M91.0248 26.1712C92.003 25.5369 92.8465 24.9654 94.0676 24.5696C94.1311 24.549 94.195 24.5291 94.2594 24.5097M91.0248 26.1712C90.5094 26.5055 89.9565 26.8572 89.2912 27.2099C88.7901 27.4755 88.3625 27.723 88.016 27.9346M90.0016 26.447C89.0569 26.656 88.0704 26.7777 87.2488 26.9561C87.0177 27.0062 86.8209 27.0938 86.6517 27.2016M90.0016 26.447C89.122 27.0286 88.3457 27.5839 87.792 27.9936M90.0016 26.447C90.6882 25.9931 91.4377 25.5231 92.1935 25.094C92.8218 24.7373 93.5336 24.5718 94.2594 24.5097M86.6517 27.2016C86.352 27.3926 86.1389 27.6473 85.9754 27.8705M86.6517 27.2016C86.3985 27.4487 86.1659 27.6784 85.9754 27.8705M86.6517 27.2016C86.9695 26.8915 87.3198 26.5539 87.66 26.2286M85.9754 27.8705C85.82 28.0826 85.7095 28.2663 85.6119 28.3402C85.3113 28.5676 85.5264 28.3233 85.9754 27.8705ZM87.66 26.2286C88.2135 25.6993 88.7404 25.2026 89.0574 24.9097C89.9033 24.128 91.356 23.9046 92.8644 23.627C93.9237 23.4322 95.1441 23.4137 96.182 23.4077M87.66 26.2286C87.6731 26.223 87.6861 26.2175 87.699 26.2119C89.4924 25.4428 93.2382 24.3073 96.182 23.4077M87.66 26.2286C86.6831 26.646 85.5531 27.0717 84.7638 27.6143C84.3537 27.8963 84.2152 28.4311 84.2865 28.7298C84.3281 28.9039 84.8526 28.7557 86.9308 28.2184C87.1936 28.1505 87.4828 28.0749 87.792 27.9936M96.182 23.4077C96.8924 23.4035 97.5173 23.4052 97.9465 23.3601C98.2926 23.3237 98.6503 23.278 99.0237 23.22M96.182 23.4077C96.5959 23.2812 96.994 23.1593 97.3686 23.0438C99.2334 22.4688 102.798 21.4555 101.834 21.7447C101.441 21.8625 100.828 22.054 100.308 22.3387C99.8339 22.5983 99.4136 22.8966 99.0237 23.22M99.0237 23.22C99.7658 23.1046 100.57 22.9403 101.466 22.7027C101.991 22.5635 102.473 22.4745 102.93 22.4231M99.0237 23.22C98.9011 23.3217 98.7814 23.426 98.664 23.5323M102.93 22.4231C103.479 22.3614 103.994 22.3539 104.509 22.3786C104.735 22.3894 104.944 22.3807 105.136 22.3592M102.93 22.4231C104.055 22.1465 106.616 21.2503 106.601 21.6607M102.93 22.4231C102.852 22.4423 102.78 22.4586 102.717 22.4711C101.707 22.6731 100.261 23.1485 98.664 23.5323M105.136 22.3592C105.868 22.2768 106.339 22.0072 106.421 21.9268C106.543 21.8068 106.599 21.7201 106.601 21.6607M105.136 22.3592C105.664 22.1434 106.152 21.866 106.601 21.6607M106.601 21.6607C107.14 21.4145 107.621 21.272 108.044 21.464C108.234 21.5504 108.45 21.7704 108.352 21.9118C108.134 22.2261 107.49 22.7523 106.411 23.1953C105.155 23.7113 103.891 23.7933 102.859 24.2812C101.833 24.7669 100.631 25.0114 99.2707 25.6557M98.664 23.5323C98.5515 23.5593 98.4383 23.5859 98.3244 23.6119C96.5392 24.0194 95.3295 24.1876 94.2594 24.5097M88.016 27.9346C87.4772 28.2637 87.1345 28.506 87.0162 28.5952C86.7331 28.8086 87.0772 28.5224 87.792 27.9936M88.016 27.9346C87.9403 27.9546 87.8656 27.9742 87.792 27.9936M88.016 27.9346C89.8287 27.4567 92.2339 26.8091 93.9991 26.3529M93.9991 26.3529C93.8588 26.4931 93.7109 26.628 93.5574 26.7578M93.9991 26.3529C94.301 26.2749 94.5842 26.2024 94.8425 26.1374C95.0505 26.0851 95.2412 26.0378 95.4159 25.9953M93.5574 26.7578C93.5151 26.7936 93.4723 26.829 93.4292 26.864M93.5574 26.7578C94.1349 26.5499 94.7212 26.2986 95.4159 25.9953M93.5574 26.7578C93.4266 26.8049 93.2962 26.8498 93.1651 26.8926C91.7433 27.3563 90.1898 28.1736 89.096 28.5698C88.7504 28.695 89.0457 28.6161 89.9067 28.3742M93.4292 26.864C93.1492 27.0913 92.8528 27.3019 92.5514 27.4961M93.4292 26.864C93.2965 26.9125 93.1587 26.9657 93.0161 27.0238C92.264 27.3305 91.4786 27.6993 90.7493 28.0615M93.4292 26.864C94.2736 26.5555 94.9076 26.4384 95.1993 26.4603M92.5514 27.4961C92.418 27.582 92.2836 27.6648 92.1491 27.7442M92.5514 27.4961C92.9108 27.3895 93.2923 27.2782 93.6852 27.1652M92.5514 27.4961C92.2127 27.5965 91.8938 27.6928 91.6035 27.7825C91.294 27.8781 91.01 27.9712 90.7493 28.0615M92.1491 27.7442C91.9738 27.8479 91.7984 27.9461 91.6252 28.0389M92.1491 27.7442C91.4616 27.9362 90.8782 28.1006 90.4057 28.2338M92.1491 27.7442C92.3075 27.7 92.4713 27.6544 92.6406 27.6073M91.6252 28.0389C90.528 28.6261 89.5146 28.995 89.1304 29.1503C87.2296 29.9187 89.6353 28.886 91.6252 28.0389ZM91.6252 28.0389C91.9868 27.8849 92.3348 27.7371 92.6406 27.6073M92.6406 27.6073C93.1472 27.3923 93.5383 27.2269 93.6852 27.1652M92.6406 27.6073C92.9301 27.5268 93.2354 27.4421 93.5562 27.3536M93.6852 27.1652C93.7063 27.1563 93.7223 27.1496 93.733 27.1452C93.9634 27.0493 94.0316 27.0344 93.9798 27.0807M93.6852 27.1652C93.7827 27.1371 93.881 27.1089 93.9798 27.0807M93.9798 27.0807C93.9315 27.1238 93.7789 27.2201 93.5562 27.3536M93.9798 27.0807C94.1794 27.0236 94.3811 26.9663 94.5835 26.9091M93.5562 27.3536C92.5657 27.947 90.1882 29.2758 89.4265 29.9353C89.0889 30.2276 89.4189 30.3163 89.7387 30.3041C91.3525 30.2427 93.2471 29.3011 94.3675 28.5369C95.679 27.6423 97.2229 26.7105 98.6091 25.9883M93.5562 27.3536C93.772 27.294 93.9948 27.2326 94.2246 27.1695M98.6091 25.9883C98.7575 25.911 98.9041 25.8361 99.0484 25.7639C99.123 25.7266 99.1971 25.6905 99.2707 25.6557M98.6091 25.9883C97.543 26.2702 96.5544 26.5354 95.6487 26.781M98.6091 25.9883C98.7419 25.9532 98.8758 25.9179 99.011 25.8823C100.326 25.5358 100.577 25.3496 99.2707 25.6557M99.2707 25.6557C99.1666 25.6801 99.0526 25.7076 98.9284 25.7384C98.132 25.936 96.9144 26.2606 95.632 26.6158M96.4087 25.5622C96.0509 25.7172 95.7228 25.8613 95.4159 25.9953M96.4087 25.5622C96.2865 25.6549 96.1582 25.7513 96.0251 25.8507M95.4159 25.9953C95.6458 25.9393 95.848 25.8914 96.0251 25.8507M89.9067 28.3742C90.0561 28.3322 90.2226 28.2853 90.4057 28.2338M89.9067 28.3742C90.1566 28.2745 90.4361 28.17 90.7493 28.0615M89.9067 28.3742C88.6093 28.8922 88.1138 29.2837 87.8745 29.4642C87.1832 29.9853 88.5554 29.1689 90.4057 28.2338M90.4057 28.2338C90.5186 28.1767 90.6332 28.1192 90.7493 28.0615M94.2246 27.1695C94.6733 27.0464 95.1483 26.9167 95.6487 26.781M94.2246 27.1695C92.1166 28.6972 89.9821 30.2197 90.8192 29.8481C91.0663 29.7384 91.3249 29.6839 91.561 29.4897C92.4495 28.7593 95.4174 27.4112 95.6487 26.781M94.2246 27.1695C94.3445 27.0826 94.4643 26.9957 94.5835 26.9091M95.6487 26.781C95.6717 26.7184 95.6677 26.6629 95.632 26.6158M95.632 26.6158C95.2849 26.712 94.9331 26.8104 94.5835 26.9091M95.632 26.6158C95.578 26.5446 95.4517 26.4925 95.2367 26.4642C95.2249 26.4626 95.2124 26.4613 95.1993 26.4603M94.5835 26.9091C94.7917 26.7579 94.9979 26.6077 95.1993 26.4603M95.1993 26.4603C95.4874 26.2494 95.7656 26.0444 96.0251 25.8507M96.0251 25.8507C97.0696 25.6108 97.2418 25.6213 97.1044 25.6899M50.8134 18.0784C51.0577 18.1379 51.7482 18.4623 53.5527 19.8268C54.4008 20.4681 55.6006 21.4244 56.7087 22.304M56.7087 22.304C57.5293 22.9554 58.2996 23.5648 58.8395 23.973C60.1084 24.9325 60.0091 24.7422 58.7085 23.7634C58.1848 23.3692 57.4666 22.848 56.7087 22.304ZM56.7087 22.304C55.5845 21.4971 54.3728 20.6398 53.5775 20.0715C52.246 19.1201 52.1576 19.0321 52.1846 19.0977C52.2985 19.3739 52.7431 19.8668 53.3341 20.4718M53.3341 20.4718C53.4064 20.5458 53.4808 20.6214 53.5571 20.6985C55.0247 22.182 56.6223 22.7361 56.7212 22.763C56.7463 22.7698 56.534 22.6741 55.2097 21.7695C54.7095 21.4278 54.0448 20.968 53.3341 20.4718ZM53.3341 20.4718C52.4247 19.837 51.4398 19.1427 50.6278 18.5609M50.6278 18.5609C50.3941 18.3935 50.1748 18.2354 49.9757 18.0907C49.9199 18.0501 49.8654 18.0102 49.8121 17.9711M50.6278 18.5609C50.8023 18.7367 50.9688 18.9135 51.1291 19.1038C51.6566 19.7298 52.292 20.6327 52.973 21.3407C54.1498 22.564 54.8487 23.2739 55.3275 23.7639M50.6278 18.5609C50.4315 18.3632 50.225 18.1666 50.0056 17.9536C49.6719 17.6296 49.2605 17.2389 48.868 16.8769M49.8121 17.9711C48.1705 16.7637 47.7392 16.2234 47.6546 16.1964C47.4507 16.1312 48.0775 17.0211 48.7872 18.0239C49.0728 18.4274 49.4165 18.8886 49.7796 19.3571M49.8121 17.9711C50.2074 18.4352 50.6066 18.9171 50.9511 19.3708C51.9653 20.7066 52.6165 21.6225 52.9644 22.1937M49.8121 17.9711C49.4835 17.5852 49.1575 17.2116 48.868 16.8769M49.7796 19.3571C50.3188 20.0529 50.9006 20.7647 51.3976 21.3272C52.2294 22.2685 52.7916 22.7505 53.0669 22.9212C53.3422 23.0919 53.3136 22.9367 53.251 22.7493C53.2094 22.6251 53.1155 22.4419 52.9644 22.1937M49.7796 19.3571C49.2158 18.7894 48.441 17.9608 47.6102 16.9234C47.0515 16.2259 46.8167 15.9283 46.4377 15.3068C46.2714 15.0341 46.1185 14.7797 45.9764 14.5416M49.7796 19.3571C50.0835 19.6631 50.3261 19.8933 50.4832 20.0396C51.1359 20.6475 51.692 21.2288 52.2876 21.6796C52.5111 21.8489 52.738 22.0222 52.9644 22.1937M52.9644 22.1937C53.6414 22.7066 54.3139 23.2026 54.8792 23.5203C55.0238 23.6015 55.1744 23.6831 55.3275 23.7639M48.868 16.8769C48.6602 16.6366 48.4712 16.4163 48.3135 16.2259C47.2401 14.9297 46.5882 14.1308 46.0905 13.6628C45.7385 13.3319 45.2941 13.0002 44.8423 12.6749M48.868 16.8769C48.474 16.5134 48.0991 16.179 47.8413 15.9703C47.3058 15.5367 46.7281 15.114 46.153 14.6779C46.0914 14.6311 46.0326 14.5857 45.9764 14.5416M44.8423 12.6749C44.7428 12.6032 44.6429 12.5319 44.5435 12.4609L44.5315 12.4523C43.4763 11.6987 43.2173 11.288 42.885 10.9356C42.7981 10.8435 42.7068 10.7583 42.7107 10.7199C42.7408 10.4202 43.4304 11.0095 43.9647 11.5547C44.2828 11.8795 44.5547 12.2376 44.8423 12.6749ZM44.8423 12.6749C45.1694 13.1722 45.517 13.772 45.9764 14.5416M45.9764 14.5416C45.1775 13.914 44.906 13.542 44.4981 13.2233C44.3152 13.0804 44.1655 12.8709 43.9128 12.6831C43.7767 12.582 43.6107 12.4884 43.7307 12.7812C44.1526 13.8109 45.1383 15.1382 45.8906 16.2103C46.4225 16.9683 46.7752 17.2811 47.2872 17.8863C48.1953 18.9593 48.8282 19.6794 49.3472 20.352C49.9948 21.1911 50.9435 22.3949 51.2285 22.8178C51.5427 23.284 51.8171 23.6123 52.1062 23.9972C52.47 24.4815 53.2044 25.1293 54.4905 26.2004C55.1784 26.7732 55.7792 27.0955 56.6708 27.539C57.183 27.7937 57.5901 27.9871 57.7616 27.9486C58.5064 27.7812 56.7227 26.5957 55.8026 25.8051C55.4425 25.4956 55.1138 25.2054 54.8092 24.9268M55.3275 23.7639C56.0409 24.1404 56.8076 24.4984 57.2609 24.7084C57.7328 24.9271 58.1782 25.2441 58.7329 25.551C59.3344 25.8838 59.5195 26.5775 59.5222 26.7432C59.5286 27.1367 57.9915 26.2913 57.2793 25.7818C56.8268 25.458 56.5521 25.0693 56.1007 24.5735C55.8919 24.3442 55.664 24.1083 55.3275 23.7639ZM54.8092 24.9268C54.6052 24.7402 54.412 24.5588 54.2275 24.3804M54.8092 24.9268C54.5003 24.6771 54.1974 24.4326 53.9134 24.2079M54.8092 24.9268C54.8336 24.9466 54.8581 24.9664 54.8827 24.9862M54.2275 24.3804C53.8082 23.9751 53.4335 23.5851 53.0781 23.1839C52.8523 22.929 52.6465 22.6416 52.6557 22.639C52.6648 22.6365 52.9019 22.9217 53.6092 23.5665C54.0049 23.9272 54.5455 24.3977 55.0853 24.8524M54.2275 24.3804C54.5085 24.5347 54.7998 24.6946 55.0853 24.8524M54.2275 24.3804C54.121 24.322 54.016 24.2643 53.9134 24.2079M55.0853 24.8524C55.5103 25.2104 55.9349 25.5587 56.2877 25.8357C57.4469 26.7461 57.9873 26.974 58.114 26.9796C58.4734 26.9954 57.6462 26.3421 56.5748 25.6989C56.1833 25.4639 55.6457 25.1622 55.0853 24.8524ZM53.9134 24.2079C53.5957 24.0333 53.3007 23.8704 53.0547 23.7318C51.9135 23.0889 51.5929 22.8708 51.3486 22.7098C51.234 22.6343 51.1855 22.5098 51.2285 22.4639C51.7529 22.6116 52.4654 23.1437 53.2729 23.7132C53.4697 23.8602 53.6854 24.0276 53.9134 24.2079ZM44.0934 11.5621C43.9695 11.7211 43.8077 12.5099 43.8374 13.2043C43.844 13.3599 43.5023 12.8801 43.3875 12.6101C43.2871 12.374 43.3573 12.0963 43.328 11.8509C43.3143 11.7368 43.3693 11.6407 43.5056 11.5701C44.2947 11.1613 45.1287 11.6051 46.3706 12.3986C47.2427 12.9558 48.8323 13.9923 49.9943 14.6967C51.1563 15.4011 51.8381 15.7487 53.089 16.6083C54.3399 17.4679 56.1392 18.829 57.2766 19.736C58.8726 21.0089 59.3851 21.5459 59.8075 21.8704C61.4851 23.1594 62.2937 23.8367 63.3782 24.7123C63.8698 25.1092 64.1137 25.5672 64.2164 25.8503C64.2628 25.9785 63.7164 25.7435 62.22 24.9658C60.7236 24.1882 58.1055 22.7374 56.5537 21.9112C55.4478 21.3223 54.9238 21.073 54.6689 20.9578M54.6689 20.9578C54.5661 20.9113 54.507 20.8867 54.4713 20.8703C54.3945 20.8353 54.4295 20.8405 54.6689 20.9578ZM54.6689 20.9578C54.8176 21.0306 55.0452 21.1468 55.3738 21.3234C56.2314 21.7842 57.7719 22.6555 58.8024 23.3013C61.0215 24.6921 61.2225 25.1377 61.4094 25.2525C61.511 25.3149 61.586 25.4414 61.4815 25.4787C61.1038 25.6134 60.0547 25.1792 58.0854 24.4092C56.8263 23.917 55.081 23.1161 54.2967 22.7587C53.7426 22.5061 55.0602 23.275 56.7497 24.3771C57.5449 24.8499 58.1082 25.1824 58.752 25.5781C59.0035 25.7172 59.1023 25.7311 59.3105 25.5313M47.1762 12.9873C47.1693 13.0367 47.6291 13.5303 49.047 14.7935C49.2985 15.0176 49.5891 15.2601 49.8956 15.5069M49.8956 15.5069C50.7195 16.1703 51.6587 16.8651 52.2645 17.3183C53.1191 17.9575 53.5729 18.1705 53.9942 18.3412M49.8956 15.5069C50.4353 15.7177 51.1245 16.1147 52.7819 17.3905C53.1284 17.6572 53.5437 17.9847 53.9942 18.3412M49.8956 15.5069C49.8358 15.4835 49.7778 15.4624 49.7205 15.4427C49.5587 15.387 50.0435 16.0786 50.6302 16.8728C51.2169 17.6671 52.0947 18.7728 52.6689 19.4604C52.8877 19.7224 53.0949 19.9517 53.2913 20.1542M53.9942 18.3412C54.0661 18.3703 54.137 18.3982 54.2088 18.4267C54.7366 18.6365 55.6461 19.3125 56.7025 20.1219C57.9696 21.0927 59.5589 22.2818 60.3131 22.8075C60.5041 22.9407 60.7291 23.0064 60.7413 23.0341C60.8159 23.2039 59.7938 22.6751 57.8025 21.2707C56.73 20.5143 55.2297 19.3188 53.9942 18.3412ZM53.2913 20.1542C54.1628 21.0524 54.8241 21.421 55.3589 21.7565C55.8629 22.0726 56.4743 22.3329 56.7158 22.4313C56.7947 22.4634 56.6669 22.3258 56.3895 22.0665M53.2913 20.1542C54.3963 20.906 55.6042 21.6391 56.337 22.038C56.3548 22.0477 56.3723 22.0572 56.3895 22.0665M53.2913 20.1542C53.1738 20.0743 53.0575 19.9941 52.943 19.9142C51.752 19.082 50.8045 18.294 50.166 17.7032C48.7146 16.3603 48.4533 15.8661 47.7865 15.0987C47.3031 14.5425 46.8321 14.188 46.6172 13.8891C46.7592 13.9457 47.0597 14.1657 47.5221 14.5727C47.8042 14.8283 48.1826 15.1837 48.7761 15.7312M56.3895 22.0665C55.8315 21.5446 54.668 20.53 53.3645 19.4137C51.2798 17.6285 51.1435 17.1842 51.1598 17.1472C51.2106 17.0315 51.551 17.4903 52.6037 18.3721C53.6564 19.2539 55.4631 20.7419 56.438 21.5525C57.4129 22.3631 57.5013 22.4511 57.4357 22.4808C57.3715 22.5099 57.1574 22.4807 56.3895 22.0665ZM45.1074 10.8646C45.4144 10.8314 46.4542 11.0277 47.3209 11.3906C47.5981 11.5066 47.8167 11.677 48.5715 12.149C50.3002 13.23 51.4692 14.1234 51.7746 14.3816C52.3091 14.8333 52.9457 15.1956 53.9532 15.855C54.7178 16.3554 55.9365 17.2812 56.7153 17.8929C57.814 18.7558 58.2384 19.1961 58.7304 19.5686C59.6016 20.2282 60.1498 20.8134 60.6815 21.2541C61.9322 22.2907 62.8001 23.1444 63.0632 23.4347C63.8762 24.3321 64.8349 25.1065 65.4838 25.6839C65.6109 25.7788 65.7522 25.849 65.871 25.9168C65.9897 25.9847 66.0816 26.0479 66.2406 26.1985M46.3816 11.5779C46.431 11.5848 46.6012 11.6339 47.6069 12.2037C48.4838 12.7006 50.0403 13.7297 50.8964 14.2774C51.8444 14.8884 52.0028 15.0381 52.1541 15.2243C52.2418 15.3259 52.3515 15.4421 52.4645 15.5617M55.2163 30.2245C54.9431 30.1861 54.375 30.2576 51.5302 30.6176C49.6086 30.8608 46.1649 31.3774 44.3015 31.6346C41.9538 31.9587 41.3811 31.9977 40.8067 32.095C40.1131 32.2124 38.6704 32.3273 37.5281 32.614C36.3948 32.8984 35.1263 33.2316 34.4846 33.4465C33.431 33.7994 33.0197 33.9025 32.6243 34.0894C32.2502 34.3044 31.9297 34.4122 31.6778 34.4909C31.5316 34.5342 31.3482 34.584 31.074 34.6997M32.9418 33.3586C32.9487 33.3092 32.9661 33.1849 33.1246 32.9537C33.4145 32.5305 34.9831 31.9724 36.9709 31.12C37.7948 30.7666 38.2751 30.6502 39.6705 30.5407C41.0658 30.4311 43.3696 30.3514 44.6728 30.2888C46.5746 30.1976 47.1264 30.1839 48.181 30.0021C49.4071 29.7908 50.0835 29.7851 51.9928 29.7476C53.0342 29.7272 53.645 29.8009 54.5844 29.8942C55.0017 29.915 55.4306 29.9492 55.8578 29.9839C56.038 29.984 56.1437 29.9485 56.4234 29.7831M56.6362 29.3549C56.5868 29.348 55.4708 29.2166 53.6049 29.0181C51.8413 28.8304 51.0169 28.9984 50.3169 29.0655C49.4171 29.1517 48.3032 29.1952 46.8226 29.2598M46.8226 29.2598C46.7963 29.2609 46.7699 29.2621 46.7433 29.2632C45.5951 29.3134 45.0913 29.3119 44.5986 29.2813C44.178 29.2552 43.6238 29.2587 43.1176 29.2262C42.5076 29.187 41.7953 29.2311 41.1511 29.3693C40.5393 29.5006 39.7897 29.7375 39.0947 30.0599C38.898 30.1511 38.7036 30.1999 38.5149 30.2182M46.8226 29.2598C47.2736 29.2081 47.8183 29.1596 48.4813 29.125C49.3937 29.0774 50.2906 28.9743 51.0758 28.884L51.0947 28.8818C51.3907 28.8478 51.4896 28.8617 51.0935 28.8061C49.8327 28.6291 48.5523 28.5247 46.5752 28.5548C45.1104 28.5771 44.1436 28.523 42.9859 28.5599C41.2128 28.6164 40.5892 28.6636 39.8193 28.9309C38.6696 29.3299 37.3753 30.0565 37.8318 30.1647C37.8712 30.174 37.9111 30.1825 37.9516 30.19M46.8226 29.2598C45.8295 29.3735 45.291 29.5027 44.9449 29.5334C43.7311 29.6411 41.5016 29.877 40.5746 30.0389C39.9676 30.1449 39.437 30.2484 39.0732 30.4771C38.952 30.5533 38.8091 30.6095 38.6551 30.6501M38.5149 30.2182C38.3198 30.2371 38.1308 30.2233 37.9516 30.19M38.5149 30.2182C38.4205 30.1569 38.2735 30.1205 38.1498 30.1456C38.0939 30.1569 38.0263 30.172 37.9516 30.19M38.5149 30.2182C38.5169 30.2195 38.5188 30.2208 38.5208 30.2221C38.6149 30.2857 38.6505 30.3914 38.6618 30.4953C38.6676 30.5481 38.6649 30.5997 38.6551 30.6501M37.9516 30.19C37.4301 30.3159 36.5639 30.5823 36.9595 30.6656C37.2377 30.7242 38.0357 30.8135 38.6551 30.6501M38.6551 30.6501C38.5912 30.9759 38.2263 31.2578 37.8834 31.5513M37.8834 31.5513C37.8477 31.5819 37.8122 31.6126 37.7773 31.6435C37.3953 31.9818 36.6384 32.0696 36.1245 32.0998C36.0572 32.1037 36.6936 31.8681 37.8834 31.5513ZM37.8834 31.5513C38.4303 31.4057 39.0941 31.243 39.8603 31.0785C42.4691 30.5184 44.0537 30.694 44.1774 30.7236C44.1741 30.7605 44.0367 30.842 43.9024 30.8877C43.7682 30.9333 43.6412 30.9407 43.2647 31.0665M32.9444 34.4278C33.3022 34.4025 33.9751 34.3183 35.9735 34.0189C37.7289 33.7559 40.9588 33.0806 42.706 32.7299C43.0902 32.6528 43.4226 32.5837 43.7151 32.521M43.7151 32.521C44.0636 32.4463 44.3556 32.3808 44.6114 32.3218M43.7151 32.521C43.618 32.4789 43.3739 32.5422 43.091 32.5568C42.36 32.5947 40.7716 32.7827 38.9431 32.8023C38.1039 32.8112 37.2013 32.9587 36.5786 32.9144C36.4183 32.9029 36.5522 32.8123 36.8151 32.7166C37.4447 32.4874 38.1853 32.2576 40.0177 32.2744C41.1141 32.2844 42.7853 32.3286 44.6114 32.3218M43.7151 32.521C43.7219 32.5239 43.7279 32.5273 43.7332 32.5313C43.7589 32.5507 43.7811 32.5695 43.8001 32.5878M44.6114 32.3218C45.2082 32.1843 45.608 32.0826 46.0695 31.9839C47.1174 31.7596 48.2773 31.5685 49.1451 31.4853C49.3643 31.4643 49.6466 31.4293 50.7198 31.352C51.7929 31.2748 53.6486 31.1573 54.8496 31.0556C56.0507 30.9539 56.5409 30.8715 56.857 30.8254C57.173 30.7793 57.3 30.7719 56.7996 30.9407C56.2991 31.1094 55.1674 31.4544 53.3479 31.7358C51.5284 32.0171 49.0555 32.2243 46.5272 32.2936C46.2189 32.302 45.9108 32.3083 45.6049 32.3129M44.6114 32.3218C44.7205 32.3214 44.8303 32.3209 44.9404 32.3201M45.6049 32.3129C45.382 32.3161 45.1603 32.3185 44.9404 32.3201M45.6049 32.3129C45.6961 32.2139 45.6969 32.1386 45.6612 32.1155C45.6136 32.0848 45.5107 32.1662 45.0575 32.2889C45.0187 32.2993 44.9797 32.3097 44.9404 32.3201M45.6049 32.3129C45.5745 32.3458 45.5341 32.3814 45.4817 32.4186C44.4387 33.1583 43.8871 32.9854 43.8098 33.0765C43.4909 33.4522 44.9823 32.9383 45.6104 32.8341C45.8715 32.7822 46.1083 32.7383 46.325 32.7305C46.4395 32.7336 46.563 32.7509 46.7757 32.7044M44.9404 32.3201C44.5725 32.4169 44.1857 32.5062 43.8001 32.5878M43.8001 32.5878C44.4642 33.2281 41.0993 33.2067 40.7005 33.2131C39.8398 33.2268 41.8032 33.0104 43.8001 32.5878ZM68.7967 17.7776C68.8033 17.551 68.847 16.6959 68.874 14.4365C68.8944 12.724 68.7471 9.86278 68.6998 8.43994C68.6525 7.0171 68.6633 7.1194 68.7222 7.33074C68.7811 7.54209 68.8878 7.85938 69.1742 10.3228C69.2462 10.9425 69.3294 11.6974 69.4177 12.5164M69.4177 12.5164C69.4278 12.6107 69.4381 12.7058 69.4483 12.8017M69.4177 12.5164C69.4147 12.8138 69.4164 13.1446 69.4251 13.5122C69.4258 13.5418 69.4266 13.5716 69.4273 13.6016M69.4177 12.5164C69.4261 11.6657 69.472 11.0887 69.4967 10.7089C69.5301 10.1964 69.5227 10.0694 69.4708 11.9623C69.464 12.2102 69.4565 12.4928 69.4483 12.8017M69.4483 12.8017C69.7037 15.1836 69.9943 18.023 70.1759 19.6568C70.4283 21.9276 70.456 21.73 70.5084 19.9203C70.5609 18.1107 70.6371 14.695 70.7371 12.503C70.8371 10.3111 70.9584 9.44633 71.0108 9.16319C71.0203 9.11167 71.0725 10.0754 71.1151 12.7473C71.1491 14.8828 71.0385 18.6022 70.9928 20.5922C70.9471 22.5822 70.9263 22.7305 71.0665 21.7321C71.2066 20.7337 71.5083 18.5841 71.8386 16.8589C72.1689 15.1337 72.5187 13.8979 72.745 13.3811C72.9714 12.8643 73.0637 13.104 73.1358 14.5788C73.2016 15.9259 73.2482 18.2974 73.2345 20.2525M69.4483 12.8017C69.4417 13.0525 69.4347 13.3207 69.4273 13.6016M73.2345 20.2525C73.2332 20.4379 73.2314 20.6195 73.229 20.7961C73.2062 22.4671 73.1308 23.6384 73.0847 24.2994M73.2345 20.2525C73.1915 21.4483 73.1497 22.7829 73.114 23.6528C73.1035 23.9082 73.0935 24.1232 73.0847 24.2994M73.2345 20.2525C73.2543 19.7036 73.2743 19.184 73.2941 18.7519C73.3571 17.3785 73.416 16.9585 73.4342 16.8286C73.4525 16.6987 73.4282 16.8717 73.4391 17.871C73.45 18.8704 73.4968 20.6909 73.4429 22.1847C73.4307 22.5228 73.4133 22.8414 73.3901 23.1354M73.0847 24.2994C73.0745 24.4453 73.0657 24.5664 73.0593 24.6625C73.0308 25.0869 73.0494 24.9989 73.0847 24.2994ZM73.3901 23.1354C73.3275 23.9277 73.2227 24.5418 73.0649 24.8806M73.3901 23.1354C73.3535 23.1584 73.3032 23.3212 73.2043 23.9965C73.1605 24.2954 73.1136 24.5922 73.0649 24.8806M73.3901 23.1354C73.394 23.133 73.3978 23.1321 73.4015 23.1324C74.453 23.2268 73.8522 25.9918 73.9355 26.3997C74.0173 26.8007 74.386 25.6377 74.5157 25.6166C74.6497 25.9236 74.7484 26.4986 74.8117 26.9533C74.846 27.0764 74.8845 26.9811 75.1594 26.8395M73.0649 24.8806C73.0225 24.9715 72.9763 25.0425 72.9261 25.0919C72.886 25.1313 72.8465 25.166 72.8074 25.1964M73.0649 24.8806C72.981 25.3774 72.8921 25.8493 72.8059 26.2641M72.8074 25.1964C72.7775 25.2195 72.7479 25.2401 72.7186 25.2582M72.8074 25.1964C72.7923 24.4149 72.7309 23.4987 72.5256 23.2219M72.8074 25.1964C72.816 25.646 72.8093 26.0511 72.8059 26.2641M72.7186 25.2582C72.6256 25.3156 72.5354 25.3478 72.4479 25.3579M72.7186 25.2582C72.7709 25.8553 72.7913 26.1588 72.7993 26.2961M72.7186 25.2582C72.7004 25.0496 72.6783 24.8053 72.6514 24.5197C72.6164 24.1465 72.5732 23.7035 72.5256 23.2219M72.4479 25.3579C72.4032 25.3631 72.3592 25.3625 72.3159 25.3564M72.4479 25.3579C72.4122 24.7213 72.3673 23.958 72.3188 23.1559M72.4479 25.3579C72.4539 25.4657 72.4597 25.5699 72.4652 25.67C72.5102 26.4925 72.5342 27.023 72.5465 27.3654M72.3159 25.3564C72.1374 25.3316 71.971 25.215 71.8159 25.0345M72.3159 25.3564C72.3604 25.7614 72.3999 26.1344 72.4315 26.4459C72.4769 26.8948 72.5057 27.2156 72.524 27.4439M72.3159 25.3564C72.2485 24.7421 72.1697 24.0541 72.0906 23.3953M71.8159 25.0345C71.7552 24.9639 71.6963 24.8835 71.639 24.795M71.8159 25.0345C71.8127 25.006 71.8095 24.9775 71.8064 24.9489C71.7844 24.7484 71.7641 24.5446 71.7455 24.34M71.8159 25.0345C71.9612 26.3251 72.1734 27.4239 72.3346 27.8081C72.3676 27.8866 72.4361 27.7429 72.524 27.4439M71.639 24.795C71.3374 24.3284 71.0829 23.6363 70.8694 22.9626M71.639 24.795C71.5231 25.3273 71.4189 25.9161 71.3083 26.4441C71.2252 26.8409 70.9929 24.1506 70.8694 22.9626M71.639 24.795C71.6734 24.6373 71.7087 24.4847 71.7455 24.34M70.8694 22.9626C70.8421 22.8763 70.8154 22.7903 70.7894 22.705M70.8694 22.9626C70.821 22.4966 70.7894 22.2617 70.79 22.535C70.7902 22.5914 70.7899 22.6481 70.7894 22.705M70.7894 22.705C70.6186 22.1453 70.4763 21.6207 70.3589 21.2766C70.1127 20.5547 69.9388 19.6602 69.7664 18.25C69.5976 16.8691 69.4645 15.0106 69.4273 13.6016M70.7894 22.705C70.7741 24.3556 70.4885 26.18 70.4785 25.9894C70.3501 23.5505 70.3657 21.349 70.3387 21.5704C70.0816 23.6739 69.7283 25.3249 69.6684 25.0573C69.5116 24.3574 69.3852 23.365 69.1229 22.5235M69.4273 13.6016C69.3747 15.6158 69.306 18.286 69.2524 19.938C69.182 22.1039 69.1404 22.4004 69.1259 22.5037C69.1248 22.5118 69.1238 22.5186 69.1229 22.5235M69.1229 22.5235C69.1198 22.54 69.117 22.5346 69.1093 22.4805M69.1229 22.5235C69.1184 22.5091 69.1139 22.4948 69.1093 22.4805M69.1093 22.4805C69.09 22.3445 69.0392 21.9002 68.8723 20.7202C68.6194 18.9322 68.0992 15.458 67.8338 13.2908C67.5685 11.1235 67.5737 10.3684 67.4411 10.943C67.3086 11.5176 67.0381 13.4448 66.9109 14.3511C66.808 15.0844 66.836 13.2691 66.8144 10.8856C66.8093 10.3281 66.6273 12.1885 66.5565 14.5972C66.5401 15.1531 66.6334 15.0554 66.7774 16.0093C66.9051 16.8547 67.0662 18.4447 67.1476 19.6136C67.2458 21.023 67.242 21.7782 67.2195 22.193M69.1093 22.4805C69.0228 22.2096 68.9218 21.9554 68.8005 21.7328M67.2195 22.193C67.2157 22.2627 67.2114 22.3228 67.207 22.3747M67.2195 22.193C67.2149 22.2622 67.2107 22.3224 67.207 22.3747M67.2195 22.193C67.2366 21.9359 67.2597 21.5552 67.2907 20.9933C67.3804 19.3668 67.5455 16.2155 67.631 14.7686C67.7165 13.3216 67.7174 13.6745 68.0321 16.1048C68.2196 17.5527 68.5185 19.7342 68.8005 21.7328M67.207 22.3747C67.1875 22.6031 67.1655 22.6745 67.1746 22.7154C67.1761 22.7225 67.1843 22.6915 67.207 22.3747ZM68.8005 21.7328C68.8694 22.2209 68.9373 22.6981 69.0022 23.151M68.8005 21.7328C68.7612 21.6606 68.7197 21.5917 68.6759 21.5267C68.6583 21.5006 68.6419 21.4826 68.6267 21.4727M69.0022 23.151C69.1178 23.9566 69.2244 24.6854 69.3113 25.2625C69.6472 27.4928 69.6715 27.3198 69.5676 26.5341C69.3894 25.1862 69.1792 24.0163 69.0022 23.151ZM69.0022 23.151C68.8923 22.6133 68.7951 22.1932 68.7263 21.9212C68.691 21.7818 68.6576 21.628 68.6267 21.4727M68.6267 21.4727C68.565 21.1629 68.5131 20.8471 68.4751 20.6267C68.4007 20.1945 68.341 22.0958 68.2507 25.1874C68.219 26.2712 68.2016 26.3699 68.2206 26.3237C68.3164 26.0919 68.3748 24.6024 68.4424 22.4887C68.4658 21.756 68.5158 21.4005 68.6267 21.4727ZM71.7455 24.34C71.8463 23.9444 71.9581 23.6087 72.0906 23.3953M71.7455 24.34C71.641 23.1898 71.5887 22.0123 71.58 21.2365C71.5696 20.3227 71.6182 19.9768 71.8003 21.1758C71.881 21.7071 71.9861 22.5257 72.0906 23.3953M72.0906 23.3953C72.1061 23.3703 72.1219 23.3469 72.138 23.3254C72.2046 23.2364 72.2646 23.1815 72.3188 23.1559M72.3188 23.1559C72.4002 23.1174 72.4685 23.1449 72.5256 23.2219M72.3188 23.1559C72.2009 21.2051 72.0622 19.025 71.9857 17.8801C71.8725 16.1846 71.8951 16.742 72.0553 18.4563C72.1772 19.7611 72.3739 21.6872 72.5256 23.2219M72.8059 26.2641C72.805 26.3222 72.8043 26.366 72.8043 26.3925C72.8043 26.3978 72.8037 26.3731 72.7993 26.2961M72.8059 26.2641C72.8037 26.2748 72.8015 26.2854 72.7993 26.2961M72.7993 26.2961C72.7088 26.7291 72.6215 27.098 72.5465 27.3654M72.5465 27.3654C72.5662 27.9093 72.5566 27.978 72.5553 27.9872C72.5538 27.9974 72.563 27.9318 72.524 27.4439M72.5465 27.3654C72.5389 27.3926 72.5314 27.4188 72.524 27.4439M79.582 16.5428C79.6249 16.7756 79.6678 17.0084 79.6795 18.6384C79.6912 20.2685 79.6704 23.2889 79.6216 25.1166C79.5727 26.9443 79.4964 27.4879 79.2722 25.7642C79.0481 24.0406 78.6783 20.0332 78.5047 17.6689C78.3311 15.3046 78.365 14.7046 78.3208 14.4751C78.2767 14.2456 78.1536 14.4047 77.8435 16.0645C77.5335 17.7242 77.0402 20.8798 76.9181 21.6547C76.796 22.4297 77.06 20.7284 77.306 19.4265C77.7151 17.2621 78.0763 16.2063 78.2002 15.8679C78.2534 15.7225 78.2607 15.6214 78.2057 17.5395C78.1506 19.4576 78.0262 23.3956 77.9513 25.3219C77.8764 27.2483 77.8547 27.0437 77.5581 26.3692C77.2615 25.6946 76.6907 24.5564 76.3094 23.6932C76.269 23.6016 76.2306 23.5128 76.1942 23.4269M76.1942 23.4269C75.6787 22.2085 75.5705 21.5664 75.6194 21.3832C75.6714 21.1882 76.0393 21.2882 76.2051 21.3741C76.2686 21.4708 76.2903 21.6754 76.2588 22.3543C76.2455 22.6398 76.2227 23.0081 76.1942 23.4269ZM76.1942 23.4269C76.155 24.004 76.1049 24.6771 76.0539 25.3618M80.5973 12.0283C80.6467 12.0352 80.8308 13.4215 81.0881 16.6527C81.235 18.4979 81.2206 20.7733 81.1359 22.7609C81.1148 23.2558 81.0863 23.7287 81.054 24.1719M81.054 24.1719C80.9583 25.4828 80.8286 26.5327 80.7565 27.1165L80.7523 27.1503C80.6576 27.918 80.6784 27.7698 80.8993 25.657C80.9439 25.2307 80.9966 24.7246 81.054 24.1719ZM81.054 24.1719C81.281 21.9855 81.5812 19.0705 81.7417 17.4846C81.9427 15.4976 81.9115 15.72 81.8761 16.6003C81.8407 17.4805 81.8022 19.0119 81.6299 20.9762C81.4577 22.9404 81.153 25.2911 80.839 27.7129M79.3377 25.899C79.2639 26.0658 79.073 26.6971 79.2569 27.5516C79.3022 27.7622 79.4054 27.9408 79.4915 28.0563C79.6337 28.2472 79.9935 28.2814 80.3851 28.2985C80.9004 28.3211 81.2853 27.6015 81.6191 27.225C81.9212 26.8842 82.18 28.657 82.4424 29.3362C82.5604 29.5807 82.6826 29.8032 82.9027 29.9486C83.059 30.0095 83.3061 30.0442 83.5606 30.0799M83.6447 29.4809C83.7247 28.9112 83.9917 27.7264 84.2867 27.257C84.6183 26.7292 84.9828 26.4637 85.3475 26.1332C85.7513 25.7673 86.3461 25.258 86.8752 24.9474C87.3542 24.6664 87.938 24.4355 88.7648 24.0686C89.5445 23.7226 90.3884 23.6594 91.5231 23.4136C93.7444 22.9324 95.3028 22.7451 95.5389 22.6893C96.1192 22.5521 96.744 22.616 97.3395 22.5477C98.2683 22.4411 99.1455 22.3683 99.7024 22.3953C100.357 22.427 101.484 22.1636 102.508 21.9881C103.016 21.9008 103.585 21.7453 104.202 21.6147C104.345 21.5963 104.472 21.589 104.591 21.5674C104.709 21.5458 104.815 21.5103 105.159 21.4303M68.0992 8.0602C67.9015 8.38594 67.573 9.63312 67.4293 10.657C67.3862 10.9643 67.4035 10.8408 67.3999 10.6872C67.3835 9.99497 67.4318 9.19263 67.554 8.40625C67.6557 7.75134 68.2164 7.21395 68.4534 6.80097C68.7171 6.34139 69.4174 6.26175 70.0207 6.23038C70.9026 6.18453 71.6213 7.96514 72.1012 8.72074C72.4665 9.29588 72.7857 10.1891 73.1513 11.3814C73.6168 12.8996 73.7126 13.9364 73.7665 14.2734C73.848 14.7832 74.07 16.0899 74.1708 17.8199C74.2707 19.5355 74.0715 20.4479 74.044 21.0949C74.0095 21.6126 73.9551 22.3646 73.8876 23.2972C73.848 23.6719 73.7648 24.2648 73.6791 24.8757M69.9683 7.25368C70.1291 7.5549 70.2866 8.0595 70.7578 9.74149C70.8355 10.0185 70.9219 10.3406 71.0136 10.692M71.0136 10.692C71.397 12.1617 71.8714 14.1451 72.1718 15.4994C72.544 17.1774 72.6055 17.8159 72.621 17.9913C72.6364 18.1668 72.6039 17.8599 72.1429 16.3798C71.6818 14.8996 70.7932 12.2555 70.3211 10.8158C69.8003 9.22742 69.8049 8.96225 69.8736 8.83179C69.903 8.77579 70.0237 8.83875 70.1119 8.93968C70.278 9.20272 70.4824 9.5635 70.9702 10.592C70.9843 10.6244 70.9988 10.6577 71.0136 10.692ZM71.0136 10.692C71.3807 11.5411 71.96 12.9616 72.6059 14.5713M71.6443 6.19105C71.8076 6.28955 72.2776 6.91207 72.9874 8.38476C73.377 9.19299 73.5028 9.77265 73.6406 10.4071L73.6446 10.4257C73.953 11.6798 74.0391 12.1492 74.225 13.0899C74.2599 13.3009 74.2708 13.4032 74.2714 13.5835M82.184 9.42619C81.9149 9.71672 81.603 10.4868 81.4653 11.1038C81.1883 12.3447 80.8544 13.4599 80.6888 14.1887C80.5125 14.9644 80.3165 16.2046 80.0989 17.3964C80.0332 17.756 79.9211 17.586 79.8471 17.3843C79.5014 16.4426 79.192 15.5246 79.0547 13.6902C79.0522 13.6568 79.05 13.6238 79.0481 13.5914M79.0481 13.5914C78.9596 12.0927 79.4859 11.6331 79.7649 11.0613C80.0721 10.4319 80.7552 9.96773 81.1261 9.71021C81.6645 9.33636 80.2765 11.061 79.9525 11.732C79.6219 12.4168 79.2828 13.1728 79.0481 13.5914ZM79.0481 13.5914C78.9758 13.7202 78.9134 13.8171 78.8642 13.87C78.7665 13.9752 78.6196 13.9891 78.5346 13.9528C78.4141 13.8107 78.3207 13.5678 78.2572 13.2042C78.2505 12.9746 78.2955 12.6534 78.342 12.3225M82.8986 8.68668C83.0162 8.9307 83.245 9.47126 83.4696 10.0494C83.8667 11.0715 83.994 12.1202 83.9791 12.5903C83.9713 12.8402 84.0943 13.9345 84.0648 16.0486C83.8104 18.509 83.5825 19.9535 83.5153 20.1597C83.4868 20.2706 83.4695 20.3942 83.4516 20.5214M82.4454 11.3715C82.6102 12.0031 82.7978 12.8425 83.1669 14.7358C83.3307 15.5759 83.4392 17.3239 83.4537 18.4203C83.4555 18.5596 83.4472 18.7359 83.2896 19.9509C83.1321 21.166 82.8165 23.4144 82.626 24.6821C82.2353 27.0119 82.0069 28.4601 81.9152 28.8408C81.8761 29.0273 81.8518 29.2003 81.7519 29.368M82.1564 11.2546C82.1495 11.304 82.0974 11.6754 82.0125 12.6388C81.8812 14.1303 81.8889 15.3366 81.823 16.0752C81.7284 18.1122 81.6057 19.1661 81.5889 19.5573C81.5752 19.7474 81.551 19.9203 81.526 20.0985M83.8784 11.4963C83.8541 11.67 83.9369 13.9521 83.9175 15.6595C83.9037 16.8791 83.6074 18.682 83.5986 19.3816C83.5914 19.9514 83.4888 20.8 83.4139 21.7854C83.3855 22.159 83.3434 22.5583 83.23 23.6331L83.227 23.6609C82.9064 26.038 82.6113 27.7815 82.4823 28.157C82.4304 28.3417 82.4061 28.5146 82.3811 28.6928" stroke="#346F51" stroke-width="3" stroke-linecap="round"/>
</g>
<g id="Vector 1">
<path d="M59.4654 28.9653C59.4786 28.9262 59.4997 28.8714 59.5293 28.8025C58.2337 28.8885 57.482 29.0812 57.3275 29.0477C57.1665 29.0129 57.2606 28.6923 57.328 28.484C57.4099 28.2308 57.8712 27.9826 58.5394 27.6918C59.2348 27.3891 60.1097 27.3441 61.5141 27.3755C61.5882 27.3412 61.6643 27.306 61.7423 27.27C62.9072 26.7323 64.2369 26.7172 65.7102 26.7059C66.5678 26.6993 67.6469 26.8359 68.1479 26.9181C68.6488 27.0004 68.5386 27.0612 68.3875 27.1302C68.0891 27.2663 67.3148 27.4946 66.1966 27.7706C67.2628 27.8458 67.8806 27.8401 68.2804 27.8242C68.7129 27.8071 68.8696 27.7782 67.711 27.8946C66.5525 28.011 64.074 28.2736 62.7046 28.434C60.7944 28.6578 60.2939 29.2429 59.892 29.4458C59.7361 29.5246 59.8304 29.053 59.8 28.9073C59.7869 28.8447 59.6523 28.8723 59.5422 28.9208C59.516 28.9324 59.4904 28.9473 59.4654 28.9653C58.9805 29.3152 58.7401 30.8346 58.7591 31.7385C58.7622 31.8876 58.8156 32.0659 58.8143 32.0811C58.7162 33.1738 57.6337 29.5154 57.5511 29.4641C56.9957 29.1192 57.3735 30.8091 57.4795 31.52C57.5149 31.7572 57.5763 31.9758 57.655 32.1795C58.0058 32.2248 58.3109 32.3047 58.468 32.4587C58.6818 32.6683 58.8981 32.8814 58.9866 33.1489C59.0315 33.2846 59.0481 33.49 58.9768 33.4797C58.8004 33.4541 58.3735 33.4187 58.1249 33.0503C57.9483 32.7886 57.7799 32.503 57.655 32.1795C57.4621 32.1546 57.2554 32.1402 57.0518 32.1297C56.851 32.1193 56.838 32.2523 56.8951 32.389C57.1589 33.0205 57.6232 33.2365 57.9674 33.5295C58.5327 34.0107 59.643 34.0348 60.2206 34.2188C60.657 34.3578 61.1434 34.5028 61.8266 34.6627C63.427 35.0372 64.1722 34.877 64.9405 34.818C65.603 34.7671 66.335 34.6673 66.9982 34.6185C67.6613 34.5698 68.2777 34.5546 69.932 34.5054C71.2001 34.4678 73.6322 34.338 75.0669 34.2527C77.5188 34.1068 78.3375 34.0905 78.7847 34.1143C79.3628 34.1451 80.0252 34.147 80.588 34.162C81.6332 34.1899 82.1939 34.2464 82.816 34.2181C83.3032 34.1959 83.9238 34.002 84.712 33.7015C85.3085 33.4741 86.2884 33.2549 87.1298 32.9491C87.4033 32.8497 87.5971 32.7441 87.6783 32.6272C87.8642 32.3593 86.9661 32.5007 86.4382 32.6054C85.4425 32.8028 84.8129 32.8397 83.2796 32.9964C82.7352 33.052 82.0678 33.0695 80.8305 33.0249C80.2042 33.0024 79.4369 32.9595 78.7039 32.9149C78.5552 32.9315 78.4069 32.9477 78.2603 32.9633C77.2702 33.0682 76.3265 33.2339 75.7576 33.3434C75.2169 33.4475 74.7445 33.6084 73.0264 33.6048C71.7054 33.6021 69.2689 33.5653 67.97 33.5618C66.671 33.5583 66.3204 33.6004 65.9538 33.6048C65.0281 33.616 63.6814 33.3456 62.4806 33.4797C61.2572 33.6162 60.8278 34.39 60.4476 34.0707C60.1149 33.7912 60.2003 33.6504 60.2206 33.1489C60.231 32.894 59.7903 32.2478 60.0743 32.1809C60.3796 32.1089 60.6333 32.8486 60.9019 32.8695C61.5259 32.9182 62.4976 32.4865 63.6861 32.5515C64.5951 32.6012 65.6118 32.6131 67.3519 32.654C68.6682 32.685 69.7718 32.3866 70.4443 32.4424C71.3459 32.5173 72.2589 32.584 73.5996 32.654C74.4833 32.7002 75.45 32.713 76.8193 32.7965C77.306 32.8261 77.9886 32.8714 78.7039 32.9149C80.0015 32.7698 81.3246 32.5906 81.7988 32.4957C82.6084 32.3336 83.1037 31.806 83.3468 31.4548C83.4055 31.3699 83.3633 31.2521 83.2579 31.1849C82.9885 31.0131 82.4835 30.9475 81.7665 30.6803C80.6973 30.2821 79.3297 29.8382 77.909 29.2796C76.4841 28.7194 75.5183 28.5818 75.1557 28.5182C73.8184 28.2836 71.9461 28.0543 70.9033 28.1642C70.1723 28.2412 69.4542 28.4229 67.7283 28.6558C67.2079 28.726 66.0679 28.7946 64.5182 28.9494C62.8968 29.1113 61.1215 29.3868 60.7824 29.5954C60.3096 29.8864 62.2007 30.0777 64.0307 30.4629C64.4056 30.5418 64.7533 30.6493 65.1229 30.7639C65.716 30.8435 66.1903 30.9227 66.5228 30.9913C66.5493 30.9967 66.5749 31.0021 66.5996 31.0074C68.0289 31.1529 69.5752 31.3068 70.7816 31.3981C71.0299 31.3659 71.3463 31.3243 71.7759 31.2709C72.7554 31.1492 74.5221 30.8421 75.758 30.7404C78.6331 30.5038 79.4176 30.7992 79.3872 30.8455C79.091 31.2961 77.3304 31.2994 75.4396 31.5092C74.4647 31.6174 73.8651 31.5861 71.5141 31.448C71.289 31.4348 71.0433 31.4179 70.7816 31.3981C70.3624 31.4525 70.1371 31.48 69.889 31.492C69.4204 31.5148 68.4061 31.4909 67.1351 31.2671C67.1502 31.3304 67.1451 31.4 67.1244 31.4485C66.9138 31.9407 66.078 31.9576 65.9175 31.9998C65.8891 32.0073 65.9811 31.8954 65.9538 31.8264C65.8771 31.633 65.1558 31.5977 64.5054 31.4683C64.471 31.3682 65.05 31.2205 66.1187 31.0524C65.9285 31.0041 65.7501 30.9538 65.5795 30.9033C64.9263 30.8367 64.327 30.7761 63.8341 30.7297C61.3748 30.4982 60.8896 30.4849 60.9019 30.4743C61.009 30.3817 61.4554 30.4125 62.4806 30.4912C63.5089 30.5702 64.4033 30.6673 65.1229 30.7639C64.7533 30.6493 64.4056 30.5418 64.0307 30.4629C62.2007 30.0777 60.3096 29.8864 60.7824 29.5954C61.1215 29.3868 62.8968 29.1113 64.5182 28.9494C66.0679 28.7946 67.2079 28.726 67.7283 28.6558C69.4542 28.4229 70.1723 28.2412 70.9033 28.1642C71.9461 28.0543 73.8184 28.2836 75.1557 28.5182C75.5183 28.5818 76.4841 28.7194 77.909 29.2796C79.3297 29.8382 80.6973 30.2821 81.7665 30.6803C82.4835 30.9475 82.9885 31.0131 83.2579 31.1849C83.3633 31.2521 83.4055 31.3699 83.3468 31.4548C83.1037 31.806 82.6084 32.3336 81.7988 32.4957C81.3246 32.5906 80.0015 32.7698 78.7039 32.9149C79.4369 32.9595 80.2042 33.0024 80.8305 33.0249C82.0678 33.0695 82.7352 33.052 83.2796 32.9964C84.8129 32.8397 85.4425 32.8028 86.4382 32.6054C86.9661 32.5007 87.8642 32.3593 87.6783 32.6272C87.5971 32.7441 87.4033 32.8497 87.1298 32.9491C86.2884 33.2549 85.3085 33.4741 84.712 33.7015C83.9238 34.002 83.3032 34.1959 82.816 34.2181C82.1939 34.2464 81.6332 34.1899 80.588 34.162C80.0252 34.147 79.3628 34.1451 78.7847 34.1143C78.3375 34.0905 77.5188 34.1068 75.0669 34.2527C73.6322 34.338 71.2001 34.4678 69.932 34.5054C68.2777 34.5546 67.6613 34.5698 66.9982 34.6185C66.335 34.6673 65.603 34.7671 64.9405 34.818C64.1722 34.877 63.427 35.0372 61.8266 34.6627C61.1434 34.5028 60.657 34.3578 60.2206 34.2188C59.643 34.0348 58.5327 34.0107 57.9674 33.5295C57.6232 33.2365 57.1589 33.0205 56.8951 32.389C56.838 32.2523 56.851 32.1193 57.0518 32.1297C57.2554 32.1402 57.4621 32.1546 57.655 32.1795C57.5763 31.9758 57.5149 31.7572 57.4795 31.52C57.3735 30.8091 56.9957 29.1192 57.5511 29.4641C57.6337 29.5154 58.7162 33.1738 58.8143 32.0811C58.8156 32.0659 58.7622 31.8876 58.7591 31.7385C58.7401 30.8346 58.9805 29.3152 59.4654 28.9653Z" fill="#A73A3A"/>
<path d="M59.4491 29.0241C59.4561 28.9742 59.5376 28.756 59.7125 28.4214C59.8563 28.1463 60.5919 27.8011 61.7423 27.27C62.9072 26.7323 64.2369 26.7172 65.7102 26.7059C66.5678 26.6993 67.6469 26.8359 68.1479 26.9181C68.6488 27.0004 68.5386 27.0612 68.3875 27.1302C68.0517 27.2834 67.113 27.5533 65.7597 27.8766C64.702 28.1294 63.5518 28.2103 62.4168 28.436C61.2577 28.6665 60.8285 28.7291 59.7181 28.791C58.3066 28.8696 57.4894 29.0828 57.3275 29.0477C57.1665 29.0129 57.2606 28.6923 57.328 28.484C57.4099 28.2308 57.8712 27.9826 58.5394 27.6918C59.2885 27.3657 60.246 27.3386 61.8492 27.3841C62.9669 27.4157 64.6927 27.6544 65.9266 27.7505C67.1605 27.8466 67.848 27.8414 68.2804 27.8242C68.7129 27.8071 68.8696 27.7782 67.711 27.8946C66.5525 28.011 64.074 28.2736 62.7046 28.434C60.7944 28.6578 60.2939 29.2429 59.892 29.4458C59.7361 29.5246 59.8304 29.053 59.8 28.9073C59.7869 28.8447 59.6523 28.8723 59.5422 28.9208C59.0059 29.1572 58.7391 30.7881 58.7591 31.7385C58.7622 31.8876 58.8156 32.0659 58.8143 32.0811C58.7162 33.1738 57.6337 29.5154 57.5511 29.4641C56.9957 29.1192 57.3735 30.8091 57.4795 31.52C57.5711 32.1338 57.8372 32.6237 58.1249 33.0503C58.3735 33.4187 58.8004 33.4541 58.9768 33.4797C59.0481 33.49 59.0315 33.2846 58.9866 33.1489C58.8981 32.8814 58.6818 32.6683 58.468 32.4587C58.2245 32.2199 57.6256 32.1594 57.0518 32.1297C56.851 32.1193 56.838 32.2523 56.8951 32.389C57.1589 33.0205 57.6232 33.2365 57.9674 33.5295C58.5327 34.0107 59.643 34.0348 60.2206 34.2188C60.657 34.3578 61.1434 34.5028 61.8266 34.6627C63.427 35.0372 64.1722 34.877 64.9405 34.818C65.603 34.7671 66.335 34.6673 66.9982 34.6185C67.6613 34.5698 68.2777 34.5546 69.932 34.5054C71.2001 34.4678 73.6322 34.338 75.0669 34.2527C77.5188 34.1068 78.3375 34.0905 78.7847 34.1143C79.3628 34.1451 80.0252 34.147 80.588 34.162C81.6332 34.1899 82.1939 34.2464 82.816 34.2181C83.3032 34.1959 83.9238 34.002 84.712 33.7015C85.3085 33.4741 86.2884 33.2549 87.1298 32.9491C87.4033 32.8497 87.5971 32.7441 87.6783 32.6272C87.8642 32.3593 86.9661 32.5007 86.4382 32.6054C85.4425 32.8028 84.8129 32.8397 83.2796 32.9964C82.7352 33.052 82.0678 33.0695 80.8305 33.0249C79.5931 32.9804 77.8047 32.8565 76.8193 32.7965C75.45 32.713 74.4833 32.7002 73.5996 32.654C72.2589 32.584 71.3459 32.5173 70.4443 32.4424C69.7718 32.3866 68.6682 32.685 67.3519 32.654C65.6118 32.6131 64.5951 32.6012 63.6861 32.5515C62.4976 32.4865 61.5259 32.9182 60.9019 32.8695C60.6333 32.8486 60.3796 32.1089 60.0743 32.1809C59.7903 32.2478 60.231 32.894 60.2206 33.1489C60.2003 33.6504 60.1149 33.7912 60.4476 34.0707C60.8278 34.39 61.2572 33.6162 62.4806 33.4797C63.6814 33.3456 65.0281 33.616 65.9538 33.6048C66.3204 33.6004 66.671 33.5583 67.97 33.5618C69.2689 33.5653 71.7054 33.6021 73.0264 33.6048C74.7445 33.6084 75.2169 33.4475 75.7576 33.3434C76.3265 33.2339 77.2702 33.0682 78.2603 32.9633C79.6873 32.8119 81.2702 32.6015 81.7988 32.4957C82.6084 32.3336 83.1037 31.806 83.3468 31.4548C83.4055 31.3699 83.3633 31.2521 83.2579 31.1849C82.9885 31.0131 82.4835 30.9475 81.7665 30.6803C80.6973 30.2821 79.3297 29.8382 77.909 29.2796C76.4841 28.7194 75.5183 28.5818 75.1557 28.5182C73.8184 28.2836 71.9461 28.0543 70.9033 28.1642C70.1723 28.2412 69.4542 28.4229 67.7283 28.6558C67.2079 28.726 66.0679 28.7946 64.5182 28.9494C62.8968 29.1113 61.1215 29.3868 60.7824 29.5954C60.3096 29.8864 62.2007 30.0777 64.0307 30.4629C64.8257 30.6302 65.4983 30.9259 66.516 31.1458C68.0728 31.4822 69.3466 31.5184 69.889 31.492C70.2842 31.4728 70.6213 31.4145 71.7759 31.2709C72.7554 31.1492 74.5221 30.8421 75.758 30.7404C78.6331 30.5038 79.4176 30.7992 79.3872 30.8455C79.091 31.2961 77.3304 31.2994 75.4396 31.5092C74.4647 31.6174 73.8651 31.5861 71.5141 31.448C69.4944 31.3294 65.8103 30.9157 63.8341 30.7297C61.3748 30.4982 60.8896 30.4849 60.9019 30.4743C61.009 30.3817 61.4554 30.4125 62.4806 30.4912C65.1376 30.6953 66.9008 31.0202 67.0629 31.1451C67.1486 31.2112 67.1611 31.3627 67.1244 31.4485C66.9138 31.9407 66.078 31.9576 65.9175 31.9998C65.8891 32.0073 65.9811 31.8954 65.9538 31.8264C65.8771 31.633 65.1558 31.5977 64.5054 31.4683C64.4641 31.348 65.3083 31.159 66.8234 30.9485C67.6336 30.868 68.5276 30.8408 69.5998 30.8341" stroke="#346F51" stroke-width="2" stroke-linecap="round"/>
</g>
</g>
<path id="face" d="M76.0553 91.1458C75.7928 93.0672 75.6195 94.4636 75.7035 98.5676C75.7203 99.3878 76.2233 99.4561 76.6183 99.3708C78.6723 96.9389 80.2551 92.3795 80.4729 90.5841C80.5175 90.1011 80.5175 89.5814 80.5175 89.0459M61.881 109.782C62.5766 110.129 64.3221 111.699 65.943 113.189C68.0794 115.155 70.711 115.73 74.6365 116.473C79.2932 117.354 81.2945 115.909 84.1818 114.339C86.1107 113.291 87.6834 111.804 89.0431 110.226C89.4368 109.788 89.9566 109.268 90.3109 108.827C90.6653 108.386 90.8385 108.039 91.2795 107.157M37.6885 71.9508C38.496 72.5371 40.8151 74.9866 42.9836 75.6885C46.3782 76.7874 48.6366 75.6606 50.1475 74.7541C51.7049 73.8197 52.6393 72.5738 52.6393 72.5738C52.6393 72.5738 53.6236 71.2725 54.2918 70.3832M93.4491 67.9497C93.5221 68.463 93.9624 69.7859 94.7732 71.0425C95.6539 72.4074 97.1687 73.6082 98.7377 74.1312C100.607 74.7541 102.953 74.2945 104.542 74.0346C106.285 73.7493 107.307 72.5247 108.232 71.6774C108.417 71.4186 108.563 71.1265 108.748 70.8301C108.933 70.5336 109.152 70.2416 109.82 69.7195" stroke="#891313" stroke-width="3" stroke-linecap="round"/>
</g>
</svg>
