<svg width="26" height="24" viewBox="0 0 26 24" fill="none" xmlns="http://www.w3.org/2000/svg">
<path d="M2 3.24824C2.4645 3.41778 3.51446 4.2706 5.20421 5.80799C8.87398 9.14687 10 10.6925 11.0815 11.508C12.443 12.5347 14.4943 14.2014 15.8134 15.4023C17.8861 17.1143 19.9878 18.9946 21.9457 20.7093C22.4452 21.1395 22.908 21.5633 23.3847 22M2.97631 21.8363C3.73949 20.8571 5.65467 19.1689 7.09896 17.5525C9.96783 14.3416 14.2945 10.5929 17.1731 7.98887C19.5764 5.80265 21.4052 4.53651 22.0272 3.76416C22.3642 3.40964 22.7443 3.13109 24 2" stroke="#D46C6C" stroke-width="3" stroke-linecap="round"/>
</svg>
