<svg width="73" height="43" viewBox="0 0 73 43" fill="none" xmlns="http://www.w3.org/2000/svg">
<ellipse cx="36.5" cy="33.5" rx="35.5" ry="8.5" fill="#A42C2C" stroke="#892222"/>
<path d="M1 10H72V33H1V10Z" fill="#A42C2C"/>
<path d="M72 10H71.5V33H72H72.5V10H72ZM1 33H1.5V10H1H0.5V33H1Z" fill="#892222"/>
<ellipse cx="36.5" cy="9.5" rx="35.5" ry="8.5" fill="#A42C2C" stroke="#892222"/>
<path d="M36.3904 7.19103C35.9619 7.228 35.6263 7.34004 35.3829 7.4798C35.2516 7.55522 35.1771 7.69462 35.1211 7.81561C35.0924 7.87755 35.102 7.95509 35.1297 8.01167C35.2434 8.24367 35.549 8.29231 35.8291 8.37633C36.3551 8.53414 37.1175 8.44243 37.3975 8.36765C37.7128 8.28348 38.0507 8.25534 38.2941 8.19036C38.419 8.15701 38.4999 8.03183 38.5652 7.92008C38.6263 7.81547 38.631 7.64028 38.6033 7.45375C38.5652 7.19782 38.184 7.21008 37.9412 7.1353C37.6291 7.03918 37.141 7.02299 36.7833 7.13446C36.5296 7.21353 36.3545 7.56298 36.1111 7.70414C35.8904 7.83215 35.3675 7.86322 34.3895 7.81673C33.8064 7.78901 32.7337 7.80721 32.1351 7.81645C31.2173 7.83062 30.5871 7.91924 29.9326 7.96573C29.0367 8.02937 28.6243 8.06824 27.8045 8.09653C27.2414 8.11596 26.498 8.21725 25.8339 8.27382C25.1651 8.3308 24.6494 8.47828 24.2453 8.60039C24.1768 8.62108 24.124 8.66537 24.1232 8.7029C24.1223 8.74043 24.1778 8.7774 25.0844 8.79645C25.991 8.81549 27.7471 8.81549 28.7257 8.79701C30.0815 8.7714 30.3395 8.66649 30.7499 8.59171C31.0183 8.54278 31.2358 8.44243 31.5344 8.4049C31.9219 8.35618 32.169 8.25534 32.6076 8.16235C32.9123 8.09775 34.2494 8.08729 35.1474 8.0408C35.306 8.03258 35.4375 8.01279 35.5493 7.96629C35.6686 7.91664 35.7552 7.80777 35.8112 7.65905C35.8899 7.44991 35.8487 7.21064 35.8767 6.68241C35.9881 4.58083 35.8302 4.20539 35.7745 3.94295C35.75 3.82773 35.6997 3.71861 35.6624 3.66231C35.5678 3.51935 35.6991 4.12697 35.7274 4.48239C35.7531 4.80534 35.9042 5.32122 36.0445 5.66824C36.1402 5.90507 36.2963 6.12561 36.5481 6.33147C36.8213 6.55485 37.3415 6.33287 37.6681 6.18331C37.9576 6.05073 38.1818 5.94076 38.545 5.76347C39.2309 5.42873 39.8219 5.36268 40.7378 5.14702C41.2884 5.01737 41.7847 5.00642 42.1863 4.95992C42.4542 4.92892 42.6636 4.93191 42.7199 4.92239C42.9346 4.88607 42.3292 5.21143 41.9934 5.3792C41.8193 5.46616 40.88 5.73182 39.5273 6.2074C39.0014 6.39226 38.8215 6.5166 38.754 6.59222C38.4368 6.94751 40.2163 6.77988 41.1666 6.91039C41.5269 6.95988 41.7853 7.04147 42.3418 7.16191C43.4983 7.41219 44.325 7.69462 44.5113 7.78788C45.1383 8.10187 46.1349 8.49732 46.7228 8.81409C46.8998 8.90948 47.104 9.00035 47.1902 9.07569C47.2765 9.15103 47.2395 9.20649 47.1835 9.2443C47.1275 9.28211 47.0536 9.30059 46.2391 9.25466C45.4246 9.20873 43.8719 9.09781 42.7022 8.97598C41.5326 8.85415 40.7932 8.72475 40.3846 8.64885C39.803 8.54081 39.5844 8.44243 39.0066 8.45111C38.8893 8.45287 38.8741 8.53429 38.8646 8.59983C38.8175 8.9242 38.7991 9.87251 38.7621 11.2421C38.7295 12.45 38.538 13.1091 38.4635 13.3323C38.2881 13.8579 38.24 14.3947 38.0902 14.7529C38.0098 14.9451 37.8098 14.3992 37.7446 14.2502C37.6819 14.1071 37.4199 13.1931 37.0093 11.8219C36.8575 11.2824 36.8206 11.0606 36.8015 10.7153C36.7825 10.3699 36.7825 9.9078 36.7825 9.43167" stroke="#346F51" stroke-width="2" stroke-linecap="round"/>
<path d="M38.1716 6.95351C38.0006 7.01021 37.7429 7.15368 37.5998 7.23916C37.4571 7.32449 37.4843 7.58236 37.5268 7.76836C37.6025 8.09934 38.2832 7.98442 39.0981 8.05572C39.9057 8.12639 40.4903 8.01363 40.6191 7.85684C40.6885 7.77244 40.6629 7.61501 40.6204 7.51364C40.4634 7.1393 39.9774 7.12533 39.5337 6.98272C38.9988 6.81082 38.5169 6.8109 37.5311 6.79586C37.2253 6.7912 37.0556 6.9243 36.9267 7.05273C36.8672 7.11207 36.8829 7.20952 36.9255 7.28168C37.2541 7.52566 38.3348 7.64078 39.0719 7.56948C39.2008 7.55487 39.3709 7.55487 39.5461 7.55487" stroke="#2E6549" stroke-width="2" stroke-linecap="round"/>
</svg>
